<svg width="855" height="325" viewBox="0 0 855 325" fill="none" xmlns="http://www.w3.org/2000/svg">
<path opacity="0.5" d="M564.731 41.4316L72.375 99.922" stroke="#626262" stroke-width="3" stroke-dasharray="6 6"/>
<path opacity="0.5" d="M63.1191 132.5L335.21 256.144" stroke="#626262" stroke-width="3" stroke-dasharray="6 6"/>
<path d="M352.609 290.201L339.652 316.855M448.119 290.201L462.186 316.855" stroke="#626262" stroke-width="5" stroke-linecap="round"/>
<line x1="11.5" y1="318.498" x2="848.464" y2="318.498" stroke="#626262" stroke-width="13" stroke-linecap="round"/>
<path opacity="0.5" d="M53.2079 62.5312L36.2947 66.2654L47.9852 79.0456L53.2079 62.5312ZM6.46555 107.321L44.2592 72.7498L42.2343 70.5362L4.4407 105.107L6.46555 107.321Z" fill="#626262"/>
<path opacity="0.5" d="M53.495 151.75L36.5818 148.016L48.2723 135.236L53.495 151.75ZM6.75266 106.961L44.5463 141.531L42.5214 143.745L4.72781 109.174L6.75266 106.961Z" fill="#626262"/>
<path d="M5.45312 29.5859V178.773M5.45312 182.105V178.773M5.45312 178.773H15.0781" stroke="#626262" stroke-width="9"/>
<path opacity="0.5" d="M31.7386 51.7969L17.5512 61.7326L33.2495 69.0514L31.7386 51.7969ZM24.6746 63.3986L4.8358 105.952L7.55482 107.219L27.3937 64.6663L24.6746 63.3986Z" fill="#626262"/>
<path opacity="0.5" d="M32.0237 162.484L17.8364 152.549L33.5346 145.23L32.0237 162.484ZM24.9598 150.883L5.12096 108.33L7.83998 107.062L27.6788 149.615L24.9598 150.883Z" fill="#626262"/>
<path opacity="0.5" d="M71.3474 78.4512L54.1239 76.6204L61.1501 92.4518L71.3474 78.4512ZM6.06162 109.067L59.6165 85.2986L58.3996 82.5566L4.84463 106.325L6.06162 109.067Z" fill="#626262"/>
<path opacity="0.5" d="M71.6345 135.832L54.411 137.663L61.4373 121.831L71.6345 135.832ZM6.34873 105.216L59.9036 128.985L58.6867 131.727L5.13174 107.958L6.34873 105.216Z" fill="#626262"/>
<path opacity="0.5" d="M80.9734 98.0703L64.9083 91.5965L67.3343 108.746L80.9734 98.0703ZM5.29409 110.291L67.8166 101.446L67.3964 98.476L4.87388 107.321L5.29409 110.291Z" fill="#626262"/>
<path d="M342.246 285.09C340.037 285.09 338.246 286.881 338.246 289.09C338.246 291.299 340.037 293.09 342.246 293.09V285.09ZM457.376 293.09C459.585 293.09 461.376 291.299 461.376 289.09C461.376 286.881 459.585 285.09 457.376 285.09V293.09ZM342.246 293.09C342.251 293.09 342.257 293.09 342.263 293.09C342.268 293.09 342.274 293.09 342.281 293.09C342.287 293.09 342.294 293.09 342.3 293.09C342.307 293.09 342.314 293.09 342.322 293.09C342.329 293.09 342.337 293.09 342.345 293.09C342.353 293.09 342.361 293.09 342.37 293.09C342.378 293.09 342.387 293.09 342.396 293.09C342.405 293.09 342.414 293.09 342.424 293.09C342.433 293.09 342.443 293.09 342.453 293.09C342.463 293.09 342.474 293.09 342.484 293.09C342.495 293.09 342.506 293.09 342.517 293.09C342.528 293.09 342.54 293.09 342.552 293.09C342.563 293.09 342.575 293.09 342.588 293.09C342.6 293.09 342.612 293.09 342.625 293.09C342.638 293.09 342.651 293.09 342.664 293.09C342.678 293.09 342.691 293.09 342.705 293.09C342.719 293.09 342.733 293.09 342.747 293.09C342.762 293.09 342.776 293.09 342.791 293.09C342.806 293.09 342.821 293.09 342.837 293.09C342.852 293.09 342.868 293.09 342.884 293.09C342.9 293.09 342.916 293.09 342.933 293.09C342.949 293.09 342.966 293.09 342.983 293.09C343 293.09 343.017 293.09 343.034 293.09C343.052 293.09 343.07 293.09 343.088 293.09C343.106 293.09 343.124 293.09 343.142 293.09C343.161 293.09 343.18 293.09 343.199 293.09C343.218 293.09 343.237 293.09 343.257 293.09C343.276 293.09 343.296 293.09 343.316 293.09C343.336 293.09 343.356 293.09 343.377 293.09C343.398 293.09 343.418 293.09 343.439 293.09C343.461 293.09 343.482 293.09 343.503 293.09C343.525 293.09 343.547 293.09 343.569 293.09C343.591 293.09 343.613 293.09 343.636 293.09C343.658 293.09 343.681 293.09 343.704 293.09C343.727 293.09 343.751 293.09 343.774 293.09C343.798 293.09 343.822 293.09 343.846 293.09C343.87 293.09 343.894 293.09 343.919 293.09C343.943 293.09 343.968 293.09 343.993 293.09C344.018 293.09 344.043 293.09 344.069 293.09C344.094 293.09 344.12 293.09 344.146 293.09C344.172 293.09 344.199 293.09 344.225 293.09C344.252 293.09 344.278 293.09 344.305 293.09C344.332 293.09 344.36 293.09 344.387 293.09C344.414 293.09 344.442 293.09 344.47 293.09C344.498 293.09 344.526 293.09 344.555 293.09C344.583 293.09 344.612 293.09 344.641 293.09C344.67 293.09 344.699 293.09 344.728 293.09C344.758 293.09 344.787 293.09 344.817 293.09C344.847 293.09 344.877 293.09 344.908 293.09C344.938 293.09 344.968 293.09 344.999 293.09C345.03 293.09 345.061 293.09 345.092 293.09C345.124 293.09 345.155 293.09 345.187 293.09C345.219 293.09 345.251 293.09 345.283 293.09C345.315 293.09 345.348 293.09 345.38 293.09C345.413 293.09 345.446 293.09 345.479 293.09C345.512 293.09 345.546 293.09 345.579 293.09C345.613 293.09 345.647 293.09 345.681 293.09C345.715 293.09 345.749 293.09 345.784 293.09C345.818 293.09 345.853 293.09 345.888 293.09C345.923 293.09 345.958 293.09 345.994 293.09C346.029 293.09 346.065 293.09 346.101 293.09C346.137 293.09 346.173 293.09 346.209 293.09C346.245 293.09 346.282 293.09 346.319 293.09C346.356 293.09 346.393 293.09 346.43 293.09C346.467 293.09 346.505 293.09 346.542 293.09C346.58 293.09 346.618 293.09 346.656 293.09C346.694 293.09 346.733 293.09 346.771 293.09C346.81 293.09 346.849 293.09 346.888 293.09C346.927 293.09 346.966 293.09 347.005 293.09C347.045 293.09 347.084 293.09 347.124 293.09C347.164 293.09 347.204 293.09 347.245 293.09C347.285 293.09 347.326 293.09 347.366 293.09C347.407 293.09 347.448 293.09 347.489 293.09C347.531 293.09 347.572 293.09 347.614 293.09C347.655 293.09 347.697 293.09 347.739 293.09C347.781 293.09 347.824 293.09 347.866 293.09C347.909 293.09 347.951 293.09 347.994 293.09C348.037 293.09 348.08 293.09 348.124 293.09C348.167 293.09 348.211 293.09 348.255 293.09C348.298 293.09 348.342 293.09 348.387 293.09C348.431 293.09 348.475 293.09 348.52 293.09C348.564 293.09 348.609 293.09 348.654 293.09C348.699 293.09 348.745 293.09 348.79 293.09C348.836 293.09 348.881 293.09 348.927 293.09C348.973 293.09 349.019 293.09 349.065 293.09C349.112 293.09 349.158 293.09 349.205 293.09C349.252 293.09 349.299 293.09 349.346 293.09C349.393 293.09 349.44 293.09 349.488 293.09C349.535 293.09 349.583 293.09 349.631 293.09C349.679 293.09 349.727 293.09 349.775 293.09C349.824 293.09 349.872 293.09 349.921 293.09C349.97 293.09 350.019 293.09 350.068 293.09C350.117 293.09 350.166 293.09 350.216 293.09C350.265 293.09 350.315 293.09 350.365 293.09C350.415 293.09 350.465 293.09 350.516 293.09C350.566 293.09 350.616 293.09 350.667 293.09C350.718 293.09 350.769 293.09 350.82 293.09C350.871 293.09 350.922 293.09 350.974 293.09C351.026 293.09 351.077 293.09 351.129 293.09C351.181 293.09 351.233 293.09 351.286 293.09C351.338 293.09 351.39 293.09 351.443 293.09C351.496 293.09 351.549 293.09 351.602 293.09C351.655 293.09 351.708 293.09 351.762 293.09C351.815 293.09 351.869 293.09 351.923 293.09C351.976 293.09 352.031 293.09 352.085 293.09C352.139 293.09 352.193 293.09 352.248 293.09C352.303 293.09 352.357 293.09 352.412 293.09C352.467 293.09 352.523 293.09 352.578 293.09C352.633 293.09 352.689 293.09 352.745 293.09C352.8 293.09 352.856 293.09 352.912 293.09C352.969 293.09 353.025 293.09 353.081 293.09C353.138 293.09 353.195 293.09 353.251 293.09C353.308 293.09 353.365 293.09 353.423 293.09C353.48 293.09 353.537 293.09 353.595 293.09C353.652 293.09 353.71 293.09 353.768 293.09C353.826 293.09 353.884 293.09 353.943 293.09C354.001 293.09 354.059 293.09 354.118 293.09C354.177 293.09 354.236 293.09 354.295 293.09C354.354 293.09 354.413 293.09 354.472 293.09C354.532 293.09 354.591 293.09 354.651 293.09C354.711 293.09 354.771 293.09 354.831 293.09C354.891 293.09 354.951 293.09 355.012 293.09C355.072 293.09 355.133 293.09 355.194 293.09C355.255 293.09 355.316 293.09 355.377 293.09C355.438 293.09 355.499 293.09 355.561 293.09C355.622 293.09 355.684 293.09 355.746 293.09C355.808 293.09 355.87 293.09 355.932 293.09C355.994 293.09 356.056 293.09 356.119 293.09C356.182 293.09 356.244 293.09 356.307 293.09C356.37 293.09 356.433 293.09 356.496 293.09C356.56 293.09 356.623 293.09 356.687 293.09C356.75 293.09 356.814 293.09 356.878 293.09C356.942 293.09 357.006 293.09 357.07 293.09C357.134 293.09 357.199 293.09 357.263 293.09C357.328 293.09 357.393 293.09 357.458 293.09C357.523 293.09 357.588 293.09 357.653 293.09C357.718 293.09 357.783 293.09 357.849 293.09C357.915 293.09 357.98 293.09 358.046 293.09C358.112 293.09 358.178 293.09 358.244 293.09C358.311 293.09 358.377 293.09 358.444 293.09C358.51 293.09 358.577 293.09 358.644 293.09C358.711 293.09 358.778 293.09 358.845 293.09C358.912 293.09 358.979 293.09 359.047 293.09C359.114 293.09 359.182 293.09 359.25 293.09C359.318 293.09 359.386 293.09 359.454 293.09C359.522 293.09 359.59 293.09 359.659 293.09C359.727 293.09 359.796 293.09 359.865 293.09C359.933 293.09 360.002 293.09 360.071 293.09C360.14 293.09 360.21 293.09 360.279 293.09C360.348 293.09 360.418 293.09 360.488 293.09C360.557 293.09 360.627 293.09 360.697 293.09C360.767 293.09 360.837 293.09 360.908 293.09C360.978 293.09 361.048 293.09 361.119 293.09C361.19 293.09 361.26 293.09 361.331 293.09C361.402 293.09 361.473 293.09 361.544 293.09C361.616 293.09 361.687 293.09 361.759 293.09C361.83 293.09 361.902 293.09 361.974 293.09C362.045 293.09 362.117 293.09 362.189 293.09C362.261 293.09 362.334 293.09 362.406 293.09C362.478 293.09 362.551 293.09 362.624 293.09C362.696 293.09 362.769 293.09 362.842 293.09C362.915 293.09 362.988 293.09 363.061 293.09C363.135 293.09 363.208 293.09 363.282 293.09C363.355 293.09 363.429 293.09 363.503 293.09C363.577 293.09 363.65 293.09 363.725 293.09C363.799 293.09 363.873 293.09 363.947 293.09C364.022 293.09 364.096 293.09 364.171 293.09C364.246 293.09 364.32 293.09 364.395 293.09C364.47 293.09 364.545 293.09 364.621 293.09C364.696 293.09 364.771 293.09 364.847 293.09C364.922 293.09 364.998 293.09 365.074 293.09C365.149 293.09 365.225 293.09 365.301 293.09C365.377 293.09 365.453 293.09 365.53 293.09C365.606 293.09 365.683 293.09 365.759 293.09C365.836 293.09 365.912 293.09 365.989 293.09C366.066 293.09 366.143 293.09 366.22 293.09C366.297 293.09 366.375 293.09 366.452 293.09C366.529 293.09 366.607 293.09 366.684 293.09C366.762 293.09 366.84 293.09 366.918 293.09C366.996 293.09 367.074 293.09 367.152 293.09C367.23 293.09 367.308 293.09 367.387 293.09C367.465 293.09 367.544 293.09 367.622 293.09C367.701 293.09 367.78 293.09 367.859 293.09C367.937 293.09 368.016 293.09 368.096 293.09C368.175 293.09 368.254 293.09 368.334 293.09C368.413 293.09 368.492 293.09 368.572 293.09C368.652 293.09 368.732 293.09 368.811 293.09C368.891 293.09 368.971 293.09 369.052 293.09C369.132 293.09 369.212 293.09 369.292 293.09C369.373 293.09 369.453 293.09 369.534 293.09C369.615 293.09 369.695 293.09 369.776 293.09C369.857 293.09 369.938 293.09 370.019 293.09C370.1 293.09 370.182 293.09 370.263 293.09C370.344 293.09 370.426 293.09 370.507 293.09C370.589 293.09 370.671 293.09 370.752 293.09C370.834 293.09 370.916 293.09 370.998 293.09C371.08 293.09 371.162 293.09 371.245 293.09C371.327 293.09 371.409 293.09 371.492 293.09C371.574 293.09 371.657 293.09 371.74 293.09C371.823 293.09 371.905 293.09 371.988 293.09C372.071 293.09 372.154 293.09 372.238 293.09C372.321 293.09 372.404 293.09 372.487 293.09C372.571 293.09 372.654 293.09 372.738 293.09C372.822 293.09 372.905 293.09 372.989 293.09C373.073 293.09 373.157 293.09 373.241 293.09C373.325 293.09 373.409 293.09 373.494 293.09C373.578 293.09 373.662 293.09 373.747 293.09C373.831 293.09 373.916 293.09 374 293.09C374.085 293.09 374.17 293.09 374.255 293.09C374.34 293.09 374.425 293.09 374.51 293.09C374.595 293.09 374.68 293.09 374.766 293.09C374.851 293.09 374.936 293.09 375.022 293.09C375.107 293.09 375.193 293.09 375.279 293.09C375.365 293.09 375.45 293.09 375.536 293.09C375.622 293.09 375.708 293.09 375.794 293.09C375.881 293.09 375.967 293.09 376.053 293.09C376.14 293.09 376.226 293.09 376.312 293.09C376.399 293.09 376.486 293.09 376.572 293.09C376.659 293.09 376.746 293.09 376.833 293.09C376.92 293.09 377.007 293.09 377.094 293.09C377.181 293.09 377.268 293.09 377.356 293.09C377.443 293.09 377.53 293.09 377.618 293.09C377.705 293.09 377.793 293.09 377.881 293.09C377.968 293.09 378.056 293.09 378.144 293.09C378.232 293.09 378.32 293.09 378.408 293.09C378.496 293.09 378.584 293.09 378.672 293.09C378.76 293.09 378.849 293.09 378.937 293.09C379.026 293.09 379.114 293.09 379.203 293.09C379.291 293.09 379.38 293.09 379.469 293.09C379.557 293.09 379.646 293.09 379.735 293.09C379.824 293.09 379.913 293.09 380.002 293.09C380.091 293.09 380.181 293.09 380.27 293.09C380.359 293.09 380.449 293.09 380.538 293.09C380.628 293.09 380.717 293.09 380.807 293.09C380.896 293.09 380.986 293.09 381.076 293.09C381.166 293.09 381.256 293.09 381.346 293.09C381.435 293.09 381.526 293.09 381.616 293.09C381.706 293.09 381.796 293.09 381.886 293.09C381.977 293.09 382.067 293.09 382.157 293.09C382.248 293.09 382.338 293.09 382.429 293.09C382.52 293.09 382.61 293.09 382.701 293.09C382.792 293.09 382.883 293.09 382.974 293.09C383.065 293.09 383.156 293.09 383.247 293.09C383.338 293.09 383.429 293.09 383.52 293.09C383.611 293.09 383.703 293.09 383.794 293.09C383.885 293.09 383.977 293.09 384.068 293.09C384.16 293.09 384.252 293.09 384.343 293.09C384.435 293.09 384.527 293.09 384.618 293.09C384.71 293.09 384.802 293.09 384.894 293.09C384.986 293.09 385.078 293.09 385.17 293.09C385.262 293.09 385.355 293.09 385.447 293.09C385.539 293.09 385.631 293.09 385.724 293.09C385.816 293.09 385.909 293.09 386.001 293.09C386.094 293.09 386.186 293.09 386.279 293.09C386.372 293.09 386.464 293.09 386.557 293.09C386.65 293.09 386.743 293.09 386.836 293.09C386.929 293.09 387.022 293.09 387.115 293.09C387.208 293.09 387.301 293.09 387.394 293.09C387.487 293.09 387.581 293.09 387.674 293.09C387.767 293.09 387.861 293.09 387.954 293.09C388.048 293.09 388.141 293.09 388.235 293.09C388.328 293.09 388.422 293.09 388.516 293.09C388.609 293.09 388.703 293.09 388.797 293.09C388.891 293.09 388.984 293.09 389.078 293.09C389.172 293.09 389.266 293.09 389.36 293.09C389.454 293.09 389.549 293.09 389.643 293.09C389.737 293.09 389.831 293.09 389.925 293.09C390.02 293.09 390.114 293.09 390.208 293.09C390.303 293.09 390.397 293.09 390.492 293.09C390.586 293.09 390.681 293.09 390.776 293.09C390.87 293.09 390.965 293.09 391.06 293.09C391.154 293.09 391.249 293.09 391.344 293.09C391.439 293.09 391.534 293.09 391.629 293.09C391.723 293.09 391.818 293.09 391.914 293.09C392.009 293.09 392.104 293.09 392.199 293.09C392.294 293.09 392.389 293.09 392.484 293.09C392.58 293.09 392.675 293.09 392.77 293.09C392.866 293.09 392.961 293.09 393.056 293.09C393.152 293.09 393.247 293.09 393.343 293.09C393.438 293.09 393.534 293.09 393.63 293.09C393.725 293.09 393.821 293.09 393.917 293.09C394.012 293.09 394.108 293.09 394.204 293.09C394.3 293.09 394.396 293.09 394.492 293.09C394.587 293.09 394.683 293.09 394.779 293.09C394.875 293.09 394.971 293.09 395.067 293.09C395.163 293.09 395.26 293.09 395.356 293.09C395.452 293.09 395.548 293.09 395.644 293.09C395.741 293.09 395.837 293.09 395.933 293.09C396.029 293.09 396.126 293.09 396.222 293.09C396.319 293.09 396.415 293.09 396.512 293.09C396.608 293.09 396.704 293.09 396.801 293.09C396.898 293.09 396.994 293.09 397.091 293.09C397.187 293.09 397.284 293.09 397.381 293.09C397.477 293.09 397.574 293.09 397.671 293.09C397.768 293.09 397.864 293.09 397.961 293.09C398.058 293.09 398.155 293.09 398.252 293.09C398.349 293.09 398.446 293.09 398.543 293.09C398.64 293.09 398.737 293.09 398.834 293.09C398.931 293.09 399.028 293.09 399.125 293.09C399.222 293.09 399.319 293.09 399.416 293.09C399.513 293.09 399.611 293.09 399.708 293.09C399.805 293.09 399.902 293.09 399.999 293.09C400.097 293.09 400.194 293.09 400.291 293.09C400.389 293.09 400.486 293.09 400.583 293.09C400.681 293.09 400.778 293.09 400.876 293.09C400.973 293.09 401.07 293.09 401.168 293.09C401.265 293.09 401.363 293.09 401.46 293.09C401.558 293.09 401.655 293.09 401.753 293.09C401.851 293.09 401.948 293.09 402.046 293.09C402.143 293.09 402.241 293.09 402.339 293.09C402.436 293.09 402.534 293.09 402.632 293.09C402.729 293.09 402.827 293.09 402.925 293.09C403.023 293.09 403.12 293.09 403.218 293.09C403.316 293.09 403.414 293.09 403.512 293.09C403.609 293.09 403.707 293.09 403.805 293.09C403.903 293.09 404.001 293.09 404.099 293.09C404.197 293.09 404.295 293.09 404.393 293.09C404.49 293.09 404.588 293.09 404.686 293.09C404.784 293.09 404.882 293.09 404.98 293.09C405.078 293.09 405.176 293.09 405.274 293.09C405.372 293.09 405.47 293.09 405.568 293.09C405.666 293.09 405.764 293.09 405.862 293.09C405.96 293.09 406.059 293.09 406.157 293.09C406.255 293.09 406.353 293.09 406.451 293.09C406.549 293.09 406.647 293.09 406.745 293.09C406.843 293.09 406.942 293.09 407.04 293.09C407.138 293.09 407.236 293.09 407.334 293.09C407.432 293.09 407.53 293.09 407.629 293.09C407.727 293.09 407.825 293.09 407.923 293.09C408.021 293.09 408.119 293.09 408.218 293.09C408.316 293.09 408.414 293.09 408.512 293.09C408.61 293.09 408.709 293.09 408.807 293.09C408.905 293.09 409.003 293.09 409.102 293.09C409.2 293.09 409.298 293.09 409.396 293.09C409.494 293.09 409.593 293.09 409.691 293.09C409.789 293.09 409.887 293.09 409.986 293.09C410.084 293.09 410.182 293.09 410.28 293.09C410.378 293.09 410.477 293.09 410.575 293.09C410.673 293.09 410.771 293.09 410.87 293.09C410.968 293.09 411.066 293.09 411.164 293.09C411.262 293.09 411.361 293.09 411.459 293.09C411.557 293.09 411.655 293.09 411.753 293.09C411.852 293.09 411.95 293.09 412.048 293.09C412.146 293.09 412.244 293.09 412.343 293.09C412.441 293.09 412.539 293.09 412.637 293.09C412.735 293.09 412.833 293.09 412.932 293.09C413.03 293.09 413.128 293.09 413.226 293.09C413.324 293.09 413.422 293.09 413.52 293.09C413.618 293.09 413.717 293.09 413.815 293.09C413.913 293.09 414.011 293.09 414.109 293.09C414.207 293.09 414.305 293.09 414.403 293.09C414.501 293.09 414.599 293.09 414.697 293.09C414.795 293.09 414.893 293.09 414.991 293.09C415.089 293.09 415.187 293.09 415.285 293.09C415.383 293.09 415.481 293.09 415.579 293.09C415.677 293.09 415.775 293.09 415.873 293.09C415.971 293.09 416.068 293.09 416.166 293.09C416.264 293.09 416.362 293.09 416.46 293.09C416.558 293.09 416.656 293.09 416.753 293.09C416.851 293.09 416.949 293.09 417.047 293.09C417.144 293.09 417.242 293.09 417.34 293.09C417.438 293.09 417.535 293.09 417.633 293.09C417.731 293.09 417.828 293.09 417.926 293.09C418.024 293.09 418.121 293.09 418.219 293.09C418.316 293.09 418.414 293.09 418.511 293.09C418.609 293.09 418.707 293.09 418.804 293.09C418.902 293.09 418.999 293.09 419.096 293.09C419.194 293.09 419.291 293.09 419.389 293.09C419.486 293.09 419.583 293.09 419.681 293.09C419.778 293.09 419.875 293.09 419.973 293.09C420.07 293.09 420.167 293.09 420.265 293.09C420.362 293.09 420.459 293.09 420.556 293.09C420.653 293.09 420.75 293.09 420.848 293.09C420.945 293.09 421.042 293.09 421.139 293.09C421.236 293.09 421.333 293.09 421.43 293.09C421.527 293.09 421.624 293.09 421.721 293.09C421.818 293.09 421.914 293.09 422.011 293.09C422.108 293.09 422.205 293.09 422.302 293.09C422.399 293.09 422.495 293.09 422.592 293.09C422.689 293.09 422.785 293.09 422.882 293.09C422.979 293.09 423.075 293.09 423.172 293.09C423.269 293.09 423.365 293.09 423.462 293.09C423.558 293.09 423.655 293.09 423.751 293.09C423.847 293.09 423.944 293.09 424.04 293.09C424.136 293.09 424.233 293.09 424.329 293.09C424.425 293.09 424.521 293.09 424.618 293.09C424.714 293.09 424.81 293.09 424.906 293.09C425.002 293.09 425.098 293.09 425.194 293.09C425.29 293.09 425.386 293.09 425.482 293.09C425.578 293.09 425.674 293.09 425.77 293.09C425.866 293.09 425.961 293.09 426.057 293.09C426.153 293.09 426.249 293.09 426.344 293.09C426.44 293.09 426.536 293.09 426.631 293.09C426.727 293.09 426.822 293.09 426.918 293.09C427.013 293.09 427.109 293.09 427.204 293.09C427.299 293.09 427.395 293.09 427.49 293.09C427.585 293.09 427.681 293.09 427.776 293.09C427.871 293.09 427.966 293.09 428.061 293.09C428.156 293.09 428.251 293.09 428.346 293.09C428.441 293.09 428.536 293.09 428.631 293.09C428.726 293.09 428.821 293.09 428.915 293.09C429.01 293.09 429.105 293.09 429.2 293.09C429.294 293.09 429.389 293.09 429.483 293.09C429.578 293.09 429.672 293.09 429.767 293.09C429.861 293.09 429.956 293.09 430.05 293.09C430.144 293.09 430.239 293.09 430.333 293.09C430.427 293.09 430.521 293.09 430.615 293.09C430.709 293.09 430.803 293.09 430.897 293.09C430.991 293.09 431.085 293.09 431.179 293.09C431.273 293.09 431.367 293.09 431.461 293.09C431.554 293.09 431.648 293.09 431.742 293.09C431.835 293.09 431.929 293.09 432.022 293.09C432.116 293.09 432.209 293.09 432.303 293.09C432.396 293.09 432.489 293.09 432.583 293.09C432.676 293.09 432.769 293.09 432.862 293.09C432.955 293.09 433.048 293.09 433.141 293.09C433.234 293.09 433.327 293.09 433.42 293.09C433.513 293.09 433.606 293.09 433.698 293.09C433.791 293.09 433.884 293.09 433.976 293.09C434.069 293.09 434.161 293.09 434.254 293.09C434.346 293.09 434.439 293.09 434.531 293.09C434.623 293.09 434.715 293.09 434.808 293.09C434.9 293.09 434.992 293.09 435.084 293.09C435.176 293.09 435.268 293.09 435.36 293.09C435.452 293.09 435.543 293.09 435.635 293.09C435.727 293.09 435.819 293.09 435.91 293.09C436.002 293.09 436.093 293.09 436.185 293.09C436.276 293.09 436.368 293.09 436.459 293.09C436.55 293.09 436.641 293.09 436.732 293.09C436.824 293.09 436.915 293.09 437.006 293.09C437.097 293.09 437.188 293.09 437.278 293.09C437.369 293.09 437.46 293.09 437.551 293.09C437.641 293.09 437.732 293.09 437.822 293.09C437.913 293.09 438.003 293.09 438.094 293.09C438.184 293.09 438.274 293.09 438.364 293.09C438.455 293.09 438.545 293.09 438.635 293.09C438.725 293.09 438.815 293.09 438.905 293.09C438.994 293.09 439.084 293.09 439.174 293.09C439.264 293.09 439.353 293.09 439.443 293.09C439.532 293.09 439.622 293.09 439.711 293.09C439.8 293.09 439.89 293.09 439.979 293.09C440.068 293.09 440.157 293.09 440.246 293.09C440.335 293.09 440.424 293.09 440.513 293.09C440.602 293.09 440.691 293.09 440.779 293.09C440.868 293.09 440.956 293.09 441.045 293.09C441.133 293.09 441.222 293.09 441.31 293.09C441.398 293.09 441.487 293.09 441.575 293.09C441.663 293.09 441.751 293.09 441.839 293.09C441.927 293.09 442.015 293.09 442.102 293.09C442.19 293.09 442.278 293.09 442.365 293.09C442.453 293.09 442.54 293.09 442.628 293.09C442.715 293.09 442.802 293.09 442.89 293.09C442.977 293.09 443.064 293.09 443.151 293.09C443.238 293.09 443.325 293.09 443.412 293.09C443.498 293.09 443.585 293.09 443.672 293.09C443.758 293.09 443.845 293.09 443.931 293.09C444.018 293.09 444.104 293.09 444.19 293.09C444.276 293.09 444.362 293.09 444.448 293.09C444.534 293.09 444.62 293.09 444.706 293.09C444.792 293.09 444.878 293.09 444.963 293.09C445.049 293.09 445.134 293.09 445.22 293.09C445.305 293.09 445.391 293.09 445.476 293.09C445.561 293.09 445.646 293.09 445.731 293.09C445.816 293.09 445.901 293.09 445.986 293.09C446.07 293.09 446.155 293.09 446.24 293.09C446.324 293.09 446.409 293.09 446.493 293.09C446.577 293.09 446.662 293.09 446.746 293.09C446.83 293.09 446.914 293.09 446.998 293.09C447.082 293.09 447.166 293.09 447.249 293.09C447.333 293.09 447.417 293.09 447.5 293.09C447.584 293.09 447.667 293.09 447.75 293.09C447.834 293.09 447.917 293.09 448 293.09C448.083 293.09 448.166 293.09 448.249 293.09C448.331 293.09 448.414 293.09 448.497 293.09C448.579 293.09 448.662 293.09 448.744 293.09C448.827 293.09 448.909 293.09 448.991 293.09C449.073 293.09 449.155 293.09 449.237 293.09C449.319 293.09 449.401 293.09 449.482 293.09C449.564 293.09 449.646 293.09 449.727 293.09C449.808 293.09 449.89 293.09 449.971 293.09C450.052 293.09 450.133 293.09 450.214 293.09C450.295 293.09 450.376 293.09 450.457 293.09C450.537 293.09 450.618 293.09 450.699 293.09C450.779 293.09 450.859 293.09 450.94 293.09C451.02 293.09 451.1 293.09 451.18 293.09C451.26 293.09 451.34 293.09 451.42 293.09C451.499 293.09 451.579 293.09 451.659 293.09C451.738 293.09 451.817 293.09 451.897 293.09C451.976 293.09 452.055 293.09 452.134 293.09C452.213 293.09 452.292 293.09 452.371 293.09C452.449 293.09 452.528 293.09 452.607 293.09C452.685 293.09 452.763 293.09 452.842 293.09C452.92 293.09 452.998 293.09 453.076 293.09C453.154 293.09 453.232 293.09 453.31 293.09C453.387 293.09 453.465 293.09 453.542 293.09C453.62 293.09 453.697 293.09 453.774 293.09C453.852 293.09 453.929 293.09 454.006 293.09C454.083 293.09 454.159 293.09 454.236 293.09C454.313 293.09 454.389 293.09 454.466 293.09C454.542 293.09 454.618 293.09 454.695 293.09C454.771 293.09 454.847 293.09 454.923 293.09C454.998 293.09 455.074 293.09 455.15 293.09C455.225 293.09 455.301 293.09 455.376 293.09C455.451 293.09 455.527 293.09 455.602 293.09C455.677 293.09 455.752 293.09 455.826 293.09C455.901 293.09 455.976 293.09 456.05 293.09C456.125 293.09 456.199 293.09 456.273 293.09C456.348 293.09 456.422 293.09 456.496 293.09C456.57 293.09 456.643 293.09 456.717 293.09C456.791 293.09 456.864 293.09 456.937 293.09C457.011 293.09 457.084 293.09 457.157 293.09C457.23 293.09 457.303 293.09 457.376 293.09V285.09C457.303 285.09 457.23 285.09 457.157 285.09C457.084 285.09 457.011 285.09 456.937 285.09C456.864 285.09 456.791 285.09 456.717 285.09C456.643 285.09 456.57 285.09 456.496 285.09C456.422 285.09 456.348 285.09 456.273 285.09C456.199 285.09 456.125 285.09 456.05 285.09C455.976 285.09 455.901 285.09 455.826 285.09C455.752 285.09 455.677 285.09 455.602 285.09C455.527 285.09 455.451 285.09 455.376 285.09C455.301 285.09 455.225 285.09 455.15 285.09C455.074 285.09 454.998 285.09 454.923 285.09C454.847 285.09 454.771 285.09 454.695 285.09C454.618 285.09 454.542 285.09 454.466 285.09C454.389 285.09 454.313 285.09 454.236 285.09C454.159 285.09 454.083 285.09 454.006 285.09C453.929 285.09 453.852 285.09 453.774 285.09C453.697 285.09 453.62 285.09 453.542 285.09C453.465 285.09 453.387 285.09 453.31 285.09C453.232 285.09 453.154 285.09 453.076 285.09C452.998 285.09 452.92 285.09 452.842 285.09C452.763 285.09 452.685 285.09 452.607 285.09C452.528 285.09 452.449 285.09 452.371 285.09C452.292 285.09 452.213 285.09 452.134 285.09C452.055 285.09 451.976 285.09 451.897 285.09C451.817 285.09 451.738 285.09 451.659 285.09C451.579 285.09 451.499 285.09 451.42 285.09C451.34 285.09 451.26 285.09 451.18 285.09C451.1 285.09 451.02 285.09 450.94 285.09C450.859 285.09 450.779 285.09 450.699 285.09C450.618 285.09 450.537 285.09 450.457 285.09C450.376 285.09 450.295 285.09 450.214 285.09C450.133 285.09 450.052 285.09 449.971 285.09C449.89 285.09 449.808 285.09 449.727 285.09C449.646 285.09 449.564 285.09 449.482 285.09C449.401 285.09 449.319 285.09 449.237 285.09C449.155 285.09 449.073 285.09 448.991 285.09C448.909 285.09 448.827 285.09 448.744 285.09C448.662 285.09 448.579 285.09 448.497 285.09C448.414 285.09 448.331 285.09 448.249 285.09C448.166 285.09 448.083 285.09 448 285.09C447.917 285.09 447.834 285.09 447.75 285.09C447.667 285.09 447.584 285.09 447.5 285.09C447.417 285.09 447.333 285.09 447.249 285.09C447.166 285.09 447.082 285.09 446.998 285.09C446.914 285.09 446.83 285.09 446.746 285.09C446.662 285.09 446.577 285.09 446.493 285.09C446.409 285.09 446.324 285.09 446.24 285.09C446.155 285.09 446.07 285.09 445.986 285.09C445.901 285.09 445.816 285.09 445.731 285.09C445.646 285.09 445.561 285.09 445.476 285.09C445.391 285.09 445.305 285.09 445.22 285.09C445.134 285.09 445.049 285.09 444.963 285.09C444.878 285.09 444.792 285.09 444.706 285.09C444.62 285.09 444.534 285.09 444.448 285.09C444.362 285.09 444.276 285.09 444.19 285.09C444.104 285.09 444.018 285.09 443.931 285.09C443.845 285.09 443.758 285.09 443.672 285.09C443.585 285.09 443.498 285.09 443.412 285.09C443.325 285.09 443.238 285.09 443.151 285.09C443.064 285.09 442.977 285.09 442.89 285.09C442.802 285.09 442.715 285.09 442.628 285.09C442.54 285.09 442.453 285.09 442.365 285.09C442.278 285.09 442.19 285.09 442.102 285.09C442.015 285.09 441.927 285.09 441.839 285.09C441.751 285.09 441.663 285.09 441.575 285.09C441.487 285.09 441.398 285.09 441.31 285.09C441.222 285.09 441.133 285.09 441.045 285.09C440.956 285.09 440.868 285.09 440.779 285.09C440.691 285.09 440.602 285.09 440.513 285.09C440.424 285.09 440.335 285.09 440.246 285.09C440.157 285.09 440.068 285.09 439.979 285.09C439.89 285.09 439.8 285.09 439.711 285.09C439.622 285.09 439.532 285.09 439.443 285.09C439.353 285.09 439.264 285.09 439.174 285.09C439.084 285.09 438.994 285.09 438.905 285.09C438.815 285.09 438.725 285.09 438.635 285.09C438.545 285.09 438.455 285.09 438.364 285.09C438.274 285.09 438.184 285.09 438.094 285.09C438.003 285.09 437.913 285.09 437.822 285.09C437.732 285.09 437.641 285.09 437.551 285.09C437.46 285.09 437.369 285.09 437.278 285.09C437.188 285.09 437.097 285.09 437.006 285.09C436.915 285.09 436.824 285.09 436.732 285.09C436.641 285.09 436.55 285.09 436.459 285.09C436.368 285.09 436.276 285.09 436.185 285.09C436.093 285.09 436.002 285.09 435.91 285.09C435.819 285.09 435.727 285.09 435.635 285.09C435.543 285.09 435.452 285.09 435.36 285.09C435.268 285.09 435.176 285.09 435.084 285.09C434.992 285.09 434.9 285.09 434.808 285.09C434.715 285.09 434.623 285.09 434.531 285.09C434.439 285.09 434.346 285.09 434.254 285.09C434.161 285.09 434.069 285.09 433.976 285.09C433.884 285.09 433.791 285.09 433.698 285.09C433.606 285.09 433.513 285.09 433.42 285.09C433.327 285.09 433.234 285.09 433.141 285.09C433.048 285.09 432.955 285.09 432.862 285.09C432.769 285.09 432.676 285.09 432.583 285.09C432.489 285.09 432.396 285.09 432.303 285.09C432.209 285.09 432.116 285.09 432.022 285.09C431.929 285.09 431.835 285.09 431.742 285.09C431.648 285.09 431.554 285.09 431.461 285.09C431.367 285.09 431.273 285.09 431.179 285.09C431.085 285.09 430.991 285.09 430.897 285.09C430.803 285.09 430.709 285.09 430.615 285.09C430.521 285.09 430.427 285.09 430.333 285.09C430.239 285.09 430.144 285.09 430.05 285.09C429.956 285.09 429.861 285.09 429.767 285.09C429.672 285.09 429.578 285.09 429.483 285.09C429.389 285.09 429.294 285.09 429.2 285.09C429.105 285.09 429.01 285.09 428.915 285.09C428.821 285.09 428.726 285.09 428.631 285.09C428.536 285.09 428.441 285.09 428.346 285.09C428.251 285.09 428.156 285.09 428.061 285.09C427.966 285.09 427.871 285.09 427.776 285.09C427.681 285.09 427.585 285.09 427.49 285.09C427.395 285.09 427.299 285.09 427.204 285.09C427.109 285.09 427.013 285.09 426.918 285.09C426.822 285.09 426.727 285.09 426.631 285.09C426.536 285.09 426.44 285.09 426.344 285.09C426.249 285.09 426.153 285.09 426.057 285.09C425.961 285.09 425.866 285.09 425.77 285.09C425.674 285.09 425.578 285.09 425.482 285.09C425.386 285.09 425.29 285.09 425.194 285.09C425.098 285.09 425.002 285.09 424.906 285.09C424.81 285.09 424.714 285.09 424.618 285.09C424.521 285.09 424.425 285.09 424.329 285.09C424.233 285.09 424.136 285.09 424.04 285.09C423.944 285.09 423.847 285.09 423.751 285.09C423.655 285.09 423.558 285.09 423.462 285.09C423.365 285.09 423.269 285.09 423.172 285.09C423.075 285.09 422.979 285.09 422.882 285.09C422.785 285.09 422.689 285.09 422.592 285.09C422.495 285.09 422.399 285.09 422.302 285.09C422.205 285.09 422.108 285.09 422.011 285.09C421.914 285.09 421.818 285.09 421.721 285.09C421.624 285.09 421.527 285.09 421.43 285.09C421.333 285.09 421.236 285.09 421.139 285.09C421.042 285.09 420.945 285.09 420.848 285.09C420.75 285.09 420.653 285.09 420.556 285.09C420.459 285.09 420.362 285.09 420.265 285.09C420.167 285.09 420.07 285.09 419.973 285.09C419.875 285.09 419.778 285.09 419.681 285.09C419.583 285.09 419.486 285.09 419.389 285.09C419.291 285.09 419.194 285.09 419.096 285.09C418.999 285.09 418.902 285.09 418.804 285.09C418.707 285.09 418.609 285.09 418.511 285.09C418.414 285.09 418.316 285.09 418.219 285.09C418.121 285.09 418.024 285.09 417.926 285.09C417.828 285.09 417.731 285.09 417.633 285.09C417.535 285.09 417.438 285.09 417.34 285.09C417.242 285.09 417.144 285.09 417.047 285.09C416.949 285.09 416.851 285.09 416.753 285.09C416.656 285.09 416.558 285.09 416.46 285.09C416.362 285.09 416.264 285.09 416.166 285.09C416.068 285.09 415.971 285.09 415.873 285.09C415.775 285.09 415.677 285.09 415.579 285.09C415.481 285.09 415.383 285.09 415.285 285.09C415.187 285.09 415.089 285.09 414.991 285.09C414.893 285.09 414.795 285.09 414.697 285.09C414.599 285.09 414.501 285.09 414.403 285.09C414.305 285.09 414.207 285.09 414.109 285.09C414.011 285.09 413.913 285.09 413.815 285.09C413.717 285.09 413.618 285.09 413.52 285.09C413.422 285.09 413.324 285.09 413.226 285.09C413.128 285.09 413.03 285.09 412.932 285.09C412.833 285.09 412.735 285.09 412.637 285.09C412.539 285.09 412.441 285.09 412.343 285.09C412.244 285.09 412.146 285.09 412.048 285.09C411.95 285.09 411.852 285.09 411.753 285.09C411.655 285.09 411.557 285.09 411.459 285.09C411.361 285.09 411.262 285.09 411.164 285.09C411.066 285.09 410.968 285.09 410.87 285.09C410.771 285.09 410.673 285.09 410.575 285.09C410.477 285.09 410.378 285.09 410.28 285.09C410.182 285.09 410.084 285.09 409.986 285.09C409.887 285.09 409.789 285.09 409.691 285.09C409.593 285.09 409.494 285.09 409.396 285.09C409.298 285.09 409.2 285.09 409.102 285.09C409.003 285.09 408.905 285.09 408.807 285.09C408.709 285.09 408.61 285.09 408.512 285.09C408.414 285.09 408.316 285.09 408.218 285.09C408.119 285.09 408.021 285.09 407.923 285.09C407.825 285.09 407.727 285.09 407.629 285.09C407.53 285.09 407.432 285.09 407.334 285.09C407.236 285.09 407.138 285.09 407.04 285.09C406.942 285.09 406.843 285.09 406.745 285.09C406.647 285.09 406.549 285.09 406.451 285.09C406.353 285.09 406.255 285.09 406.157 285.09C406.059 285.09 405.96 285.09 405.862 285.09C405.764 285.09 405.666 285.09 405.568 285.09C405.47 285.09 405.372 285.09 405.274 285.09C405.176 285.09 405.078 285.09 404.98 285.09C404.882 285.09 404.784 285.09 404.686 285.09C404.588 285.09 404.49 285.09 404.393 285.09C404.295 285.09 404.197 285.09 404.099 285.09C404.001 285.09 403.903 285.09 403.805 285.09C403.707 285.09 403.609 285.09 403.512 285.09C403.414 285.09 403.316 285.09 403.218 285.09C403.12 285.09 403.023 285.09 402.925 285.09C402.827 285.09 402.729 285.09 402.632 285.09C402.534 285.09 402.436 285.09 402.339 285.09C402.241 285.09 402.143 285.09 402.046 285.09C401.948 285.09 401.851 285.09 401.753 285.09C401.655 285.09 401.558 285.09 401.46 285.09C401.363 285.09 401.265 285.09 401.168 285.09C401.07 285.09 400.973 285.09 400.876 285.09C400.778 285.09 400.681 285.09 400.583 285.09C400.486 285.09 400.389 285.09 400.291 285.09C400.194 285.09 400.097 285.09 399.999 285.09C399.902 285.09 399.805 285.09 399.708 285.09C399.611 285.09 399.513 285.09 399.416 285.09C399.319 285.09 399.222 285.09 399.125 285.09C399.028 285.09 398.931 285.09 398.834 285.09C398.737 285.09 398.64 285.09 398.543 285.09C398.446 285.09 398.349 285.09 398.252 285.09C398.155 285.09 398.058 285.09 397.961 285.09C397.864 285.09 397.768 285.09 397.671 285.09C397.574 285.09 397.477 285.09 397.381 285.09C397.284 285.09 397.187 285.09 397.091 285.09C396.994 285.09 396.898 285.09 396.801 285.09C396.704 285.09 396.608 285.09 396.512 285.09C396.415 285.09 396.319 285.09 396.222 285.09C396.126 285.09 396.029 285.09 395.933 285.09C395.837 285.09 395.741 285.09 395.644 285.09C395.548 285.09 395.452 285.09 395.356 285.09C395.26 285.09 395.163 285.09 395.067 285.09C394.971 285.09 394.875 285.09 394.779 285.09C394.683 285.09 394.587 285.09 394.492 285.09C394.396 285.09 394.3 285.09 394.204 285.09C394.108 285.09 394.012 285.09 393.917 285.09C393.821 285.09 393.725 285.09 393.63 285.09C393.534 285.09 393.438 285.09 393.343 285.09C393.247 285.09 393.152 285.09 393.056 285.09C392.961 285.09 392.866 285.09 392.77 285.09C392.675 285.09 392.58 285.09 392.484 285.09C392.389 285.09 392.294 285.09 392.199 285.09C392.104 285.09 392.009 285.09 391.914 285.09C391.818 285.09 391.723 285.09 391.629 285.09C391.534 285.09 391.439 285.09 391.344 285.09C391.249 285.09 391.154 285.09 391.06 285.09C390.965 285.09 390.87 285.09 390.776 285.09C390.681 285.09 390.586 285.09 390.492 285.09C390.397 285.09 390.303 285.09 390.208 285.09C390.114 285.09 390.02 285.09 389.925 285.09C389.831 285.09 389.737 285.09 389.643 285.09C389.549 285.09 389.454 285.09 389.36 285.09C389.266 285.09 389.172 285.09 389.078 285.09C388.984 285.09 388.891 285.09 388.797 285.09C388.703 285.09 388.609 285.09 388.516 285.09C388.422 285.09 388.328 285.09 388.235 285.09C388.141 285.09 388.048 285.09 387.954 285.09C387.861 285.09 387.767 285.09 387.674 285.09C387.581 285.09 387.487 285.09 387.394 285.09C387.301 285.09 387.208 285.09 387.115 285.09C387.022 285.09 386.929 285.09 386.836 285.09C386.743 285.09 386.65 285.09 386.557 285.09C386.464 285.09 386.372 285.09 386.279 285.09C386.186 285.09 386.094 285.09 386.001 285.09C385.909 285.09 385.816 285.09 385.724 285.09C385.631 285.09 385.539 285.09 385.447 285.09C385.355 285.09 385.262 285.09 385.17 285.09C385.078 285.09 384.986 285.09 384.894 285.09C384.802 285.09 384.71 285.09 384.618 285.09C384.527 285.09 384.435 285.09 384.343 285.09C384.252 285.09 384.16 285.09 384.068 285.09C383.977 285.09 383.885 285.09 383.794 285.09C383.703 285.09 383.611 285.09 383.52 285.09C383.429 285.09 383.338 285.09 383.247 285.09C383.156 285.09 383.065 285.09 382.974 285.09C382.883 285.09 382.792 285.09 382.701 285.09C382.61 285.09 382.52 285.09 382.429 285.09C382.338 285.09 382.248 285.09 382.157 285.09C382.067 285.09 381.977 285.09 381.886 285.09C381.796 285.09 381.706 285.09 381.616 285.09C381.526 285.09 381.435 285.09 381.346 285.09C381.256 285.09 381.166 285.09 381.076 285.09C380.986 285.09 380.896 285.09 380.807 285.09C380.717 285.09 380.628 285.09 380.538 285.09C380.449 285.09 380.359 285.09 380.27 285.09C380.181 285.09 380.091 285.09 380.002 285.09C379.913 285.09 379.824 285.09 379.735 285.09C379.646 285.09 379.557 285.09 379.469 285.09C379.38 285.09 379.291 285.09 379.203 285.09C379.114 285.09 379.026 285.09 378.937 285.09C378.849 285.09 378.76 285.09 378.672 285.09C378.584 285.09 378.496 285.09 378.408 285.09C378.32 285.09 378.232 285.09 378.144 285.09C378.056 285.09 377.968 285.09 377.881 285.09C377.793 285.09 377.705 285.09 377.618 285.09C377.53 285.09 377.443 285.09 377.356 285.09C377.268 285.09 377.181 285.09 377.094 285.09C377.007 285.09 376.92 285.09 376.833 285.09C376.746 285.09 376.659 285.09 376.572 285.09C376.486 285.09 376.399 285.09 376.312 285.09C376.226 285.09 376.14 285.09 376.053 285.09C375.967 285.09 375.881 285.09 375.794 285.09C375.708 285.09 375.622 285.09 375.536 285.09C375.45 285.09 375.365 285.09 375.279 285.09C375.193 285.09 375.107 285.09 375.022 285.09C374.936 285.09 374.851 285.09 374.766 285.09C374.68 285.09 374.595 285.09 374.51 285.09C374.425 285.09 374.34 285.09 374.255 285.09C374.17 285.09 374.085 285.09 374 285.09C373.916 285.09 373.831 285.09 373.747 285.09C373.662 285.09 373.578 285.09 373.494 285.09C373.409 285.09 373.325 285.09 373.241 285.09C373.157 285.09 373.073 285.09 372.989 285.09C372.905 285.09 372.822 285.09 372.738 285.09C372.654 285.09 372.571 285.09 372.487 285.09C372.404 285.09 372.321 285.09 372.238 285.09C372.154 285.09 372.071 285.09 371.988 285.09C371.905 285.09 371.823 285.09 371.74 285.09C371.657 285.09 371.574 285.09 371.492 285.09C371.409 285.09 371.327 285.09 371.245 285.09C371.162 285.09 371.08 285.09 370.998 285.09C370.916 285.09 370.834 285.09 370.752 285.09C370.671 285.09 370.589 285.09 370.507 285.09C370.426 285.09 370.344 285.09 370.263 285.09C370.182 285.09 370.1 285.09 370.019 285.09C369.938 285.09 369.857 285.09 369.776 285.09C369.695 285.09 369.615 285.09 369.534 285.09C369.453 285.09 369.373 285.09 369.292 285.09C369.212 285.09 369.132 285.09 369.052 285.09C368.971 285.09 368.891 285.09 368.811 285.09C368.732 285.09 368.652 285.09 368.572 285.09C368.492 285.09 368.413 285.09 368.334 285.09C368.254 285.09 368.175 285.09 368.096 285.09C368.016 285.09 367.937 285.09 367.859 285.09C367.78 285.09 367.701 285.09 367.622 285.09C367.544 285.09 367.465 285.09 367.387 285.09C367.308 285.09 367.23 285.09 367.152 285.09C367.074 285.09 366.996 285.09 366.918 285.09C366.84 285.09 366.762 285.09 366.684 285.09C366.607 285.09 366.529 285.09 366.452 285.09C366.375 285.09 366.297 285.09 366.22 285.09C366.143 285.09 366.066 285.09 365.989 285.09C365.912 285.09 365.836 285.09 365.759 285.09C365.683 285.09 365.606 285.09 365.53 285.09C365.453 285.09 365.377 285.09 365.301 285.09C365.225 285.09 365.149 285.09 365.074 285.09C364.998 285.09 364.922 285.09 364.847 285.09C364.771 285.09 364.696 285.09 364.621 285.09C364.545 285.09 364.47 285.09 364.395 285.09C364.32 285.09 364.246 285.09 364.171 285.09C364.096 285.09 364.022 285.09 363.947 285.09C363.873 285.09 363.799 285.09 363.725 285.09C363.65 285.09 363.577 285.09 363.503 285.09C363.429 285.09 363.355 285.09 363.282 285.09C363.208 285.09 363.135 285.09 363.061 285.09C362.988 285.09 362.915 285.09 362.842 285.09C362.769 285.09 362.696 285.09 362.624 285.09C362.551 285.09 362.478 285.09 362.406 285.09C362.334 285.09 362.261 285.09 362.189 285.09C362.117 285.09 362.045 285.09 361.974 285.09C361.902 285.09 361.83 285.09 361.759 285.09C361.687 285.09 361.616 285.09 361.544 285.09C361.473 285.09 361.402 285.09 361.331 285.09C361.26 285.09 361.19 285.09 361.119 285.09C361.048 285.09 360.978 285.09 360.908 285.09C360.837 285.09 360.767 285.09 360.697 285.09C360.627 285.09 360.557 285.09 360.488 285.09C360.418 285.09 360.348 285.09 360.279 285.09C360.21 285.09 360.14 285.09 360.071 285.09C360.002 285.09 359.933 285.09 359.865 285.09C359.796 285.09 359.727 285.09 359.659 285.09C359.59 285.09 359.522 285.09 359.454 285.09C359.386 285.09 359.318 285.09 359.25 285.09C359.182 285.09 359.114 285.09 359.047 285.09C358.979 285.09 358.912 285.09 358.845 285.09C358.778 285.09 358.711 285.09 358.644 285.09C358.577 285.09 358.51 285.09 358.444 285.09C358.377 285.09 358.311 285.09 358.244 285.09C358.178 285.09 358.112 285.09 358.046 285.09C357.98 285.09 357.915 285.09 357.849 285.09C357.783 285.09 357.718 285.09 357.653 285.09C357.588 285.09 357.523 285.09 357.458 285.09C357.393 285.09 357.328 285.09 357.263 285.09C357.199 285.09 357.134 285.09 357.07 285.09C357.006 285.09 356.942 285.09 356.878 285.09C356.814 285.09 356.75 285.09 356.687 285.09C356.623 285.09 356.56 285.09 356.496 285.09C356.433 285.09 356.37 285.09 356.307 285.09C356.244 285.09 356.182 285.09 356.119 285.09C356.056 285.09 355.994 285.09 355.932 285.09C355.87 285.09 355.808 285.09 355.746 285.09C355.684 285.09 355.622 285.09 355.561 285.09C355.499 285.09 355.438 285.09 355.377 285.09C355.316 285.09 355.255 285.09 355.194 285.09C355.133 285.09 355.072 285.09 355.012 285.09C354.951 285.09 354.891 285.09 354.831 285.09C354.771 285.09 354.711 285.09 354.651 285.09C354.591 285.09 354.532 285.09 354.472 285.09C354.413 285.09 354.354 285.09 354.295 285.09C354.236 285.09 354.177 285.09 354.118 285.09C354.059 285.09 354.001 285.09 353.943 285.09C353.884 285.09 353.826 285.09 353.768 285.09C353.71 285.09 353.652 285.09 353.595 285.09C353.537 285.09 353.48 285.09 353.423 285.09C353.365 285.09 353.308 285.09 353.251 285.09C353.195 285.09 353.138 285.09 353.081 285.09C353.025 285.09 352.969 285.09 352.912 285.09C352.856 285.09 352.8 285.09 352.745 285.09C352.689 285.09 352.633 285.09 352.578 285.09C352.523 285.09 352.467 285.09 352.412 285.09C352.357 285.09 352.303 285.09 352.248 285.09C352.193 285.09 352.139 285.09 352.085 285.09C352.031 285.09 351.976 285.09 351.923 285.09C351.869 285.09 351.815 285.09 351.762 285.09C351.708 285.09 351.655 285.09 351.602 285.09C351.549 285.09 351.496 285.09 351.443 285.09C351.39 285.09 351.338 285.09 351.286 285.09C351.233 285.09 351.181 285.09 351.129 285.09C351.077 285.09 351.026 285.09 350.974 285.09C350.922 285.09 350.871 285.09 350.82 285.09C350.769 285.09 350.718 285.09 350.667 285.09C350.616 285.09 350.566 285.09 350.516 285.09C350.465 285.09 350.415 285.09 350.365 285.09C350.315 285.09 350.265 285.09 350.216 285.09C350.166 285.09 350.117 285.09 350.068 285.09C350.019 285.09 349.97 285.09 349.921 285.09C349.872 285.09 349.824 285.09 349.775 285.09C349.727 285.09 349.679 285.09 349.631 285.09C349.583 285.09 349.535 285.09 349.488 285.09C349.44 285.09 349.393 285.09 349.346 285.09C349.299 285.09 349.252 285.09 349.205 285.09C349.158 285.09 349.112 285.09 349.065 285.09C349.019 285.09 348.973 285.09 348.927 285.09C348.881 285.09 348.836 285.09 348.79 285.09C348.745 285.09 348.699 285.09 348.654 285.09C348.609 285.09 348.564 285.09 348.52 285.09C348.475 285.09 348.431 285.09 348.387 285.09C348.342 285.09 348.298 285.09 348.255 285.09C348.211 285.09 348.167 285.09 348.124 285.09C348.08 285.09 348.037 285.09 347.994 285.09C347.951 285.09 347.909 285.09 347.866 285.09C347.824 285.09 347.781 285.09 347.739 285.09C347.697 285.09 347.655 285.09 347.614 285.09C347.572 285.09 347.531 285.09 347.489 285.09C347.448 285.09 347.407 285.09 347.366 285.09C347.326 285.09 347.285 285.09 347.245 285.09C347.204 285.09 347.164 285.09 347.124 285.09C347.084 285.09 347.045 285.09 347.005 285.09C346.966 285.09 346.927 285.09 346.888 285.09C346.849 285.09 346.81 285.09 346.771 285.09C346.733 285.09 346.694 285.09 346.656 285.09C346.618 285.09 346.58 285.09 346.542 285.09C346.505 285.09 346.467 285.09 346.43 285.09C346.393 285.09 346.356 285.09 346.319 285.09C346.282 285.09 346.245 285.09 346.209 285.09C346.173 285.09 346.137 285.09 346.101 285.09C346.065 285.09 346.029 285.09 345.994 285.09C345.958 285.09 345.923 285.09 345.888 285.09C345.853 285.09 345.818 285.09 345.784 285.09C345.749 285.09 345.715 285.09 345.681 285.09C345.647 285.09 345.613 285.09 345.579 285.09C345.546 285.09 345.512 285.09 345.479 285.09C345.446 285.09 345.413 285.09 345.38 285.09C345.348 285.09 345.315 285.09 345.283 285.09C345.251 285.09 345.219 285.09 345.187 285.09C345.155 285.09 345.124 285.09 345.092 285.09C345.061 285.09 345.03 285.09 344.999 285.09C344.968 285.09 344.938 285.09 344.908 285.09C344.877 285.09 344.847 285.09 344.817 285.09C344.787 285.09 344.758 285.09 344.728 285.09C344.699 285.09 344.67 285.09 344.641 285.09C344.612 285.09 344.583 285.09 344.555 285.09C344.526 285.09 344.498 285.09 344.47 285.09C344.442 285.09 344.414 285.09 344.387 285.09C344.36 285.09 344.332 285.09 344.305 285.09C344.278 285.09 344.252 285.09 344.225 285.09C344.199 285.09 344.172 285.09 344.146 285.09C344.12 285.09 344.094 285.09 344.069 285.09C344.043 285.09 344.018 285.09 343.993 285.09C343.968 285.09 343.943 285.09 343.919 285.09C343.894 285.09 343.87 285.09 343.846 285.09C343.822 285.09 343.798 285.09 343.774 285.09C343.751 285.09 343.727 285.09 343.704 285.09C343.681 285.09 343.658 285.09 343.636 285.09C343.613 285.09 343.591 285.09 343.569 285.09C343.547 285.09 343.525 285.09 343.503 285.09C343.482 285.09 343.461 285.09 343.439 285.09C343.418 285.09 343.398 285.09 343.377 285.09C343.356 285.09 343.336 285.09 343.316 285.09C343.296 285.09 343.276 285.09 343.257 285.09C343.237 285.09 343.218 285.09 343.199 285.09C343.18 285.09 343.161 285.09 343.142 285.09C343.124 285.09 343.106 285.09 343.088 285.09C343.07 285.09 343.052 285.09 343.034 285.09C343.017 285.09 343 285.09 342.983 285.09C342.966 285.09 342.949 285.09 342.933 285.09C342.916 285.09 342.9 285.09 342.884 285.09C342.868 285.09 342.852 285.09 342.837 285.09C342.821 285.09 342.806 285.09 342.791 285.09C342.776 285.09 342.762 285.09 342.747 285.09C342.733 285.09 342.719 285.09 342.705 285.09C342.691 285.09 342.678 285.09 342.664 285.09C342.651 285.09 342.638 285.09 342.625 285.09C342.612 285.09 342.6 285.09 342.588 285.09C342.575 285.09 342.563 285.09 342.552 285.09C342.54 285.09 342.528 285.09 342.517 285.09C342.506 285.09 342.495 285.09 342.484 285.09C342.474 285.09 342.463 285.09 342.453 285.09C342.443 285.09 342.433 285.09 342.424 285.09C342.414 285.09 342.405 285.09 342.396 285.09C342.387 285.09 342.378 285.09 342.37 285.09C342.361 285.09 342.353 285.09 342.345 285.09C342.337 285.09 342.329 285.09 342.322 285.09C342.314 285.09 342.307 285.09 342.3 285.09C342.294 285.09 342.287 285.09 342.281 285.09C342.274 285.09 342.268 285.09 342.263 285.09C342.257 285.09 342.251 285.09 342.246 285.09V293.09Z" fill="#626262"/>
<mask id="path-14-inside-1_731_10043" fill="white">
<path d="M361.123 245.037L353.719 255.773H344.464L341.873 264.287L350.017 267.249L348.907 278.725L462.556 282.797C462.803 279.465 463.666 273.172 453.671 265.768C443.676 258.364 390.492 247.875 361.123 245.037Z"/>
</mask>
<path d="M361.123 245.037L353.719 255.773H344.464L341.873 264.287L350.017 267.249L348.907 278.725L462.556 282.797C462.803 279.465 463.666 273.172 453.671 265.768C443.676 258.364 390.492 247.875 361.123 245.037Z" fill="#626262"/>
<path d="M353.719 255.773V260.773H356.345L357.835 258.611L353.719 255.773ZM361.123 245.037L361.604 240.06L358.677 239.777L357.007 242.198L361.123 245.037ZM462.556 282.797L462.377 287.794L467.187 287.966L467.542 283.166L462.556 282.797ZM348.907 278.725L343.93 278.243L343.418 283.531L348.728 283.721L348.907 278.725ZM350.017 267.249L354.994 267.73L355.367 263.874L351.726 262.55L350.017 267.249ZM341.873 264.287L337.09 262.831L335.71 267.366L340.164 268.986L341.873 264.287ZM344.464 255.773V250.773H340.76L339.681 254.317L344.464 255.773ZM357.835 258.611L365.239 247.876L357.007 242.198L349.603 252.934L357.835 258.611ZM360.642 250.014C375.095 251.411 395.54 254.707 413.615 258.579C422.647 260.514 431.006 262.576 437.678 264.591C444.616 266.686 448.993 268.525 450.695 269.786L456.647 261.75C453.351 259.309 447.332 257.06 440.569 255.018C433.541 252.895 424.894 250.769 415.709 248.801C397.351 244.868 376.519 241.502 361.604 240.06L360.642 250.014ZM450.695 269.786C455.076 273.031 456.623 275.683 457.226 277.435C457.848 279.244 457.701 280.653 457.569 282.427L467.542 283.166C467.657 281.609 468.066 278.206 466.682 274.183C465.28 270.105 462.262 265.909 456.647 261.75L450.695 269.786ZM462.735 277.8L349.086 273.728L348.728 283.721L462.377 287.794L462.735 277.8ZM353.883 279.206L354.994 267.73L345.041 266.767L343.93 278.243L353.883 279.206ZM351.726 262.55L343.582 259.588L340.164 268.986L348.309 271.948L351.726 262.55ZM346.656 265.743L349.248 257.228L339.681 254.317L337.09 262.831L346.656 265.743ZM344.464 260.773H353.719V250.773H344.464V260.773Z" fill="#626262" mask="url(#path-14-inside-1_731_10043)"/>
<mask id="path-16-inside-2_731_10043" fill="white">
<path d="M583.98 54.7598L576.577 44.0242H567.322L564.73 35.5098L572.875 32.5482L571.764 21.0723L685.413 17.0001C685.66 20.3319 686.524 26.6251 676.529 34.029C666.533 41.4328 613.349 51.9216 583.98 54.7598Z"/>
</mask>
<path d="M583.98 54.7598L576.577 44.0242H567.322L564.73 35.5098L572.875 32.5482L571.764 21.0723L685.413 17.0001C685.66 20.3319 686.524 26.6251 676.529 34.029C666.533 41.4328 613.349 51.9216 583.98 54.7598Z" fill="#626262"/>
<path d="M576.577 44.0242V39.0242H579.202L580.693 41.1855L576.577 44.0242ZM583.98 54.7598L584.461 59.7366L581.534 60.0195L579.864 57.5984L583.98 54.7598ZM685.413 17.0001L685.234 12.0034L690.044 11.831L690.399 16.6308L685.413 17.0001ZM571.764 21.0723L566.787 21.5539L566.276 16.2657L571.585 16.0755L571.764 21.0723ZM572.875 32.5482L577.851 32.0666L578.225 35.9231L574.583 37.2472L572.875 32.5482ZM564.73 35.5098L559.947 36.9656L558.567 32.4307L563.022 30.8108L564.73 35.5098ZM567.322 44.0242V49.0242H563.617L562.538 45.48L567.322 44.0242ZM580.693 41.1855L588.097 51.9211L579.864 57.5984L572.461 46.8629L580.693 41.1855ZM583.5 49.783C597.953 48.3862 618.398 45.0894 636.472 41.2174C645.505 39.2825 653.863 37.2211 660.536 35.2061C667.474 33.1108 671.851 31.2717 673.552 30.0112L679.505 38.0468C676.209 40.4882 670.189 42.7367 663.427 44.7791C656.398 46.9017 647.751 49.0281 638.567 50.9956C620.208 54.9285 599.377 58.2952 584.461 59.7366L583.5 49.783ZM673.552 30.0112C677.933 26.7664 679.481 24.1141 680.083 22.3614C680.705 20.5533 680.558 19.1443 680.427 17.3695L690.399 16.6308C690.515 18.1877 690.923 21.5912 689.54 25.6136C688.137 29.6915 685.119 33.8878 679.505 38.0468L673.552 30.0112ZM685.592 21.9969L571.943 26.0691L571.585 16.0755L685.234 12.0034L685.592 21.9969ZM576.741 20.5906L577.851 32.0666L567.898 33.0298L566.787 21.5539L576.741 20.5906ZM574.583 37.2472L566.439 40.2087L563.022 30.8108L571.166 27.8493L574.583 37.2472ZM569.514 34.054L572.105 42.5684L562.538 45.48L559.947 36.9656L569.514 34.054ZM567.322 39.0242H576.577V49.0242H567.322V39.0242Z" fill="#626262" mask="url(#path-16-inside-2_731_10043)"/>
<path d="M371.859 279.096V284.278M434.792 280.947V284.278" stroke="#626262" stroke-width="9" stroke-linecap="round"/>
<path d="M22.5 16C22.5 19.0376 20.0376 21.5 17 21.5C13.9624 21.5 11.5 19.0376 11.5 16C11.5 12.9624 13.9624 10.5 17 10.5C20.0376 10.5 22.5 12.9624 22.5 16Z" fill="#626262" stroke="#626262"/>
<path d="M31.5469 30.5469C30.9639 31.1299 30.1825 31.4689 29.3613 31.498L27.3131 30.4989V27.0729V26.5729H26.8131H19.265L19.2192 26.5506L19.114 26.4993L18.997 26.5L6.81012 26.5729L6.31311 26.5759V27.0729V31.0729V31.5H4.75C2.95814 31.5 1.5 30.0419 1.5 28.25V3.75026C1.50099 2.88855 1.84374 2.0624 2.45307 1.45307C3.0624 0.843742 3.88855 0.500989 4.75026 0.5H29.2497C30.1115 0.500989 30.9376 0.843742 31.5469 1.45307C32.1563 2.06247 32.4991 2.88872 32.5 3.75053V28.2495C32.4991 29.1113 32.1563 29.9375 31.5469 30.5469ZM26.3131 27.5729V30.0111L21.315 27.5729H26.3131ZM7.31311 27.5699L18.6048 27.5024L18.5997 27.5251L25.0558 30.5729H7.31311V27.5699ZM6.5 16C6.5 21.7901 11.2099 26.5 17 26.5C22.7901 26.5 27.5 21.7901 27.5 16C27.5 10.2099 22.7901 5.5 17 5.5C11.2099 5.5 6.5 10.2099 6.5 16Z" fill="#626262" stroke="#626262"/>
</svg>
