<svg width="173" height="138" viewBox="0 0 173 138" fill="none" xmlns="http://www.w3.org/2000/svg">
<mask id="path-1-inside-1_0_508" fill="white">
<path fill-rule="evenodd" clip-rule="evenodd" d="M8.99997 72.0296C8.99997 72.6294 8.73078 73.1975 8.2666 73.5774L0.891325 79.6129C-0.0864997 80.4131 -0.0864998 81.9083 0.891325 82.7085L8.2666 88.7441C8.73078 89.1239 8.99997 89.6921 8.99997 90.2919L8.99997 118.691C8.99997 124.214 13.4771 128.691 19 128.691L54.7964 128.691C55.4216 128.691 56.0107 128.983 56.3889 129.481L61.6101 136.353C62.4105 137.406 63.9947 137.406 64.7951 136.353L70.0163 129.481C70.3944 128.983 70.9836 128.691 71.6088 128.691L163 128.691C168.523 128.691 173 124.214 173 118.691L173 10C173 4.47717 168.523 2.31581e-05 163 2.33995e-05L19 2.9694e-05C13.4771 2.99354e-05 8.99997 4.47719 8.99997 10L8.99997 72.0296Z"/>
</mask>
<path fill-rule="evenodd" clip-rule="evenodd" d="M8.99997 72.0296C8.99997 72.6294 8.73078 73.1975 8.2666 73.5774L0.891325 79.6129C-0.0864997 80.4131 -0.0864998 81.9083 0.891325 82.7085L8.2666 88.7441C8.73078 89.1239 8.99997 89.6921 8.99997 90.2919L8.99997 118.691C8.99997 124.214 13.4771 128.691 19 128.691L54.7964 128.691C55.4216 128.691 56.0107 128.983 56.3889 129.481L61.6101 136.353C62.4105 137.406 63.9947 137.406 64.7951 136.353L70.0163 129.481C70.3944 128.983 70.9836 128.691 71.6088 128.691L163 128.691C168.523 128.691 173 124.214 173 118.691L173 10C173 4.47717 168.523 2.31581e-05 163 2.33995e-05L19 2.9694e-05C13.4771 2.99354e-05 8.99997 4.47719 8.99997 10L8.99997 72.0296Z" fill="white"/>
<path d="M0.891325 79.6129L1.52464 80.3868L1.52464 80.3868L0.891325 79.6129ZM0.891325 82.7085L1.52464 81.9346L1.52464 81.9346L0.891325 82.7085ZM8.99997 118.691L9.99997 118.691L8.99997 118.691ZM19 128.691L19 129.691L19 128.691ZM8.99997 10L9.99997 10L8.99997 10ZM64.7951 136.353L65.5913 136.958L64.7951 136.353ZM56.3889 129.481L55.5927 130.086L56.3889 129.481ZM70.0163 129.481L69.22 128.876L70.0163 129.481ZM8.2666 88.7441L7.63329 89.518L8.2666 88.7441ZM8.99997 90.2919L7.99997 90.2919L8.99997 90.2919ZM8.2666 73.5774L8.89992 74.3513L8.2666 73.5774ZM8.99997 72.0296L9.99997 72.0296L8.99997 72.0296ZM7.63329 72.8035L0.25801 78.8391L1.52464 80.3868L8.89992 74.3513L7.63329 72.8035ZM0.25801 78.8391C-1.20873 80.0394 -1.20873 82.2821 0.25801 83.4824L1.52464 81.9346C1.03573 81.5345 1.03573 80.7869 1.52464 80.3868L0.25801 78.8391ZM0.25801 83.4824L7.63329 89.518L8.89992 87.9702L1.52464 81.9346L0.25801 83.4824ZM7.99997 90.2919L7.99997 118.691L9.99997 118.691L9.99997 90.2919L7.99997 90.2919ZM7.99997 118.691C7.99997 124.766 12.9248 129.691 19 129.691L19 127.691C14.0294 127.691 9.99997 123.661 9.99997 118.691L7.99997 118.691ZM19 129.691L54.7964 129.691L54.7964 127.691L19 127.691L19 129.691ZM55.5927 130.086L60.8139 136.958L62.4063 135.748L57.1852 128.876L55.5927 130.086ZM65.5913 136.958L70.8125 130.086L69.22 128.876L63.9988 135.748L65.5913 136.958ZM71.6088 129.691L163 129.691L163 127.691L71.6088 127.691L71.6088 129.691ZM163 129.691C169.075 129.691 174 124.766 174 118.691L172 118.691C172 123.661 167.971 127.691 163 127.691L163 129.691ZM174 118.691L174 10L172 10L172 118.691L174 118.691ZM174 10C174 3.92487 169.075 -0.999977 163 -0.999977L163 1.00002C167.971 1.00002 172 5.02946 172 10L174 10ZM163 -0.999977L19 -0.99997L19 1.00003L163 1.00002L163 -0.999977ZM19 -0.99997C12.9248 -0.99997 7.99997 3.92491 7.99997 10L9.99997 10C9.99997 5.02948 14.0294 1.00003 19 1.00003L19 -0.99997ZM7.99997 10L7.99997 72.0296L9.99997 72.0296L9.99997 10L7.99997 10ZM60.8139 136.958C62.0144 138.538 64.3908 138.538 65.5913 136.958L63.9988 135.748C63.5987 136.275 62.8065 136.275 62.4063 135.748L60.8139 136.958ZM54.7964 129.691C55.109 129.691 55.4036 129.837 55.5927 130.086L57.1852 128.876C56.6179 128.129 55.7341 127.691 54.7964 127.691L54.7964 129.691ZM70.8125 130.086C71.0016 129.837 71.2962 129.691 71.6088 129.691L71.6088 127.691C70.6711 127.691 69.7873 128.129 69.22 128.876L70.8125 130.086ZM7.63329 89.518C7.86538 89.7079 7.99997 89.992 7.99997 90.2919L9.99997 90.2919C9.99997 89.3922 9.59619 88.54 8.89992 87.9702L7.63329 89.518ZM8.89992 74.3513C9.59619 73.7815 9.99997 72.9293 9.99997 72.0296L7.99997 72.0296C7.99997 72.3295 7.86537 72.6136 7.63329 72.8035L8.89992 74.3513Z" fill="#FF0000" mask="url(#path-1-inside-1_0_508)"/>
</svg>
