<svg width="161" height="22" viewBox="0 0 161 22" fill="none" xmlns="http://www.w3.org/2000/svg">
<path d="M56.9878 16.9999H46.7473V0.599995H41.125V21.3998H56.9878V16.9999Z" fill="currentColor"/>
<path d="M77.6619 0.599995H72.0396V11.3999C72.0396 15.5999 70.4332 17.3999 67.4213 17.3999C64.811 17.3999 63.807 15.7999 63.807 12.1999V0.599995H58.1847V13.3999C58.1847 18.1998 59.7911 21.9998 65.6142 21.9998C70.2325 21.9998 72.0396 17.9998 72.0396 17.9998H72.2404V21.3998H77.6619V0.599995Z" fill="currentColor"/>
<path d="M91.9246 21.3998H97.5469V10.5999C97.5469 6.39994 98.832 4.59996 101.241 4.59996C103.45 4.59996 104.173 6.19995 104.173 9.79992V21.3998H109.795V8.59993C109.795 3.79997 108.39 0 103.169 0C98.9524 0 97.1453 3.99997 97.1453 3.99997H96.9445L96.9043 4.03997C96.1011 1.59999 94.294 0 90.9206 0C86.7039 0 85.2984 3.99997 85.2984 3.99997H85.0976V0.599995H79.6761V21.3998H85.2984V10.5999C85.2984 6.39994 86.5835 4.59996 88.993 4.59996C91.2017 4.59996 91.9246 6.19995 91.9246 9.79992V21.3998Z" fill="currentColor"/>
<path d="M117.418 0.599995H111.795V21.3998H117.418V0.599995Z" fill="currentColor"/>
<path d="M119.242 10.9999C119.242 17.0799 122.656 21.9998 129.684 21.9998C138.318 21.9998 139.522 14.5999 139.522 14.5999H133.9C133.9 14.5999 133.298 17.7999 129.884 17.7999C126.511 17.7999 125.146 15.3999 124.905 12.1999H139.683C139.683 12.1999 139.723 11.4799 139.723 10.9999C139.723 4.91996 136.551 0 129.684 0C122.816 0 119.242 4.91996 119.242 10.9999ZM129.684 4.19996C132.454 4.19996 133.579 6.03995 133.94 8.59993H125.065C125.547 6.03995 126.913 4.19996 129.684 4.19996Z" fill="currentColor"/>
<path d="M141.523 21.3998H147.145V10.5999C147.145 6.39994 148.751 4.59996 151.763 4.59996C154.373 4.59996 155.377 6.19995 155.377 9.79992V21.3998H161V8.59993C161 3.79997 159.393 0 153.57 0C148.952 0 147.145 3.99997 147.145 3.99997H146.944V0.599995H141.523V21.3998Z" fill="currentColor"/>
<rect x="2" y="2.45898" width="27.9972" height="17.5415" stroke="#FF971D" stroke-width="4"/>
</svg>
