<svg width="77" height="19" viewBox="0 0 77 19" fill="none" xmlns="http://www.w3.org/2000/svg">
<g clip-path="url(#clip0_281_2346)">
<path fill-rule="evenodd" clip-rule="evenodd" d="M41.406 4.60131C41.5912 4.79254 43.258 9.34849 43.4323 9.91096C43.6059 10.5136 43.8511 11.0917 44.1623 11.6321C44.7396 11.7671 44.7941 11.1709 44.9684 10.6984C45.9162 8.14482 47.3542 4.42132 48.0733 1.91273C48.5744 0.697811 48.618 0.371582 47.7138 0.371582C46.8095 0.371582 46.9076 0.979043 46.5481 1.76649C46.2322 3.26264 45.012 6.42369 44.5653 7.87484C44.5653 8.06608 44.5653 8.06608 44.3366 8.06608C43.5849 5.90622 42.7133 3.26264 41.8636 1.12528C41.6348 0.70906 41.2317 0.619066 40.9594 1.55275C40.5018 3.03766 39.87 4.80379 39.3797 6.2437C39.3797 6.2437 38.7914 8.06608 38.7479 8.15607C38.4363 7.63881 38.2082 7.07273 38.0724 6.47993C37.397 4.75879 36.8087 2.90267 36.2313 1.18153C36.0897 0.855301 36.0897 0.664063 35.7737 0.472826C35.4571 0.351651 35.1147 0.32057 34.7824 0.382832C33.8891 0.529072 34.4664 1.27152 34.6516 1.82274C35.7411 4.84879 36.9503 8.4823 38.1596 11.3621C38.1879 11.4335 38.2339 11.4959 38.293 11.543C38.3521 11.5901 38.4222 11.6204 38.4962 11.6306C38.5702 11.6409 38.6455 11.6308 38.7146 11.6015C38.7836 11.5721 38.8439 11.5245 38.8895 11.4634C39.0638 11.1146 41.2753 4.60131 41.406 4.60131Z" fill="white"/>
<path fill-rule="evenodd" clip-rule="evenodd" d="M0.174662 0.562104C0.129629 0.749501 0.144926 0.946945 0.218239 1.12457C0.40344 1.91201 -0.141269 10.8889 0.000355491 11.2489C0.441324 11.4537 0.935725 11.5012 1.4057 11.3839C1.62359 11.1477 1.53643 10.9227 1.53643 10.5514C1.53643 8.9653 1.66716 7.4354 1.66716 5.80426C1.72163 5.1968 1.76521 4.78058 1.76521 4.40935C1.76521 4.03813 1.76521 4.08312 1.85237 3.99313C1.93952 3.90313 3.36666 6.46797 3.50828 6.7492C3.78063 7.30041 4.31445 8.14411 4.67396 8.79656C5.21866 9.82024 5.49102 9.12279 5.62175 8.88656C5.93768 8.47033 8.37797 4.04937 8.55228 3.95938C8.71569 4.13937 8.71569 8.56033 8.71569 8.88656C8.71569 11.3051 8.44334 11.5414 9.92495 11.4401C10.3825 11.4401 10.4261 11.0689 10.3825 10.6527C10.3825 9.86524 10.3825 8.97655 10.3825 8.1891C10.2627 6.18673 10.1755 3.90313 10.1755 1.91201C10.1755 1.67578 10.2627 0.787089 10.2627 0.652098C10.1293 0.496908 9.94863 0.393366 9.75054 0.358593C9.55244 0.323819 9.34879 0.359897 9.17325 0.46086C8.85732 0.652098 8.77017 1.06832 8.54139 1.34955C7.62628 3.02569 6.39524 4.92682 5.5346 6.51296C5.21866 7.07543 5.21866 6.88419 4.94631 6.51296C4.35802 5.62427 3.59543 4.09437 3.06162 3.20568L1.9722 1.34955C1.82077 1.02699 1.62643 0.727869 1.39481 0.46086C1.08977 0.235875 0.490593 0.415863 0.174662 0.562104Z" fill="white"/>
<path fill-rule="evenodd" clip-rule="evenodd" d="M57.6561 5.76998C58.0417 5.44512 58.4991 5.22376 58.9876 5.12562C59.4761 5.02749 59.9805 5.05562 60.4559 5.20752C61.894 5.85998 62.0792 8.05358 61.4473 9.12226C61.1782 9.53875 60.7906 9.85874 60.3378 10.0381C59.8851 10.2174 59.3897 10.2472 58.9199 10.1234C58.4647 10.0307 58.0339 9.83896 57.6561 9.56099V5.76998ZM57.6561 4.18384C57.5882 2.95867 57.5882 1.7305 57.6561 0.50533C57.6561 -0.000886342 57.4818 -0.0908804 57.0243 0.0891078C55.9349 0.561577 55.9349 0.370339 56.0874 1.39402C56.1745 1.91149 56.0874 7.90734 56.0874 8.75104C56.0874 10.4159 55.8586 10.7984 58.2008 11.4959C58.8678 11.6403 59.5561 11.644 60.2245 11.5067C60.8928 11.3695 61.5274 11.0941 62.0901 10.6972C64.3888 8.75104 63.7569 3.2614 59.5626 3.67762C59.197 3.69805 58.8331 3.74315 58.4732 3.81261C58.3316 3.85761 57.7978 4.18384 57.7324 4.18384H57.6561Z" fill="white"/>
<path fill-rule="evenodd" clip-rule="evenodd" d="M25.9011 11.3502C26.0715 10.7636 26.1197 10.1464 26.0427 9.53909C25.9981 8.90246 25.9981 8.26334 26.0427 7.62672C26.1734 7.62672 26.3151 7.86295 26.5874 8.14418C26.8598 8.42541 29.104 10.844 29.4635 11.114C29.5889 11.2345 29.7401 11.3228 29.9048 11.3717C30.0695 11.4205 30.243 11.4286 30.4113 11.3952C30.7272 11.3952 31.2283 11.3952 31.4026 11.1702C31.4026 10.844 30.7708 10.3265 30.4984 10.0453C30.2261 9.76408 29.8775 9.4041 29.5615 9.02163C28.8686 8.39192 28.2205 7.71145 27.6224 6.98551C27.6224 6.88427 30.0953 4.73566 30.5529 4.33068C30.7272 4.13945 30.9124 4.09445 30.8688 3.81322C30.3081 3.63461 29.7083 3.63461 29.1476 3.81322C28.9297 3.91446 27.4372 5.30937 27.0341 5.68059C26.9034 5.81559 26.1299 6.65928 26.0427 6.61428C25.912 6.18681 26.0427 0.370944 25.9556 0.0447153C25.8684 -0.281513 24.3323 0.235953 24.3759 0.798416C24.4613 1.19361 24.5051 1.59717 24.5066 2.00209V10.0453C24.5066 10.3265 24.4195 11.1702 24.6047 11.3052C25.0286 11.4171 25.4709 11.4324 25.9011 11.3502Z" fill="white"/>
<path fill-rule="evenodd" clip-rule="evenodd" d="M14.1617 7.53573C14.6629 7.40074 16.3406 7.81696 16.4168 8.27818C16.4604 8.77589 16.4604 9.27663 16.4168 9.77433C16.1009 10.1906 13.933 11.023 13.2139 9.5381C13.117 9.32716 13.0668 9.09661 13.0668 8.86314C13.0668 8.62968 13.117 8.39913 13.2139 8.18819C13.3186 8.01668 13.4571 7.8699 13.6204 7.75747C13.7837 7.64503 13.9682 7.56947 14.1617 7.53573ZM16.4604 6.97327C16.0371 6.68368 15.5636 6.48124 15.066 6.37706C14.4458 6.30615 13.8183 6.35188 13.2139 6.51205C12.7051 6.66254 12.2564 6.97768 11.9339 7.4111C11.6114 7.84452 11.4321 8.37337 11.4223 8.91986C11.4125 9.46636 11.5729 10.0017 11.8797 10.4471C12.1865 10.8925 12.6236 11.2245 13.1268 11.3942C13.9885 11.6976 14.9233 11.6976 15.785 11.3942C15.9702 11.3042 16.3297 11.068 16.4604 11.023C16.5911 10.978 16.6456 11.3492 16.8199 11.4392C16.9942 11.5292 17.8113 11.4392 18.0401 11.2142C18.2688 10.9893 18.3124 11.023 18.1708 10.6968C17.96 10.2663 17.8839 9.77891 17.9529 9.30187V5.94958C18.0099 5.47492 17.8976 4.99507 17.637 4.59967C16.7763 2.83354 11.5907 3.53099 12.0047 5.02714C12.4187 6.5233 13.0941 4.50968 15.3819 4.79091C16.6129 4.9259 16.4822 6.14082 16.4822 6.97327H16.4604Z" fill="white"/>
<path fill-rule="evenodd" clip-rule="evenodd" d="M69.7887 6.74965H66.052C66.102 6.28776 66.3062 5.85824 66.6294 5.53473C66.9821 5.21528 67.4253 5.02196 67.8931 4.98352C68.1367 4.96274 68.3819 4.99287 68.614 5.07211C68.8461 5.15136 69.0603 5.27809 69.244 5.44474C69.4288 5.60177 69.5746 5.8021 69.6694 6.02906C69.7641 6.25603 69.805 6.50308 69.7887 6.74965ZM65.9539 7.95332C66.2263 7.81833 70.3116 7.95332 71.0524 7.95332C71.7932 7.95332 71.4555 5.44474 70.1046 4.42106C69.5527 3.9962 68.8957 3.74118 68.2094 3.68544C67.5232 3.62969 66.8357 3.7755 66.2262 4.10603C65.6168 4.43656 65.1103 4.93832 64.7653 5.5534C64.4202 6.16847 64.2507 6.87177 64.2762 7.5821C64.2503 8.27201 64.4058 8.95628 64.7261 9.56232C65.0464 10.1684 65.5196 10.6736 66.0955 11.0244C67.3048 11.8681 70.5512 11.8231 70.9543 10.5182C71.4555 8.84202 70.2789 9.7757 69.8649 9.95569C69.5168 10.1031 69.1499 10.1978 68.7755 10.2369C66.3679 10.5182 65.7796 8.32455 65.9539 7.95332Z" fill="white"/>
<path fill-rule="evenodd" clip-rule="evenodd" d="M49.6026 6.74987C49.6408 6.2694 49.8524 5.82127 50.1954 5.49419C50.5383 5.16711 50.9878 4.98494 51.4546 4.98374C52.3915 4.8825 53.481 5.72619 53.2958 6.74987H49.6026ZM49.4174 7.8748C49.6462 7.8748 53.884 7.8748 54.4723 7.8748C55.0606 7.8748 54.9626 7.50357 54.919 7.04235C54.8872 6.41774 54.6987 5.81238 54.3722 5.28556C54.0457 4.75874 53.5922 4.32854 53.0563 4.03708C52.5203 3.74563 51.9203 3.60292 51.3148 3.62294C50.7094 3.64297 50.1194 3.82503 49.6026 4.15129C49.0215 4.50579 48.5463 5.01883 48.2292 5.63405C47.9121 6.24926 47.7653 6.94284 47.8051 7.63857C47.7589 8.32535 47.9086 9.01105 48.2358 9.61087C48.5631 10.2107 49.0534 10.6983 49.6462 11.0133C51.1823 11.992 54.2 11.5758 54.4723 10.4621C54.4723 10.1359 54.6902 9.3372 54.2 9.52844C53.6078 9.87413 52.9632 10.1137 52.2935 10.2371C51.9365 10.2864 51.5736 10.262 51.2258 10.1655C50.8779 10.0689 50.5521 9.90213 50.2672 9.67468C49.875 9.34845 49.2431 8.36977 49.4174 7.8748Z" fill="white"/>
<path fill-rule="evenodd" clip-rule="evenodd" d="M73.8778 11.3947C74.1502 11.1135 74.1066 10.9785 74.1066 10.5623V9.43736C74.1066 7.95245 73.8343 5.48887 75.5011 5.11764C75.8606 5.02765 75.9477 5.34263 76.4053 5.25263C76.6751 5.00266 76.8778 4.6849 76.9936 4.33019C76.9936 3.62149 75.9042 3.4865 74.9128 3.94772C74.5968 4.09396 74.3354 4.60017 74.1066 4.64517C74.1066 4.22895 74.1938 4.04896 73.9214 3.67773C73.5722 3.71231 73.2342 3.82354 72.93 4.00396C72.4834 4.22895 72.3962 4.22895 72.4834 4.79141C72.5705 5.35387 72.4834 9.21237 72.4834 10.1348C72.527 11.541 72.5269 11.496 73.8778 11.3947Z" fill="white"/>
<path fill-rule="evenodd" clip-rule="evenodd" d="M20.764 11.3497V11.2597C20.8905 10.1172 20.9233 8.96567 20.8621 7.81744C20.8621 6.92875 21.08 5.48884 22.0277 5.20761C22.7903 4.92638 22.8339 5.66883 23.335 5.20761C24.5007 3.94769 22.932 3.44148 21.9842 3.8577C21.0364 4.27392 21.1671 4.60015 20.8948 4.69015C20.8729 4.5071 20.8729 4.32197 20.8948 4.13893C20.8948 3.9027 20.7967 3.9027 20.7096 3.76771C20.3602 3.76477 20.017 3.86214 19.7182 4.04894C19.2715 4.22893 19.1299 4.27392 19.2715 4.83639C19.3674 5.69881 19.3965 6.56776 19.3587 7.43496V9.9998C19.4567 11.3947 19.2715 11.4959 20.764 11.3497Z" fill="white"/>
<path fill-rule="evenodd" clip-rule="evenodd" d="M41.0833 12.8453C39.2849 13.0744 37.5165 13.5083 35.8105 14.139C35.2767 14.3752 34.7211 14.5102 34.1873 14.7465C33.0979 15.1627 32.0738 15.5339 30.9953 15.9614C30.6358 16.0964 28.0648 16.8838 27.6181 16.9851C25.4393 17.5363 22.171 18.1887 20.0902 17.2101C19.0989 16.7038 19.0008 18.2787 21.2559 18.8412C22.5747 19.0797 23.928 19.0183 25.2214 18.6612C26.3108 18.425 27.6181 18.0088 28.6531 17.6825C29.688 17.3563 30.9081 16.9851 32.0302 16.6588C32.3026 16.5576 32.5205 16.4676 32.8364 16.3776L34.5032 15.8601C34.8192 15.7701 35.0479 15.6352 35.3203 15.5339L37.0416 15.1177C37.3575 15.0277 37.5863 14.9377 37.8586 14.8365C40.1395 14.334 42.466 14.0851 44.7982 14.094C45.3756 14.094 46.2362 14.2402 46.8245 14.3302C47.914 14.4652 47.6743 13.869 46.9553 13.4865C45.0858 12.7469 43.0613 12.5258 41.0833 12.8453Z" fill="currentColor"/>
</g>
<defs>
<clipPath id="clip0_281_2346">
<rect width="77" height="19" fill="white"/>
</clipPath>
</defs>
</svg>
