<svg width="89" height="64" viewBox="0 0 89 64" fill="none" xmlns="http://www.w3.org/2000/svg">
<g clip-path="url(#clip0_7_674)">
<path d="M42.8041 29.7266C42.8041 24.1234 38.1908 19.5811 32.5 19.5811C26.8092 19.5811 22.1959 24.1234 22.1959 29.7266L22.1959 42.3188C22.1959 47.922 26.8092 52.4644 32.5 52.4644C38.1908 52.4644 42.8041 47.922 42.8041 42.3188L42.8041 29.7266Z" stroke="#6C6C6C" stroke-linecap="round" stroke-linejoin="round"/>
<path d="M33.8 40.9602C34.5179 40.2532 34.5179 39.1071 33.8 38.4002C33.082 37.6932 31.9179 37.6932 31.2 38.4002C30.482 39.1071 30.482 40.2533 31.2 40.9602C31.9179 41.6671 33.082 41.6671 33.8 40.9602Z" stroke="#6C6C6C" stroke-linecap="round" stroke-linejoin="round"/>
<path d="M36.0893 15.9018C34.9602 15.4338 33.748 15.1912 32.5229 15.1882C31.2978 15.1853 30.0843 15.4219 28.9529 15.8844M37.5593 12.3144C35.9557 11.6588 34.2365 11.3213 32.5001 11.3213C30.7638 11.3213 29.0445 11.6588 27.441 12.3144" stroke="#6C6C6C" stroke-linecap="round" stroke-linejoin="round"/>
<rect x="28.0357" y="25.8679" width="9.11163" height="7.14587" rx="0.5" stroke="#6C6C6C"/>
</g>
<g clip-path="url(#clip1_7_674)">
<path d="M46.2138 34.3532C46.2572 39.9563 50.9056 44.4627 56.5962 44.4186C62.2869 44.3745 66.8648 39.7966 66.8214 34.1935L66.7238 21.6017C66.6803 15.9986 62.032 11.4922 56.3413 11.5363C50.6507 11.5804 46.0728 16.1584 46.1162 21.7614L46.2138 34.3532Z" stroke="#6C6C6C" stroke-linecap="round" stroke-linejoin="round"/>
<path d="M55.1307 23.0502C54.4182 23.7627 54.4271 24.9088 55.1505 25.6101C55.8739 26.3115 57.038 26.3024 57.7504 25.59C58.4629 24.8775 58.454 23.7314 57.7306 23.03C57.0072 22.3287 55.8431 22.3377 55.1307 23.0502Z" stroke="#6C6C6C" stroke-linecap="round" stroke-linejoin="round"/>
<path d="M53.0356 48.1256C54.1683 48.5848 55.3824 48.8179 56.6074 48.8114C57.8325 48.8049 59.0441 48.5589 60.1719 48.0876M51.5935 51.7242C53.2021 52.3674 54.9239 52.6915 56.6602 52.6781C58.3965 52.6646 60.113 52.3138 61.7115 51.6458" stroke="#6C6C6C" stroke-linecap="round" stroke-linejoin="round"/>
<rect x="61.0118" y="38.0973" width="9.11162" height="7.14588" rx="0.5" transform="matrix(-0.999971 0.00787271 -0.00763237 -0.999969 122.313 75.7132)" stroke="#6C6C6C"/>
</g>
<defs>
<clipPath id="clip0_7_674">
<rect width="45.6098" height="45.6098" transform="matrix(0.712567 -0.701604 0.712567 0.701604 0 32)"/>
</clipPath>
<clipPath id="clip1_7_674">
<rect width="45.6098" height="45.6098" transform="matrix(-0.707107 0.707107 -0.717984 -0.69606 88.999 31.748)"/>
</clipPath>
</defs>
</svg>
