<svg width="59" height="34" viewBox="0 0 59 34" xmlns="http://www.w3.org/2000/svg">
<path d="M7 4.05421H1V1H57.5527V4.05421H52M7 4.05421H52M7 4.05421V18V33M7 33H52M7 33H1H29.1862H57.5527H52M52 33V18V4.05421" stroke="currentColor"/>
<path d="M6 11.5H7" stroke="currentColor" stroke-width="0.5"/>
<path d="M4 4L4.15437 4.45553C7.29403 13.7203 7.23968 23.7697 4 33V33" stroke="currentColor" stroke-width="0.5"/>
<rect x="1" y="1" width="56.5527" height="3.49091" rx="1" fill="currentColor"/>
<path d="M53 11.5H52" stroke="currentColor" stroke-width="0.5"/>
<path d="M54.5 6H52M53.5 8.5H52" stroke="currentColor" stroke-width="0.5"/>
<path d="M55 4L54.8456 4.45553C51.706 13.7203 51.7603 23.7697 55 33V33" stroke="currentColor" stroke-width="0.5"/>
<path d="M53 25H52" stroke="currentColor" stroke-width="0.5"/>
<path d="M54.5 31H52M53.8 28H52" stroke="currentColor" stroke-width="0.5"/>
<path d="M4.5 6H7M5.5 8.5H7" stroke="currentColor" stroke-width="0.5"/>
<path d="M6 11.5H7" stroke="currentColor" stroke-width="0.5"/>
<path d="M6 25H7" stroke="currentColor" stroke-width="0.5"/>
<path d="M4.5 6H7M5.5 8.5H7" stroke="currentColor" stroke-width="0.5"/>
<path d="M4.5 31H7M5.2 28H7" stroke="currentColor" stroke-width="0.5"/>
</svg>
