<svg width="47" height="44" viewBox="0 0 47 44" fill="none" xmlns="http://www.w3.org/2000/svg">
<g clip-path="url(#clip0_2_346)">
<path d="M34.5697 28.1349C39.388 23.4562 39.2693 15.8705 34.3047 11.1918C29.34 6.51306 21.4094 6.51306 16.5911 11.1918L5.76298 21.7063C0.944692 26.385 1.06335 33.9707 6.02801 38.6494C10.9927 43.3281 18.9233 43.3281 23.7416 38.6494L34.5697 28.1349Z" stroke-linecap="round" stroke-linejoin="round"/>
<path d="M17.7818 29.04C18.7894 29.04 19.594 28.252 19.5789 27.28C19.5638 26.308 18.7348 25.52 17.7272 25.52C16.7196 25.52 15.915 26.308 15.9301 27.28C15.9452 28.252 16.7742 29.04 17.7818 29.04Z"  stroke-linecap="round" stroke-linejoin="round"/>
<path d="M40.5987 11.0706C40.0162 9.75149 39.1671 8.55229 38.1009 7.5426C37.0347 6.53292 35.7726 5.73285 34.3878 5.18884M44.9659 9.28368C44.1308 7.41783 42.9211 5.72252 41.4063 4.29499C39.8915 2.86745 38.1014 1.73577 36.1387 0.964844"  stroke-linecap="round" stroke-linejoin="round"/>
<rect x="0.0107642" y="0.694252" width="8.85923" height="7.06665" rx="0.5" transform="matrix(0.730416 0.694252 -0.708887 0.694252 24.7612 14.2849)" />
</g>
<defs>
<clipPath id="clip0_2_346">
<rect width="45.6098" height="44.0053" fill="white" transform="matrix(1 0 0.0155029 0.99988 0 0)"/>
</clipPath>
</defs>
</svg>
