<?xml version="1.0" encoding="utf-8"?><svg xmlns="http://www.w3.org/2000/svg" xmlns:xlink="http://www.w3.org/1999/xlink"><symbol fill="none" viewBox="0 0 77 19" id="MarkWeber" xmlns="http://www.w3.org/2000/svg"><g clip-path="url(#aclip0_281_2346)" fill-rule="evenodd" clip-rule="evenodd"><path d="M41.406 4.601c.185.192 1.852 4.747 2.026 5.31.174.603.42 1.18.73 1.721.578.135.632-.461.806-.934.948-2.553 2.386-6.277 3.105-8.785.501-1.215.545-1.541-.36-1.541-.904 0-.805.607-1.165 1.394-.316 1.497-1.536 4.658-1.983 6.109 0 .191 0 .191-.228.191-.752-2.16-1.624-4.803-2.473-6.94-.23-.417-.632-.507-.905.427-.457 1.485-1.089 3.25-1.58 4.69 0 0-.588 1.823-.631 1.913a5.727 5.727 0 01-.676-1.676c-.675-1.721-1.263-3.577-1.84-5.298-.142-.327-.142-.518-.458-.71a1.828 1.828 0 00-.992-.09c-.893.147-.316.89-.13 1.44 1.09 3.027 2.298 6.66 3.508 9.54a.437.437 0 00.133.181.418.418 0 00.596-.08c.175-.348 2.386-6.862 2.517-6.862zM.175.562a.916.916 0 00.043.563c.185.787-.36 9.764-.218 10.124.441.205.936.252 1.406.135.218-.236.13-.461.13-.833 0-1.586.131-3.116.131-4.747.055-.607.098-1.023.098-1.395 0-.37 0-.326.087-.416.088-.09 1.515 2.475 1.656 2.756.273.551.806 1.395 1.166 2.048.545 1.023.817.326.948.09.316-.417 2.756-4.838 2.93-4.928.164.18.164 4.601.164 4.928 0 2.418-.273 2.654 1.209 2.553.457 0 .501-.371.457-.787V8.189c-.12-2.002-.207-4.286-.207-6.277 0-.236.088-1.125.088-1.26a.859.859 0 00-1.09-.191c-.316.191-.403.607-.632.889-.915 1.676-2.146 3.577-3.006 5.163-.316.562-.316.371-.589 0-.588-.889-1.35-2.419-1.884-3.307L1.972 1.35a3.858 3.858 0 00-.577-.89C1.09.237.49.417.175.563zM57.656 5.77a2.977 2.977 0 011.332-.644c.488-.099.992-.07 1.468.082 1.438.652 1.623 2.846.991 3.914-.269.417-.656.737-1.11.916-.452.18-.947.21-1.417.085a3.215 3.215 0 01-1.264-.562V5.77zm0-1.586a33.24 33.24 0 010-3.679c0-.506-.174-.596-.632-.416-1.09.473-1.09.281-.937 1.305.087.517 0 6.513 0 7.357 0 1.665-.228 2.047 2.114 2.745a4.899 4.899 0 002.023.01 4.971 4.971 0 001.866-.809c2.299-1.946 1.667-7.436-2.527-7.02-.366.021-.73.066-1.09.136-.141.045-.675.37-.74.37h-.077zM25.901 11.35c.17-.586.219-1.204.142-1.81a13.683 13.683 0 010-1.913c.13 0 .272.236.544.517.273.281 2.517 2.7 2.877 2.97a1.057 1.057 0 00.948.281c.315 0 .816 0 .99-.225 0-.326-.631-.844-.904-1.125-.272-.28-.62-.64-.937-1.023a19.544 19.544 0 01-1.939-2.036c0-.102 2.473-2.25 2.93-2.655.175-.192.36-.237.317-.518a2.831 2.831 0 00-1.721 0c-.218.101-1.71 1.496-2.114 1.868-.13.135-.904.978-.991.933-.131-.427 0-6.243-.087-6.57-.088-.326-1.624.192-1.58.754.085.396.13.8.13 1.204v8.043c0 .281-.087 1.125.099 1.26.424.112.866.127 1.296.045zM14.162 7.536c.5-.135 2.179.281 2.255.742.043.498.043.999 0 1.496-.316.417-2.484 1.249-3.203-.236a1.618 1.618 0 010-1.35c.105-.171.243-.318.406-.43a1.37 1.37 0 01.542-.222zm2.298-.563a3.876 3.876 0 00-1.394-.596 5.006 5.006 0 00-1.852.135c-.509.15-.958.466-1.28.9a2.607 2.607 0 00-.512 1.508c-.01.546.15 1.082.458 1.527a2.48 2.48 0 001.247.947 3.995 3.995 0 002.658 0c.185-.09.545-.326.675-.371.131-.045.186.326.36.416.174.09.991 0 1.22-.225.229-.225.272-.191.13-.517a2.396 2.396 0 01-.217-1.395V5.95a2.019 2.019 0 00-.316-1.35c-.86-1.766-6.046-1.069-5.632.427.414 1.496 1.09-.517 3.377-.236 1.23.135 1.1 1.35 1.1 2.182h-.022zM69.789 6.75h-3.737c.05-.462.254-.892.577-1.215.353-.32.796-.513 1.264-.551.244-.021.489.009.721.088.232.08.446.206.63.373.185.157.33.357.425.584.095.227.136.474.12.72zm-3.835 1.203c.272-.135 4.358 0 5.098 0 .741 0 .403-2.508-.947-3.532a3.553 3.553 0 00-3.878-.315c-.61.33-1.117.832-1.462 1.447a3.866 3.866 0 00-.489 2.03c-.026.689.13 1.373.45 1.98.32.605.794 1.11 1.37 1.461 1.209.844 4.455.8 4.858-.506.502-1.676-.675-.742-1.09-.562a3.807 3.807 0 01-1.089.28c-2.407.282-2.995-1.911-2.821-2.283zM49.603 6.75c.038-.48.25-.929.592-1.256a1.83 1.83 0 011.26-.51c.937-.101 2.026.742 1.84 1.766h-3.692zm-.186 1.125h5.055c.589 0 .49-.371.447-.833a3.693 3.693 0 00-.547-1.756 3.542 3.542 0 00-1.316-1.249 3.407 3.407 0 00-3.453.114 3.741 3.741 0 00-1.374 1.483 3.894 3.894 0 00-.424 2.005 3.616 3.616 0 00.43 1.972c.328.6.818 1.087 1.411 1.402 1.536.979 4.554.563 4.826-.55 0-.327.218-1.126-.272-.935a5.903 5.903 0 01-1.907.71 2.64 2.64 0 01-1.067-.072 2.69 2.69 0 01-.959-.491c-.392-.327-1.024-1.305-.85-1.8zM73.878 11.395c.272-.281.229-.416.229-.833V9.437c0-1.485-.273-3.948 1.394-4.32.36-.09.447.226.904.136.27-.25.473-.568.589-.923 0-.709-1.09-.844-2.081-.382-.316.146-.578.652-.806.697 0-.416.087-.596-.186-.967-.349.034-.687.146-.991.326-.447.225-.534.225-.447.787.087.563 0 4.421 0 5.344.044 1.406.044 1.361 1.395 1.26zM20.764 11.35v-.09c.127-1.143.16-2.294.098-3.443 0-.888.218-2.328 1.166-2.61.762-.28.806.462 1.307 0 1.166-1.26-.403-1.766-1.35-1.35-.949.417-.818.743-1.09.833a2.32 2.32 0 010-.551c0-.236-.098-.236-.185-.371a1.84 1.84 0 00-.992.28c-.447.18-.588.226-.447.788.096.863.125 1.732.088 2.599V10c.098 1.395-.088 1.496 1.405 1.35z" fill="#fff"/><path d="M41.083 12.845c-1.798.23-3.566.663-5.273 1.294-.533.236-1.089.371-1.623.607-1.09.417-2.113.788-3.192 1.215-.36.135-2.93.923-3.377 1.024-2.179.551-5.447 1.204-7.528.225-.991-.506-1.09 1.069 1.166 1.631a8.923 8.923 0 003.965-.18c1.09-.236 2.397-.652 3.432-.979 1.035-.326 2.255-.697 3.377-1.023.273-.101.49-.191.806-.281l1.667-.518c.316-.09.545-.225.817-.326l1.722-.416c.316-.09.544-.18.817-.282a31.688 31.688 0 016.94-.742c.577 0 1.437.146 2.026.236 1.089.135.85-.461.13-.844-1.87-.74-3.894-.96-5.872-.64z" fill="currentColor"/></g><defs><clipPath id="aclip0_281_2346"><path fill="#fff" d="M0 0h77v19H0z"/></clipPath></defs></symbol><symbol fill="none" viewBox="0 0 161 22" id="logo" xmlns="http://www.w3.org/2000/svg"><path d="M56.988 17h-10.24V.6h-5.623v20.8h15.863V17zM77.662.6H72.04v10.8c0 4.2-1.607 6-4.619 6-2.61 0-3.614-1.6-3.614-5.2V.6h-5.622v12.8c0 4.8 1.606 8.6 7.43 8.6 4.618 0 6.425-4 6.425-4h.2v3.4h5.422V.6zM91.925 21.4h5.622V10.6c0-4.2 1.285-6 3.694-6 2.209 0 2.932 1.6 2.932 5.2v11.6h5.622V8.6c0-4.8-1.405-8.6-6.626-8.6-4.217 0-6.024 4-6.024 4h-.2l-.04.04C96.1 1.6 94.293 0 90.92 0c-4.217 0-5.623 4-5.623 4h-.2V.6h-5.422v20.8h5.622V10.6c0-4.2 1.285-6 3.695-6 2.209 0 2.932 1.6 2.932 5.2v11.6zM117.418.6h-5.623v20.8h5.623V.6zM119.242 11c0 6.08 3.414 11 10.442 11 8.634 0 9.838-7.4 9.838-7.4H133.9s-.602 3.2-4.016 3.2c-3.373 0-4.738-2.4-4.979-5.6h14.778s.04-.72.04-1.2c0-6.08-3.172-11-10.039-11-6.868 0-10.442 4.92-10.442 11zm10.442-6.8c2.77 0 3.895 1.84 4.256 4.4h-8.875c.482-2.56 1.848-4.4 4.619-4.4zM141.523 21.4h5.622V10.6c0-4.2 1.606-6 4.618-6 2.61 0 3.614 1.6 3.614 5.2v11.6H161V8.6c0-4.8-1.607-8.6-7.43-8.6-4.618 0-6.425 4-6.425 4h-.201V.6h-5.421v20.8z" fill="currentColor"/><path stroke="#FF971D" stroke-width="4" d="M2 2.459h27.997V20H2z"/></symbol><symbol viewBox="0 0 56 44" id="top-filter-icon1" xmlns="http://www.w3.org/2000/svg"><path d="M3.277 3.89H1V1h53.507v2.89h-2.53m-48.7 0l.041 27.386M3.277 3.89h48.7M3.318 31.276h48.7m-48.7 0H1h26.668m24.35 0L51.977 3.89m.041 27.386h2.489-26.839m0 0v5.395m0 0l-5.259 6.96m5.259-6.96l5.303 6.96" stroke="curentColor"/><rect x="1" y="1" width="53.507" height="3.303" rx="1" fill="curentColor"/></symbol><symbol viewBox="0 0 55 41" id="top-filter-icon2" xmlns="http://www.w3.org/2000/svg"><path fill="currentColor" d="M21.031 33.641h13.666V41H21.031z"/><path fill-rule="evenodd" clip-rule="evenodd" d="M2 0a2 2 0 00-2 2v28.59a2 2 0 002 2h50.666a2 2 0 002-2V2a2 2 0 00-2-2H2zm51.61 1.05H1.047v30.487H53.61V1.051z" fill="currentColor"/></symbol><symbol viewBox="0 0 59 34" id="top-filter-icon3" xmlns="http://www.w3.org/2000/svg"><path d="M3.406 4.054H1V1h56.553v3.054h-2.674m-51.472 0L3.45 33M3.406 4.054H54.88M3.45 33h51.472M3.45 33H1h56.553-2.63m0 0l-.044-28.946" stroke="currentColor"/><rect x="1" y="1" width="56.553" height="3.491" rx="1" fill="currentColor"/></symbol><symbol viewBox="0 0 59 34" id="top-filter-icon4" xmlns="http://www.w3.org/2000/svg"><path d="M7 4.054H1V1h56.553v3.054H52m-45 0h45m-45 0V33m0 0h45M7 33H1h56.553H52m0 0V4.054" stroke="currentColor"/><path d="M6 11.5h1M4 4l.154.456A43.771 43.771 0 014 33v0" stroke="currentColor" stroke-width=".5"/><rect x="1" y="1" width="56.553" height="3.491" rx="1" fill="currentColor"/><path d="M53 11.5h-1M54.5 6H52m1.5 2.5H52M55 4l-.154.456A43.771 43.771 0 0055 33v0M53 25h-1M54.5 31H52m1.8-3H52M4.5 6H7M5.5 8.5H7M6 11.5h1M6 25h1M4.5 6H7M5.5 8.5H7M4.5 31H7m-1.8-3H7" stroke="currentColor" stroke-width=".5"/></symbol><symbol fill="none" viewBox="0 0 89 64" id="top-filter-icon5" xmlns="http://www.w3.org/2000/svg"><g clip-path="url(#gclip0_7_674)" stroke="#6C6C6C"><path d="M42.804 29.727c0-5.604-4.613-10.146-10.304-10.146-5.69 0-10.304 4.542-10.304 10.146v12.592c0 5.603 4.613 10.145 10.304 10.145 5.69 0 10.304-4.542 10.304-10.145V29.727z" stroke-linecap="round" stroke-linejoin="round"/><path d="M33.8 40.96a1.79 1.79 0 000-2.56 1.859 1.859 0 00-2.6 0 1.79 1.79 0 000 2.56 1.859 1.859 0 002.6 0zM36.09 15.902a9.376 9.376 0 00-7.137-.018m8.606-3.57a13.372 13.372 0 00-10.118 0" stroke-linecap="round" stroke-linejoin="round"/><rect x="28.036" y="25.868" width="9.112" height="7.146" rx=".5"/></g><g clip-path="url(#gclip1_7_674)" stroke="#6C6C6C"><path d="M46.214 34.353c.043 5.603 4.692 10.11 10.382 10.066 5.69-.044 10.269-4.622 10.225-10.225l-.097-12.592c-.044-5.603-4.692-10.11-10.383-10.066-5.69.044-10.268 4.622-10.225 10.225l.098 12.592z" stroke-linecap="round" stroke-linejoin="round"/><path d="M55.13 23.05a1.79 1.79 0 00.02 2.56 1.859 1.859 0 002.6-.02 1.79 1.79 0 00-.02-2.56 1.859 1.859 0 00-2.6.02zM53.036 48.126a9.377 9.377 0 007.136-.038m-8.578 3.636a13.372 13.372 0 0010.117-.078" stroke-linecap="round" stroke-linejoin="round"/><rect x="61.012" y="38.097" width="9.112" height="7.146" rx=".5" transform="rotate(179.564 61.007 38.097) skewX(-.014)"/></g><defs><clipPath id="gclip0_7_674"><path transform="matrix(.71257 -.7016 .71257 .7016 0 32)" d="M0 0h45.61v45.61H0z"/></clipPath><clipPath id="gclip1_7_674"><path transform="matrix(-.7071 .7071 -.71798 -.69606 88.999 31.748)" d="M0 0h45.61v45.61H0z"/></clipPath></defs></symbol><symbol fill="none" viewBox="0 0 47 44" id="top-filter-icon6" xmlns="http://www.w3.org/2000/svg"><g clip-path="url(#hclip0_2_346)"><path d="M34.57 28.135c4.818-4.679 4.7-12.265-.265-16.943-4.965-4.679-12.896-4.679-17.714 0L5.763 21.706c-4.818 4.679-4.7 12.265.265 16.943 4.965 4.68 12.895 4.68 17.714 0L34.57 28.135z" stroke-linecap="round" stroke-linejoin="round"/><path d="M17.782 29.04c1.007 0 1.812-.788 1.797-1.76-.015-.972-.844-1.76-1.852-1.76-1.007 0-1.812.788-1.797 1.76.015.972.844 1.76 1.852 1.76zM40.599 11.07A10.967 10.967 0 0038.1 7.544a11.53 11.53 0 00-3.713-2.354m10.578 4.095a15.648 15.648 0 00-3.56-4.989A16.446 16.446 0 0036.14.965" stroke-linecap="round" stroke-linejoin="round"/><rect x=".011" y=".694" width="8.859" height="7.067" rx=".5" transform="matrix(.73042 .69425 -.70889 .69425 24.761 14.285)"/></g><defs><clipPath id="hclip0_2_346"><path fill="#fff" transform="skewX(.888) scale(1 .99988)" d="M0 0h45.61v44.005H0z"/></clipPath></defs></symbol><symbol fill="none" viewBox="0 0 52 39" id="tv-small" xmlns="http://www.w3.org/2000/svg"><path fill="#fff" d="M20 32h13v7H20z"/><path fill-rule="evenodd" clip-rule="evenodd" d="M2 0a2 2 0 00-2 2v27a2 2 0 002 2h48a2 2 0 002-2V2a2 2 0 00-2-2H2zm49 1H1v29h50V1z" fill="#fff"/></symbol><symbol fill="none" viewBox="0 0 16 16" id="warning" xmlns="http://www.w3.org/2000/svg"><path d="M8.895 5.83V13H7.111V5.83h1.784zM7 3.96c0-.277.09-.507.272-.688C7.452 3.09 7.695 3 8 3c.3 0 .541.09.722.272.185.18.278.41.278.689a.923.923 0 01-.278.69c-.18.18-.422.27-.722.27-.305 0-.547-.09-.728-.27A.934.934 0 017 3.96z" fill="#C5C5C5"/><rect x=".5" y=".5" width="15" height="15" rx="7.5" stroke="#C5C5C5"/></symbol></svg>