<?xml version="1.0" encoding="utf-8"?><svg xmlns="http://www.w3.org/2000/svg" xmlns:xlink="http://www.w3.org/1999/xlink"><symbol viewBox="0 0 10 11" id="cross" xmlns="http://www.w3.org/2000/svg"><path d="M9.3.901L.433 9.768m0-8.867L9.3 9.768"/></symbol><symbol viewBox="0 0 11 14" id="dwnld" xmlns="http://www.w3.org/2000/svg"><path d="M2.031 12.955h7.24M5.764 9.515l-.128.128m0 0l2.186-2.186M5.636 9.643L3.45 7.458m2.185 2.185L5.638.027"/></symbol><symbol viewBox="0 0 16 16" id="dwnload" xmlns="http://www.w3.org/2000/svg"><path d="M.5 9.898a.5.5 0 01.5.5v2.5a1 1 0 001 1h12a1 1 0 001-1v-2.5a.5.5 0 011 0v2.5a2 2 0 01-2 2H2a2 2 0 01-2-2v-2.5a.5.5 0 01.5-.5z"/><path d="M7.647 11.854a.5.5 0 00.708 0l3-3a.5.5 0 10-.708-.708L8.5 10.293V1.5a.5.5 0 10-1 0v8.793L5.355 8.146a.5.5 0 10-.708.708l3 3z"/></symbol><symbol viewBox="0 0 25 24" id="fb" xmlns="http://www.w3.org/2000/svg"><path d="M14.103 20.997v-8.196h2.765l.411-3.209h-3.176V7.548c0-.926.258-1.56 1.587-1.56h1.684v-2.86c-.82-.089-1.643-.131-2.467-.128-2.444 0-4.122 1.492-4.122 4.231v2.355H8.038v3.21h2.753v8.201h3.312z"/></symbol><symbol viewBox="0 0 16 16" id="filter" xmlns="http://www.w3.org/2000/svg"><path d="M.5 13c0 .458.375.833.833.833H5.5v-1.666H1.333A.836.836 0 00.5 13zm0-10c0 .458.375.833.833.833h7.5V2.167h-7.5A.836.836 0 00.5 3zm8.333 11.667v-.834h5.834A.836.836 0 0015.5 13a.836.836 0 00-.833-.833H8.833v-.834A.836.836 0 008 10.5a.836.836 0 00-.833.833v3.334c0 .458.375.833.833.833a.836.836 0 00.833-.833zm-5-8.334v.834h-2.5A.836.836 0 00.5 8c0 .458.375.833.833.833h2.5v.834c0 .458.375.833.834.833a.836.836 0 00.833-.833V6.333a.836.836 0 00-.833-.833.836.836 0 00-.834.833zM15.5 8a.836.836 0 00-.833-.833h-7.5v1.666h7.5A.836.836 0 0015.5 8zm-4.167-2.5a.836.836 0 00.834-.833v-.834h2.5A.836.836 0 0015.5 3a.836.836 0 00-.833-.833h-2.5v-.834A.836.836 0 0011.333.5a.836.836 0 00-.833.833v3.334c0 .458.375.833.833.833z"/></symbol><symbol viewBox="0 0 24 24" id="inst" xmlns="http://www.w3.org/2000/svg"><path d="M12 8.876a3.13 3.13 0 00-3.125 3.125 3.13 3.13 0 003.124 3.124A3.13 3.13 0 0015.123 12 3.13 3.13 0 0012 8.876zm9.37 3.125c0-1.294.011-2.576-.062-3.868-.072-1.5-.414-2.83-1.511-3.928-1.1-1.099-2.428-1.439-3.928-1.512-1.294-.072-2.576-.06-3.867-.06-1.294 0-2.576-.012-3.868.06-1.5.073-2.831.415-3.928 1.512-1.1 1.1-1.439 2.428-1.512 3.928-.072 1.294-.06 2.576-.06 3.868 0 1.29-.012 2.575.06 3.867.073 1.5.415 2.83 1.512 3.928 1.1 1.099 2.428 1.439 3.928 1.512 1.294.072 2.576.06 3.867.06 1.294 0 2.576.012 3.868-.06 1.5-.073 2.83-.415 3.928-1.512 1.099-1.1 1.439-2.428 1.511-3.928.076-1.292.061-2.574.061-3.867zM12 16.808A4.8 4.8 0 017.191 12 4.8 4.8 0 0112 7.193a4.8 4.8 0 014.807 4.808A4.8 4.8 0 0112 16.808zm5.003-8.689a1.121 1.121 0 01-1.123-1.122c0-.622.502-1.123 1.123-1.123a1.121 1.121 0 01.43 2.16 1.121 1.121 0 01-.43.085z"/></symbol><symbol viewBox="0 0 22 22" id="search" xmlns="http://www.w3.org/2000/svg"><path d="M17.1 16.129l2.685 2.684a.687.687 0 01-.972.972L16.128 17.1a8.937 8.937 0 11.972-.973v.002zm-6.787 1.746a7.563 7.563 0 100-15.125 7.563 7.563 0 000 15.125z"/></symbol><symbol viewBox="0 0 24 24" id="send-email" xmlns="http://www.w3.org/2000/svg"><path d="M12 19a6.995 6.995 0 0110-6.32V6c0-1.1-.9-2-2-2H4c-1.1 0-2 .9-2 2v12c0 1.1.9 2 2 2h8.08c-.05-.33-.08-.66-.08-1zM4 6l8 5 8-5v2l-8 5-8-5V6zm13.34 16l-3.54-3.54 1.41-1.41 2.12 2.12 4.24-4.24L23 16.34 17.34 22z"/></symbol><symbol viewBox="0 0 9 13" id="shevron-left" xmlns="http://www.w3.org/2000/svg"><path d="M2.362 6.48l-.32-.32m0 0l5.453 5.453M2.042 6.16L7.495.707"/></symbol><symbol viewBox="0 0 9 13" id="shevron-right" xmlns="http://www.w3.org/2000/svg"><path d="M6.706 6.055l.32.32m0 0L1.573.922m5.453 5.453l-5.453 5.453"/></symbol><symbol viewBox="0 0 45 46" id="sizes-height" xmlns="http://www.w3.org/2000/svg"><path d="M44.5 23c0 12.437-9.86 22.5-22 22.5S.5 35.437.5 23 10.36.5 22.5.5s22 10.063 22 22.5z"/><path d="M22.604 11.643a.5.5 0 00-.708 0l-3.181 3.181a.5.5 0 10.707.708l2.828-2.829 2.828 2.829a.5.5 0 10.707-.707l-3.181-3.182zm-.708 22.712a.5.5 0 00.708 0l3.181-3.182a.5.5 0 10-.707-.707l-2.828 2.829-2.828-2.829a.5.5 0 00-.707.707l3.181 3.182zm-.146-22.359v22.006h1V11.996h-1z"/></symbol><symbol viewBox="0 0 45 46" id="sizes-width" xmlns="http://www.w3.org/2000/svg"><path d="M44.5 23c0 12.437-9.86 22.5-22 22.5S.5 35.437.5 23 10.36.5 22.5.5s22 10.063 22 22.5z"/><path d="M10.646 22.646a.5.5 0 000 .708l3.182 3.181a.5.5 0 10.708-.707L11.707 23l2.829-2.828a.5.5 0 10-.708-.707l-3.182 3.181zm22.713.708a.5.5 0 000-.708l-3.182-3.181a.5.5 0 00-.707.707L32.3 23l-2.829 2.828a.5.5 0 00.707.707l3.182-3.181zM11 23.5h22.006v-1H11v1z"/></symbol><symbol viewBox="0 0 25 24" id="tl" xmlns="http://www.w3.org/2000/svg"><path d="M20.9 3.717L3.17 10.554c-1.21.486-1.203 1.16-.222 1.462l4.552 1.42L18.032 6.79c.498-.303.953-.14.579.192l-8.533 7.7h-.002l.002.002-.314 4.692c.46 0 .663-.211.921-.46l2.211-2.15 4.599 3.397c.848.467 1.457.227 1.668-.785L22.182 5.15c.309-1.24-.473-1.8-1.282-1.434z"/></symbol><symbol viewBox="0 0 20 20" id="trash" xmlns="http://www.w3.org/2000/svg"><path d="M4.997 15.833c0 .917.75 1.667 1.667 1.667h6.667c.916 0 1.666-.75 1.666-1.667v-10h-10v10zm10.834-12.5h-2.917l-.833-.833H7.914l-.833.833H4.164V5h11.667V3.333z"/></symbol><symbol viewBox="0 0 25 24" id="wt" xmlns="http://www.w3.org/2000/svg"><path d="M2.475 22l1.352-4.968A9.954 9.954 0 012.47 12c0-5.523 4.477-10 10-10s10 4.477 10 10-4.477 10-10 10a9.953 9.953 0 01-5.03-1.355L2.475 22zM8.862 7.308a.961.961 0 00-.371.1 1.293 1.293 0 00-.294.228c-.12.113-.188.211-.261.306A2.729 2.729 0 007.37 9.62c.002.49.13.967.33 1.413.409.902 1.082 1.857 1.97 2.742.215.213.424.427.649.626a9.448 9.448 0 003.84 2.046l.569.087c.185.01.37-.004.556-.013a1.99 1.99 0 00.833-.231c.13-.067.259-.14.383-.22 0 0 .043-.028.125-.09.135-.1.218-.171.33-.288.083-.086.155-.187.21-.302.078-.163.156-.474.188-.733.024-.198.017-.306.014-.373-.004-.107-.093-.218-.19-.265l-.582-.261s-.87-.379-1.401-.621a.498.498 0 00-.177-.041.482.482 0 00-.378.127v-.002c-.005 0-.072.057-.795.933a.35.35 0 01-.368.13 1.418 1.418 0 01-.191-.066c-.124-.052-.167-.072-.252-.109l-.005-.002a6.011 6.011 0 01-1.57-1c-.126-.11-.243-.23-.363-.346a6.298 6.298 0 01-1.02-1.268l-.06-.095a.923.923 0 01-.101-.205c-.038-.147.06-.265.06-.265s.244-.266.357-.41c.094-.12.182-.244.263-.373.118-.19.155-.385.093-.536-.28-.684-.57-1.365-.868-2.041-.06-.134-.234-.23-.393-.249a4.439 4.439 0 00-.162-.016 3.385 3.385 0 00-.403.004v.001z"/></symbol></svg>