<svg width="94" height="94" viewBox="0 0 94 94" fill="none" xmlns="http://www.w3.org/2000/svg">
<circle cx="47" cy="47" r="46.5" stroke="url(#paint0_linear_731_8771)"/>
<path d="M57.9438 59.4118L55.7314 61.4559C55.6428 61.5378 55.5719 61.6357 55.5227 61.7438C55.4736 61.8519 55.4471 61.9683 55.445 62.0862C55.4428 62.2041 55.4649 62.3212 55.51 62.431C55.5552 62.5407 55.6224 62.6408 55.708 62.7257C55.7935 62.8105 55.8957 62.8784 56.0087 62.9254C56.1217 62.9725 56.2432 62.9978 56.3664 62.9999C56.4896 63.0019 56.612 62.9808 56.7266 62.9376C56.8412 62.8944 56.9459 62.83 57.0345 62.7481L60.5706 59.4782C60.7064 59.3527 60.8144 59.2023 60.8882 59.0359C60.962 58.8696 61 58.6907 61 58.51C61 58.3293 60.962 58.1504 60.8882 57.9841C60.8144 57.8177 60.7064 57.6673 60.5706 57.5418L57.0345 54.2755C56.9471 54.1885 56.8423 54.1193 56.7264 54.0719C56.6104 54.0246 56.4857 54.0001 56.3596 54C56.2335 53.9999 56.1087 54.0241 55.9927 54.0712C55.8766 54.1183 55.7717 54.1873 55.6841 54.2741C55.5966 54.361 55.5282 54.4638 55.4831 54.5765C55.4381 54.6892 55.4172 54.8094 55.4218 54.93C55.4264 55.0506 55.4563 55.1691 55.5099 55.2783C55.5634 55.3876 55.6394 55.4854 55.7333 55.5659L57.9513 57.6172H50.6878C50.4392 57.6172 50.2007 57.7117 50.0249 57.88C49.8491 58.0483 49.7504 58.2765 49.7504 58.5145C49.7504 58.7525 49.8491 58.9807 50.0249 59.149C50.2007 59.3173 50.4392 59.4118 50.6878 59.4118H57.9438ZM36.2696 61.4559L34.0571 59.41H41.3113C41.5599 59.41 41.7983 59.3155 41.9742 59.1472C42.15 58.9789 42.2487 58.7507 42.2487 58.5127C42.2487 58.2747 42.15 58.0465 41.9742 57.8782C41.7983 57.7099 41.5599 57.6154 41.3113 57.6154H34.0496L36.2677 55.5659C36.3563 55.4841 36.4273 55.3864 36.4765 55.2784C36.5257 55.1703 36.5521 55.0541 36.5544 54.9363C36.5567 54.8185 36.5347 54.7014 36.4896 54.5917C36.4446 54.482 36.3775 54.3819 36.2921 54.297C36.2066 54.2122 36.1046 54.1443 35.9917 54.0972C35.8788 54.0501 35.7574 54.0247 35.6343 54.0226C35.5112 54.0204 35.3889 54.0415 35.2743 54.0846C35.1597 54.1277 35.0551 54.1919 34.9665 54.2737L31.4303 57.5418C31.2942 57.6673 31.186 57.8179 31.112 57.9844C31.0381 58.1509 31 58.33 31 58.5109C31 58.6918 31.0381 58.8709 31.112 59.0374C31.186 59.2039 31.2942 59.3545 31.4303 59.48L34.9665 62.7463C35.0551 62.8281 35.1597 62.8924 35.2743 62.9355C35.3889 62.9785 35.5112 62.9996 35.6343 62.9974C35.7574 62.9953 35.8788 62.9699 35.9917 62.9228C36.1046 62.8757 36.2066 62.8078 36.2921 62.723C36.3775 62.6381 36.4446 62.538 36.4896 62.4283C36.5347 62.3187 36.5567 62.2016 36.5544 62.0837C36.5521 61.9659 36.5257 61.8497 36.4765 61.7417C36.4273 61.6336 36.3563 61.5359 36.2677 61.4542L36.2696 61.4559Z" fill="url(#paint1_linear_731_8771)"/>
<path d="M24.7764 31H67.366H68.2236M24.7746 31C26.9143 33.7381 29.4276 41.3369 28.6447 48.0604C28.0155 53.4652 26.1398 58.6832 24 61M68.2254 31C66.0857 33.7381 64.5724 41.3369 65.3553 48.0604C65.9845 53.4652 67.8602 58.6832 70 61" stroke="url(#paint2_linear_731_8771)" stroke-width="2" stroke-linecap="round"/>
<defs>
<linearGradient id="paint0_linear_731_8771" x1="47" y1="0" x2="47" y2="94" gradientUnits="userSpaceOnUse">
<stop stop-color="#F2BCAF"/>
<stop offset="1" stop-color="#B8ADF1"/>
</linearGradient>
<linearGradient id="paint1_linear_731_8771" x1="46" y1="54" x2="46" y2="63" gradientUnits="userSpaceOnUse">
<stop stop-color="#F2BCAF"/>
<stop offset="1" stop-color="#B8ADF1"/>
</linearGradient>
<linearGradient id="paint2_linear_731_8771" x1="46.0693" y1="31" x2="46.9318" y2="92.4247" gradientUnits="userSpaceOnUse">
<stop stop-color="#F2BCAF"/>
<stop offset="1" stop-color="#B8ADF1"/>
</linearGradient>
</defs>
</svg>
