<svg width="144" height="60" viewBox="0 0 144 60" fill="none" xmlns="http://www.w3.org/2000/svg">
<path d="M7.16406 6.53576H1.12695V1H142.999V6.53576H136.291M7.16406 6.53576L7.27326 59M7.16406 6.53576H136.291M7.27326 59H136.4M7.27326 59H1.12695H71.8368H142.999H136.4M136.4 59L136.291 6.53576" stroke="#6C6C6C" stroke-width="0.710145"/>
<rect x="1" y="1" width="141.954" height="5.65854" rx="0.710145" fill="#6C6C6C"/>
<path d="M52.8661 35.1094V24.2434L50.3735 25.7667V23.311L52.8661 21.8155H55.1371V35.1094H52.8661ZM63.2515 35.3863C62.3837 35.3863 61.6021 35.1832 60.9066 34.777C60.2173 34.3647 59.6695 33.7954 59.2633 33.0691C58.8571 32.3429 58.654 31.5089 58.654 30.5673V26.5237C58.654 25.5144 58.854 24.6373 59.2541 23.8926C59.6603 23.1479 60.2265 22.5725 60.9528 22.1663C61.6852 21.7601 62.5345 21.557 63.5008 21.557C64.1716 21.557 64.8086 21.6708 65.4118 21.8985C66.0149 22.1201 66.5504 22.4771 67.0181 22.9694L65.4118 24.5296C65.1779 24.2527 64.8917 24.0342 64.5532 23.8742C64.2208 23.7142 63.87 23.6341 63.5008 23.6341C62.9838 23.6341 62.5314 23.7572 62.1437 24.0034C61.7559 24.2434 61.4544 24.5604 61.2389 24.9543C61.0297 25.3482 60.9251 25.7698 60.9251 26.2191V28.4255L60.5189 27.9824C60.9004 27.5392 61.359 27.1946 61.8944 26.9484C62.4299 26.6961 62.9899 26.5699 63.5746 26.5699C64.4116 26.5699 65.1502 26.7607 65.7903 27.1423C66.4303 27.5177 66.935 28.0347 67.3043 28.6932C67.6736 29.3456 67.8582 30.0903 67.8582 30.9273C67.8582 31.7582 67.6459 32.5121 67.2212 33.1891C66.8027 33.86 66.2457 34.3954 65.5502 34.7955C64.8548 35.1894 64.0885 35.3863 63.2515 35.3863ZM63.2515 33.2538C63.6823 33.2538 64.0762 33.1522 64.4332 32.9491C64.7901 32.7399 65.0733 32.4598 65.2825 32.109C65.4979 31.752 65.6056 31.3582 65.6056 30.9273C65.6056 30.4965 65.501 30.1026 65.2917 29.7457C65.0825 29.3887 64.7994 29.1056 64.4424 28.8963C64.0916 28.6809 63.7008 28.5732 63.27 28.5732C62.8391 28.5732 62.4452 28.6809 62.0883 28.8963C61.7313 29.1056 61.4482 29.3887 61.2389 29.7457C61.0297 30.1026 60.9251 30.4965 60.9251 30.9273C60.9251 31.3458 61.0266 31.7336 61.2297 32.0905C61.439 32.4414 61.719 32.7245 62.0698 32.9399C62.4268 33.1491 62.8207 33.2538 63.2515 33.2538ZM70.8603 33.9092V31.629H73.1406V33.9092H70.8603ZM70.8788 28.6194V26.3391H73.159V28.6194H70.8788ZM78.7586 35.1094V24.2434L76.266 25.7667V23.311L78.7586 21.8155H81.0297V35.1094H78.7586ZM89.3287 35.3863C88.387 35.3863 87.5562 35.1863 86.8361 34.7863C86.116 34.3801 85.5528 33.8169 85.1466 33.0968C84.7466 32.3767 84.5466 31.5459 84.5466 30.6042V26.3206C84.5466 25.379 84.7466 24.5481 85.1466 23.828C85.5528 23.1079 86.116 22.5479 86.8361 22.1478C87.5562 21.7416 88.387 21.5385 89.3287 21.5385C90.2703 21.5385 91.0981 21.7416 91.8121 22.1478C92.5321 22.5479 93.0953 23.1079 93.5015 23.828C93.9077 24.5481 94.1108 25.379 94.1108 26.3206V30.6042C94.1108 31.5459 93.9077 32.3767 93.5015 33.0968C93.0953 33.8169 92.5321 34.3801 91.8121 34.7863C91.0981 35.1863 90.2703 35.3863 89.3287 35.3863ZM89.3287 33.2722C89.7964 33.2722 90.2211 33.1614 90.6027 32.9399C90.9843 32.7122 91.2858 32.4106 91.5074 32.0352C91.729 31.6536 91.8398 31.2289 91.8398 30.7612V26.1544C91.8398 25.6805 91.729 25.2559 91.5074 24.8804C91.2858 24.4989 90.9843 24.1973 90.6027 23.9757C90.2211 23.748 89.7964 23.6341 89.3287 23.6341C88.8609 23.6341 88.4363 23.748 88.0547 23.9757C87.6731 24.1973 87.3715 24.4989 87.15 24.8804C86.9284 25.2559 86.8176 25.6805 86.8176 26.1544V30.7612C86.8176 31.2289 86.9284 31.6536 87.15 32.0352C87.3715 32.4106 87.6731 32.7122 88.0547 32.9399C88.4363 33.1614 88.8609 33.2722 89.3287 33.2722Z" fill="black"/>
</svg>
