<?xml version="1.0" standalone="no"?>
<!DOCTYPE svg PUBLIC "-//W3C//DTD SVG 20010904//EN"
 "http://www.w3.org/TR/2001/REC-SVG-20010904/DTD/svg10.dtd">
<svg version="1.0" xmlns="http://www.w3.org/2000/svg"
 width="1024.000000pt" height="1024.000000pt" viewBox="0 0 1024.000000 1024.000000"
 preserveAspectRatio="xMidYMid meet">
<metadata>
Created by potrace 1.14, written by Peter Selinger 2001-2017
</metadata>
<g transform="translate(0.000000,1024.000000) scale(0.100000,-0.100000)"
fill="#000000" stroke="none">
<path d="M17 8652 c-16 -3 -17 -229 -15 -3455 l3 -3452 5115 0 5115 0 2 3455
2 3455 -5103 0 c-2806 0 -5110 -1 -5119 -3z m8941 -1313 c3 -47 3 -58 0 -101
-2 -21 0 -38 4 -38 4 0 3 -11 -2 -24 -5 -13 -7 -26 -4 -29 5 -4 6 -57 2 -133
-1 -22 1 -45 5 -50 3 -5 2 -16 -2 -22 -4 -7 -5 -33 -1 -57 4 -25 4 -45 1 -45
-3 0 -6 -27 -6 -60 0 -33 3 -60 7 -60 4 0 3 -11 -2 -24 -5 -13 -7 -26 -4 -29
5 -4 6 -57 2 -133 -1 -22 1 -45 5 -50 3 -5 2 -16 -2 -22 -4 -7 -5 -33 -1 -57
4 -25 4 -45 1 -45 -8 0 -6 -64 2 -76 3 -6 2 -15 -1 -22 -4 -6 -6 -30 -4 -54 2
-24 3 -49 3 -55 -1 -7 -1 -31 -1 -53 0 -22 0 -47 0 -55 0 -8 0 -32 0 -52 -1
-21 -1 -51 0 -68 0 -16 -1 -49 -2 -73 -2 -23 1 -42 5 -42 5 0 5 -5 1 -11 -4
-6 -6 -33 -5 -60 1 -27 1 -56 1 -64 0 -8 0 -33 0 -55 0 -22 0 -48 0 -57 0 -10
0 -40 0 -68 1 -27 1 -56 1 -62 -1 -7 -1 -31 -1 -53 0 -52 0 -65 -1 -122 0 -26
2 -52 6 -58 3 -5 3 -10 -2 -10 -4 0 -7 -28 -6 -62 3 -82 3 -144 1 -194 -1 -22
1 -45 5 -50 3 -5 2 -16 -2 -22 -4 -7 -5 -33 -1 -57 4 -25 4 -45 1 -45 -3 0 -6
-27 -6 -60 0 -33 3 -60 7 -60 4 0 3 -11 -2 -24 -5 -13 -7 -26 -4 -29 5 -4 6
-57 2 -133 -1 -22 1 -45 5 -50 3 -5 2 -16 -2 -22 -4 -7 -5 -33 -1 -57 4 -25 4
-45 1 -45 -3 0 -6 -27 -6 -60 0 -33 3 -60 7 -60 4 0 3 -11 -2 -24 -5 -13 -7
-26 -4 -29 5 -4 6 -57 2 -133 -1 -22 1 -45 5 -50 3 -5 2 -16 -2 -22 -4 -7 -5
-33 -1 -57 4 -25 4 -45 1 -45 -8 0 -6 -64 2 -76 3 -6 2 -15 -1 -22 -4 -6 -6
-30 -4 -54 2 -24 3 -49 3 -55 -1 -7 -1 -31 -1 -53 0 -22 0 -48 0 -57 0 -10 0
-40 0 -68 1 -27 1 -56 1 -62 -1 -7 -1 -31 -1 -53 0 -22 0 -47 0 -55 0 -8 0
-33 0 -55 0 -22 -1 -55 0 -72 0 -18 -1 -46 -3 -63 l-2 -30 -3835 0 c-2203 0
-3838 3 -3841 8 -4 5 -3 24 1 43 4 19 4 36 0 39 -4 2 -4 23 0 45 4 22 4 40 0
40 -4 0 -4 18 0 40 4 22 4 40 0 40 -4 0 -4 18 0 40 4 22 4 40 0 40 -4 0 -4 18
0 40 4 22 4 40 0 40 -4 0 -4 18 0 40 4 22 4 40 0 40 -4 0 -4 18 0 40 4 22 4
40 0 40 -4 0 -4 18 0 40 4 22 4 40 0 40 -4 0 -4 18 0 40 4 23 3 40 -2 40 -5 0
-6 5 -2 11 8 13 7 185 -1 198 -3 6 -1 12 4 15 4 3 5 24 1 46 -4 22 -4 43 0 45
4 3 4 20 0 39 -4 19 -4 39 0 46 4 7 4 27 0 45 -4 18 -4 38 0 45 4 7 4 27 0 45
-4 18 -4 38 -1 44 4 6 4 36 1 67 -3 30 -3 57 1 59 3 3 3 23 -1 45 -4 22 -4 43
0 45 4 3 4 20 0 39 -4 19 -4 39 0 46 4 7 4 27 0 45 -4 18 -4 38 0 45 4 7 4 27
0 45 -4 18 -4 38 -1 44 4 6 4 36 1 67 -3 30 -3 57 1 59 3 3 3 23 -1 45 -4 22
-4 43 0 45 4 3 4 20 0 39 -4 19 -4 39 0 46 4 7 4 27 0 45 -4 18 -4 38 0 45 4
7 4 27 0 45 -4 18 -4 38 -1 44 4 6 4 36 1 67 -3 30 -3 57 1 59 3 3 3 23 -1 45
-4 22 -4 43 0 45 4 3 4 20 0 39 -4 19 -4 39 0 46 4 7 4 27 0 45 -4 18 -4 38 0
45 4 7 4 27 0 45 -4 18 -4 38 -1 44 4 6 4 36 1 67 -3 30 -3 57 1 59 3 3 3 23
-1 45 -4 22 -4 43 0 45 4 3 4 20 0 39 -4 19 -4 39 0 46 4 7 4 27 0 45 -4 18
-4 38 0 45 4 7 4 27 0 45 -4 18 -4 39 1 46 4 7 6 17 3 21 -8 12 -7 174 0 187
4 6 3 11 -2 11 -5 0 -6 17 -2 40 4 22 4 40 0 40 -4 0 -4 18 0 40 4 22 4 40 0
40 -4 0 -4 18 0 40 4 22 4 40 0 40 -4 0 -4 18 0 40 4 22 4 40 0 40 -4 0 -4 18
0 40 4 22 4 40 0 40 -4 0 -4 18 0 40 4 22 4 40 0 40 -4 0 -4 18 0 40 4 22 4
40 0 40 -4 0 -4 18 0 40 4 22 4 40 0 40 -4 0 -4 18 0 40 4 22 4 40 0 40 -4 0
-4 18 0 40 4 22 4 40 0 40 -4 0 -4 18 0 40 4 22 5 41 1 41 -59 11 651 14 3863
13 l3811 0 3 -35z"/>
</g>
</svg>
