<svg width="966" height="132" viewBox="0 0 966 132" fill="none" xmlns="http://www.w3.org/2000/svg">
<path d="M341.921 101.997H280.479V3.5999H246.746V128.397H341.921V101.997Z" fill="white"/>
<path d="M465.963 3.5999H432.23V68.3982C432.23 93.5975 422.592 104.397 404.521 104.397C388.859 104.397 382.836 94.7975 382.836 73.1981V3.5999H349.103V80.3979C349.103 109.197 358.741 131.997 393.678 131.997C421.388 131.997 432.23 107.997 432.23 107.997H433.435V128.397H465.963V3.5999Z" fill="white"/>
<path d="M551.538 128.397H585.271V63.5983C585.271 38.399 592.982 27.5993 607.439 27.5993C620.691 27.5993 625.028 37.199 625.028 58.7985V128.397H658.761V51.5986C658.761 22.7994 650.328 0 619.004 0C593.704 0 582.862 23.9994 582.862 23.9994H581.657L581.416 24.2394C576.597 9.59975 565.754 0 545.514 0C520.215 0 511.781 23.9994 511.781 23.9994H510.577V3.5999H478.049V128.397H511.781V63.5983C511.781 38.399 519.492 27.5993 533.949 27.5993C547.201 27.5993 551.538 37.199 551.538 58.7985V128.397Z" fill="white"/>
<path d="M704.494 3.5999H670.761V128.397H704.494V3.5999Z" fill="white"/>
<path d="M715.441 65.9983C715.441 102.477 735.921 131.997 778.088 131.997C829.892 131.997 837.12 87.5977 837.12 87.5977H803.387C803.387 87.5977 799.773 106.797 779.292 106.797C759.053 106.797 750.86 92.3976 749.415 73.1981H838.084C838.084 73.1981 838.325 68.8782 838.325 65.9983C838.325 29.5192 819.29 0 778.088 0C736.885 0 715.441 29.5192 715.441 65.9983ZM778.088 25.1993C794.713 25.1993 801.46 36.2391 803.628 51.5986H750.378C753.27 36.2391 761.462 25.1993 778.088 25.1993Z" fill="white"/>
<path d="M849.121 128.397H882.854V63.5983C882.854 38.399 892.492 27.5993 910.563 27.5993C926.225 27.5993 932.248 37.199 932.248 58.7985V128.397H965.981V51.5986C965.981 22.7994 956.343 0 921.406 0C893.696 0 882.854 23.9994 882.854 23.9994H881.649V3.5999H849.121V128.397Z" fill="white"/>
<rect x="11" y="13.7539" width="169.98" height="107.247" stroke="#FF971D" stroke-width="22"/>
</svg>
