<svg width="89" height="60" viewBox="0 0 89 60" fill="none" xmlns="http://www.w3.org/2000/svg">
<path d="M4.93165 6.53576H1.24219V1H87.9447V6.53576H83.8453M4.93165 6.53576L4.99839 59M4.93165 6.53576H83.8453M4.99839 59H83.912M4.99839 59H1.24219H44.4552H87.9447H83.912M83.912 59L83.8453 6.53576" stroke="#6C6C6C" stroke-width="0.710145"/>
<rect x="1" y="1" width="86.7525" height="5.65854" rx="0.710145" fill="#6C6C6C"/>
<path d="M35.4515 35.3586C34.7868 35.3586 34.159 35.2294 33.5682 34.9709C32.9773 34.7124 32.4634 34.3462 32.0264 33.8723C31.5956 33.3984 31.2848 32.8383 31.094 32.1921L33.245 31.6105C33.3989 32.1398 33.6789 32.5491 34.0852 32.8383C34.4975 33.1214 34.9499 33.2599 35.4422 33.2538C35.8792 33.2538 36.27 33.1522 36.6147 32.9491C36.9593 32.746 37.2301 32.4721 37.4271 32.1275C37.624 31.7767 37.7225 31.3858 37.7225 30.955C37.7225 30.2965 37.5102 29.7457 37.0855 29.3025C36.6608 28.8594 36.1131 28.6378 35.4422 28.6378C35.2391 28.6378 35.0391 28.6655 34.8422 28.7209C34.6514 28.7763 34.4667 28.8532 34.2883 28.9517L33.2727 27.1976L37.741 23.3757L37.9348 23.9111H31.611V21.8155H39.7628V23.9203L36.1716 27.3731L36.1531 26.7176C36.9593 26.773 37.6456 26.9976 38.2118 27.3915C38.7842 27.7854 39.2212 28.2932 39.5227 28.9148C39.8305 29.5364 39.9843 30.2165 39.9843 30.955C39.9843 31.7921 39.7781 32.5429 39.3658 33.2076C38.9596 33.8723 38.4118 34.3985 37.7225 34.7863C37.0394 35.1678 36.2823 35.3586 35.4515 35.3586ZM43.1149 33.9092V31.629H45.3952V33.9092H43.1149ZM43.1334 28.6194V26.3391H45.4137V28.6194H43.1334ZM54.2259 35.1094V32.9122H48.336V30.835L52.5919 21.8155H55.1307L50.8748 30.835H54.2259V27.3731H56.4785V30.835H57.7248V32.9122H56.4785V35.1094H54.2259Z" fill="black"/>
</svg>
