<svg width="22" height="22" viewBox="0 0 22 22" fill="none" xmlns="http://www.w3.org/2000/svg">
<path d="M17.0996 16.1289L19.785 18.8129C19.9102 18.9425 19.9795 19.1162 19.9779 19.2964C19.9764 19.4767 19.9041 19.6491 19.7766 19.7766C19.6491 19.9041 19.4767 19.9764 19.2964 19.9779C19.1162 19.9795 18.9425 19.9102 18.8129 19.785L16.1275 17.0996C14.3727 18.6031 12.1037 19.3685 9.79673 19.2351C7.48976 19.1018 5.32411 18.08 3.7542 16.3844C2.1843 14.6887 1.33218 12.4509 1.37666 10.1405C1.42113 7.8301 2.35874 5.62673 3.99273 3.99273C5.62673 2.35874 7.8301 1.42113 10.1405 1.37666C12.4509 1.33218 14.6887 2.1843 16.3844 3.7542C18.08 5.32411 19.1018 7.48976 19.2351 9.79673C19.3685 12.1037 18.6031 14.3727 17.0996 16.1275V16.1289ZM10.3126 17.8751C12.3183 17.8751 14.2419 17.0783 15.6601 15.6601C17.0783 14.2419 17.8751 12.3183 17.8751 10.3126C17.8751 8.30691 17.0783 6.38336 15.6601 4.96512C14.2419 3.54687 12.3183 2.75011 10.3126 2.75011C8.30691 2.75011 6.38336 3.54687 4.96512 4.96512C3.54687 6.38336 2.75011 8.30691 2.75011 10.3126C2.75011 12.3183 3.54687 14.2419 4.96512 15.6601C6.38336 17.0783 8.30691 17.8751 10.3126 17.8751Z" fill="black"/>
</svg>
