<svg width="45" height="46" viewBox="0 0 45 46" fill="none" xmlns="http://www.w3.org/2000/svg">
<path d="M44.5 23C44.5 35.4368 34.64 45.5 22.5 45.5C10.36 45.5 0.5 35.4368 0.5 23C0.5 10.5632 10.36 0.5 22.5 0.5C34.64 0.5 44.5 10.5632 44.5 23Z" stroke="#626262"/>
<path d="M22.6036 11.6425C22.4083 11.4473 22.0917 11.4473 21.8964 11.6425L18.7145 14.8245C18.5192 15.0198 18.5192 15.3364 18.7145 15.5316C18.9097 15.7269 19.2263 15.7269 19.4216 15.5316L22.25 12.7032L25.0784 15.5316C25.2737 15.7269 25.5903 15.7269 25.7855 15.5316C25.9808 15.3364 25.9808 15.0198 25.7855 14.8245L22.6036 11.6425ZM21.8964 34.3553C22.0917 34.5506 22.4083 34.5506 22.6036 34.3553L25.7855 31.1733C25.9808 30.9781 25.9808 30.6615 25.7855 30.4662C25.5903 30.271 25.2737 30.271 25.0784 30.4662L22.25 33.2947L19.4216 30.4662C19.2263 30.271 18.9097 30.271 18.7145 30.4662C18.5192 30.6615 18.5192 30.9781 18.7145 31.1733L21.8964 34.3553ZM21.75 11.9961V34.0018H22.75V11.9961H21.75Z" fill="#626262"/>
</svg>
