<svg width="45" height="46" viewBox="0 0 45 46" fill="none" xmlns="http://www.w3.org/2000/svg">
<path d="M44.5 23C44.5 35.4368 34.64 45.5 22.5 45.5C10.36 45.5 0.5 35.4368 0.5 23C0.5 10.5632 10.36 0.5 22.5 0.5C34.64 0.5 44.5 10.5632 44.5 23Z" stroke="#626262"/>
<path d="M10.6464 22.6464C10.4512 22.8417 10.4512 23.1583 10.6464 23.3536L13.8284 26.5355C14.0237 26.7308 14.3403 26.7308 14.5355 26.5355C14.7308 26.3403 14.7308 26.0237 14.5355 25.8284L11.7071 23L14.5355 20.1716C14.7308 19.9763 14.7308 19.6597 14.5355 19.4645C14.3403 19.2692 14.0237 19.2692 13.8284 19.4645L10.6464 22.6464ZM33.3592 23.3536C33.5545 23.1583 33.5545 22.8417 33.3592 22.6464L30.1773 19.4645C29.982 19.2692 29.6654 19.2692 29.4701 19.4645C29.2749 19.6597 29.2749 19.9763 29.4701 20.1716L32.2986 23L29.4701 25.8284C29.2749 26.0237 29.2749 26.3403 29.4701 26.5355C29.6654 26.7308 29.982 26.7308 30.1773 26.5355L33.3592 23.3536ZM11 23.5L33.0057 23.5V22.5L11 22.5V23.5Z" fill="#626262"/>
</svg>
