<svg width="25" height="24" viewBox="0 0 25 24" fill="none" xmlns="http://www.w3.org/2000/svg">
<path d="M2.47472 22L3.82672 17.032C2.93585 15.5049 2.46781 13.768 2.47072 12C2.47072 6.477 6.94772 2 12.4707 2C17.9937 2 22.4707 6.477 22.4707 12C22.4707 17.523 17.9937 22 12.4707 22C10.7035 22.0029 8.96737 21.5352 7.44072 20.645L2.47472 22ZM8.86172 7.308C8.73258 7.31602 8.60639 7.35003 8.49072 7.408C8.38224 7.46943 8.28321 7.54622 8.19672 7.636C8.07672 7.749 8.00872 7.847 7.93572 7.942C7.56613 8.423 7.36733 9.01342 7.37072 9.62C7.37272 10.11 7.50072 10.587 7.70072 11.033C8.10972 11.935 8.78272 12.89 9.67172 13.775C9.88572 13.988 10.0947 14.202 10.3197 14.401C11.4231 15.3725 12.738 16.073 14.1597 16.447L14.7287 16.534C14.9137 16.544 15.0987 16.53 15.2847 16.521C15.576 16.506 15.8603 16.4271 16.1177 16.29C16.2487 16.2225 16.3765 16.1491 16.5007 16.07C16.5007 16.07 16.5437 16.042 16.6257 15.98C16.7607 15.88 16.8437 15.809 16.9557 15.692C17.0387 15.606 17.1107 15.505 17.1657 15.39C17.2437 15.227 17.3217 14.916 17.3537 14.657C17.3777 14.459 17.3707 14.351 17.3677 14.284C17.3637 14.177 17.2747 14.066 17.1777 14.019L16.5957 13.758C16.5957 13.758 15.7257 13.379 15.1947 13.137C15.1387 13.1126 15.0787 13.0987 15.0177 13.096C14.9493 13.089 14.8802 13.0967 14.815 13.1186C14.7498 13.1405 14.69 13.1761 14.6397 13.223V13.221C14.6347 13.221 14.5677 13.278 13.8447 14.154C13.8032 14.2098 13.7461 14.2519 13.6805 14.2751C13.615 14.2982 13.544 14.3013 13.4767 14.284C13.4116 14.2666 13.3477 14.2445 13.2857 14.218C13.1617 14.166 13.1187 14.146 13.0337 14.109L13.0287 14.107C12.4566 13.8572 11.9269 13.5198 11.4587 13.107C11.3327 12.997 11.2157 12.877 11.0957 12.761C10.7023 12.3842 10.3594 11.958 10.0757 11.493L10.0167 11.398C9.97434 11.3342 9.94008 11.2653 9.91472 11.193C9.87672 11.046 9.97572 10.928 9.97572 10.928C9.97572 10.928 10.2187 10.662 10.3317 10.518C10.4258 10.3983 10.5136 10.2738 10.5947 10.145C10.7127 9.955 10.7497 9.76 10.6877 9.609C10.4077 8.925 10.1177 8.244 9.81972 7.568C9.76072 7.434 9.58572 7.338 9.42672 7.319C9.37272 7.313 9.31872 7.307 9.26472 7.303C9.13042 7.29633 8.99585 7.29766 8.86172 7.307V7.308Z" fill="white"/>
</svg>
