<svg width="167" height="88" viewBox="0 0 167 88" fill="none" xmlns="http://www.w3.org/2000/svg">
<path d="M7.98755 9.2082H0.964844V1H165.999V9.2082H158.196M7.98755 9.2082L8.11458 87M7.98755 9.2082H158.196M8.11458 87H158.323M8.11458 87H0.964844H83.2186H165.999H158.323M158.323 87L158.196 9.2082" stroke="#6C6C6C"/>
<rect x="0.816406" y="1" width="165.129" height="8.39024" rx="1" fill="#6C6C6C"/>
<path d="M62.07 56V40.699L58.56 42.844V39.386L62.07 37.28H65.268V56H62.07ZM76.6944 56.39C75.4724 56.39 74.3717 56.104 73.3924 55.532C72.4217 54.9513 71.6504 54.1497 71.0784 53.127C70.5064 52.1043 70.2204 50.93 70.2204 49.604V43.91C70.2204 42.4887 70.5021 41.2537 71.0654 40.205C71.6374 39.1563 72.4347 38.346 73.4574 37.774C74.4887 37.202 75.6847 36.916 77.0454 36.916C77.9901 36.916 78.8871 37.0763 79.7364 37.397C80.5857 37.709 81.3397 38.2117 81.9984 38.905L79.7364 41.102C79.4071 40.712 79.0041 40.4043 78.5274 40.179C78.0594 39.9537 77.5654 39.841 77.0454 39.841C76.3174 39.841 75.6804 40.0143 75.1344 40.361C74.5884 40.699 74.1637 41.1453 73.8604 41.7C73.5657 42.2547 73.4184 42.8483 73.4184 43.481V46.588L72.8464 45.964C73.3837 45.34 74.0294 44.8547 74.7834 44.508C75.5374 44.1527 76.3261 43.975 77.1494 43.975C78.3281 43.975 79.3681 44.2437 80.2694 44.781C81.1707 45.3097 81.8814 46.0377 82.4014 46.965C82.9214 47.8837 83.1814 48.9323 83.1814 50.111C83.1814 51.281 82.8824 52.3427 82.2844 53.296C81.6951 54.2407 80.9107 54.9947 79.9314 55.558C78.9521 56.1127 77.8731 56.39 76.6944 56.39ZM76.6944 53.387C77.3011 53.387 77.8557 53.244 78.3584 52.958C78.8611 52.6633 79.2597 52.269 79.5544 51.775C79.8577 51.2723 80.0094 50.7177 80.0094 50.111C80.0094 49.5043 79.8621 48.9497 79.5674 48.447C79.2727 47.9443 78.8741 47.5457 78.3714 47.251C77.8774 46.9477 77.3271 46.796 76.7204 46.796C76.1137 46.796 75.5591 46.9477 75.0564 47.251C74.5537 47.5457 74.1551 47.9443 73.8604 48.447C73.5657 48.9497 73.4184 49.5043 73.4184 50.111C73.4184 50.7003 73.5614 51.2463 73.8474 51.749C74.1421 52.243 74.5364 52.6417 75.0304 52.945C75.5331 53.2397 76.0877 53.387 76.6944 53.387ZM87.4088 54.31V51.099H90.6198V54.31H87.4088ZM87.4348 46.861V43.65H90.6458V46.861H87.4348ZM101.326 36.916C102.548 36.916 103.649 37.2063 104.628 37.787C105.607 38.359 106.379 39.1563 106.942 40.179C107.514 41.193 107.8 42.363 107.8 43.689V49.396C107.8 50.8087 107.514 52.0437 106.942 53.101C106.379 54.1497 105.586 54.96 104.563 55.532C103.54 56.104 102.344 56.39 100.975 56.39C100.03 56.39 99.1376 56.2297 98.2969 55.909C97.4563 55.5797 96.7023 55.077 96.0349 54.401L98.2839 52.204C98.6219 52.594 99.0249 52.9017 99.4929 53.127C99.9696 53.3437 100.464 53.452 100.975 53.452C101.703 53.452 102.34 53.283 102.886 52.945C103.432 52.5983 103.857 52.152 104.16 51.606C104.463 51.0513 104.615 50.4577 104.615 49.825V46.718L105.174 47.342C104.645 47.966 104.004 48.4557 103.25 48.811C102.496 49.1577 101.703 49.331 100.871 49.331C99.7009 49.331 98.6609 49.0623 97.7509 48.525C96.8496 47.9877 96.1389 47.2597 95.6189 46.341C95.1076 45.4137 94.8519 44.365 94.8519 43.195C94.8519 42.025 95.1466 40.9677 95.7359 40.023C96.3253 39.0697 97.1096 38.3157 98.0889 37.761C99.0769 37.1977 100.156 36.916 101.326 36.916ZM101.326 39.906C100.719 39.906 100.165 40.0533 99.6619 40.348C99.1593 40.6427 98.7606 41.0413 98.4659 41.544C98.1713 42.038 98.0239 42.5883 98.0239 43.195C98.0239 43.8017 98.1669 44.3563 98.4529 44.859C98.7476 45.3617 99.1419 45.7603 99.6359 46.055C100.139 46.3497 100.693 46.497 101.3 46.497C101.907 46.497 102.461 46.3497 102.964 46.055C103.467 45.7603 103.865 45.3617 104.16 44.859C104.463 44.3563 104.615 43.8017 104.615 43.195C104.615 42.6057 104.468 42.064 104.173 41.57C103.878 41.0673 103.48 40.6643 102.977 40.361C102.483 40.0577 101.933 39.906 101.326 39.906Z" fill="black"/>
</svg>
