<svg width="871" height="214" viewBox="0 0 871 214" fill="none" xmlns="http://www.w3.org/2000/svg">
<path d="M113.34 27H110.22V20.461H105.384L104.045 20.344C102.45 20.084 101.267 19.408 100.496 18.316C99.7247 17.2153 99.339 15.9023 99.339 14.377C99.339 13.3457 99.5123 12.4097 99.859 11.569C100.206 10.7197 100.73 10.0177 101.432 9.463C102.134 8.90833 103.027 8.54867 104.11 8.384C104.361 8.34067 104.626 8.31467 104.903 8.306C105.189 8.28867 105.423 8.28 105.605 8.28H113.34V27ZM102.589 27H99.04L103.096 18.68L106.281 19.382L102.589 27ZM110.22 17.536V11.218H105.735C105.562 11.218 105.367 11.2267 105.15 11.244C104.933 11.2527 104.734 11.283 104.552 11.335C104.032 11.465 103.62 11.6947 103.317 12.024C103.022 12.3533 102.814 12.7303 102.693 13.155C102.572 13.571 102.511 13.9783 102.511 14.377C102.511 14.7757 102.572 15.183 102.693 15.599C102.814 16.015 103.022 16.3877 103.317 16.717C103.62 17.0463 104.032 17.276 104.552 17.406C104.734 17.458 104.933 17.4927 105.15 17.51C105.367 17.5273 105.562 17.536 105.735 17.536H110.22ZM123.731 27.39C122.362 27.39 121.213 27.065 120.286 26.415C119.359 25.765 118.661 24.881 118.193 23.763C117.725 22.6363 117.491 21.3753 117.491 19.98C117.491 18.5673 117.725 17.302 118.193 16.184C118.661 15.066 119.346 14.1863 120.247 13.545C121.157 12.895 122.279 12.57 123.614 12.57C124.94 12.57 126.088 12.895 127.059 13.545C128.038 14.1863 128.797 15.066 129.334 16.184C129.871 17.2933 130.14 18.5587 130.14 19.98C130.14 21.384 129.876 22.645 129.347 23.763C128.818 24.881 128.073 25.765 127.111 26.415C126.149 27.065 125.022 27.39 123.731 27.39ZM116.958 33.24V12.96H119.727V22.814H120.117V33.24H116.958ZM123.25 24.582C124.065 24.582 124.736 24.3783 125.265 23.971C125.794 23.5637 126.184 23.0133 126.435 22.32C126.695 21.618 126.825 20.838 126.825 19.98C126.825 19.1307 126.695 18.3593 126.435 17.666C126.175 16.964 125.772 16.4093 125.226 16.002C124.68 15.586 123.987 15.378 123.146 15.378C122.349 15.378 121.699 15.573 121.196 15.963C120.693 16.3443 120.321 16.8817 120.078 17.575C119.844 18.2597 119.727 19.0613 119.727 19.98C119.727 20.89 119.844 21.6917 120.078 22.385C120.321 23.0783 120.698 23.62 121.209 24.01C121.729 24.3913 122.409 24.582 123.25 24.582ZM132.98 27L133.006 12.96H136.178V19.72L141.313 12.96H145.226L139.779 19.98L145.694 27H141.547L136.178 20.24V27H132.98ZM152.943 27.39C151.539 27.39 150.313 27.0737 149.264 26.441C148.215 25.8083 147.401 24.9373 146.82 23.828C146.248 22.71 145.962 21.4273 145.962 19.98C145.962 18.5067 146.257 17.2153 146.846 16.106C147.435 14.9967 148.254 14.13 149.303 13.506C150.352 12.882 151.565 12.57 152.943 12.57C154.356 12.57 155.586 12.8863 156.635 13.519C157.684 14.1517 158.498 15.027 159.079 16.145C159.66 17.2543 159.95 18.5327 159.95 19.98C159.95 21.436 159.655 22.723 159.066 23.841C158.485 24.9503 157.671 25.8213 156.622 26.454C155.573 27.078 154.347 27.39 152.943 27.39ZM152.943 24.452C154.191 24.452 155.118 24.036 155.725 23.204C156.332 22.372 156.635 21.2973 156.635 19.98C156.635 18.6193 156.327 17.536 155.712 16.73C155.097 15.9153 154.174 15.508 152.943 15.508C152.102 15.508 151.409 15.6987 150.863 16.08C150.326 16.4527 149.927 16.977 149.667 17.653C149.407 18.3203 149.277 19.096 149.277 19.98C149.277 21.3407 149.585 22.4283 150.2 23.243C150.824 24.049 151.738 24.452 152.943 24.452ZM168.911 27.39C167.464 27.39 166.229 27.0693 165.206 26.428C164.183 25.778 163.399 24.894 162.853 23.776C162.316 22.658 162.043 21.3927 162.034 19.98C162.043 18.5413 162.324 17.2673 162.879 16.158C163.442 15.04 164.24 14.1647 165.271 13.532C166.302 12.8907 167.529 12.57 168.95 12.57C170.545 12.57 171.892 12.973 172.993 13.779C174.102 14.5763 174.826 15.6683 175.164 17.055L172.044 17.9C171.801 17.146 171.398 16.561 170.835 16.145C170.272 15.7203 169.63 15.508 168.911 15.508C168.096 15.508 167.425 15.703 166.896 16.093C166.367 16.4743 165.977 17.003 165.726 17.679C165.475 18.355 165.349 19.122 165.349 19.98C165.349 21.3147 165.648 22.3937 166.246 23.217C166.844 24.0403 167.732 24.452 168.911 24.452C169.743 24.452 170.397 24.2613 170.874 23.88C171.359 23.4987 171.723 22.9483 171.966 22.229L175.164 22.944C174.731 24.374 173.972 25.4747 172.889 26.246C171.806 27.0087 170.48 27.39 168.911 27.39ZM181.216 27V15.742H176.523V12.96H189.042V15.742H184.349V27H181.216ZM191.493 27L191.48 12.96H194.613V17.64H197.135C197.525 17.64 197.962 17.6487 198.448 17.666C198.942 17.6833 199.353 17.7223 199.683 17.783C200.471 17.9563 201.143 18.2337 201.698 18.615C202.261 18.9963 202.69 19.4947 202.985 20.11C203.279 20.7253 203.427 21.4663 203.427 22.333C203.427 23.5723 203.106 24.5647 202.465 25.31C201.832 26.0467 200.939 26.5493 199.787 26.818C199.44 26.896 199.015 26.948 198.513 26.974C198.019 26.9913 197.572 27 197.174 27H191.493ZM194.613 24.543H197.447C197.637 24.543 197.85 24.5343 198.084 24.517C198.318 24.4997 198.543 24.4607 198.76 24.4C199.15 24.296 199.492 24.062 199.787 23.698C200.09 23.3253 200.242 22.8703 200.242 22.333C200.242 21.7697 200.09 21.306 199.787 20.942C199.483 20.578 199.111 20.3397 198.669 20.227C198.469 20.175 198.261 20.1403 198.045 20.123C197.828 20.1057 197.629 20.097 197.447 20.097H194.613V24.543ZM223.656 12.96V27H220.653V17.835L213.971 27H211.462V12.96H214.465V21.891L221.173 12.96H223.656ZM232.298 27.39C230.964 27.39 229.746 27.1083 228.645 26.545C227.545 25.9817 226.678 25.2103 226.045 24.231L228.515 22.58C229.018 23.178 229.577 23.6417 230.192 23.971C230.808 24.2917 231.492 24.452 232.246 24.452C233.035 24.452 233.655 24.2787 234.105 23.932C234.556 23.5853 234.781 23.1217 234.781 22.541C234.781 22.0297 234.63 21.67 234.326 21.462C234.023 21.2453 233.624 21.1153 233.13 21.072C232.636 21.0287 232.108 21.007 231.544 21.007H230.504V18.524H231.531C232.32 18.524 232.979 18.433 233.507 18.251C234.045 18.069 234.313 17.666 234.313 17.042C234.313 16.4787 234.105 16.08 233.689 15.846C233.273 15.6033 232.788 15.482 232.233 15.482C231.557 15.482 230.89 15.625 230.231 15.911C229.573 16.197 228.983 16.5437 228.463 16.951L226.695 14.819C227.475 14.1257 228.346 13.5797 229.308 13.181C230.27 12.7737 231.297 12.57 232.389 12.57C233.291 12.57 234.131 12.726 234.911 13.038C235.7 13.35 236.333 13.818 236.809 14.442C237.295 15.066 237.537 15.8373 237.537 16.756C237.537 17.4147 237.394 18.0343 237.108 18.615C236.831 19.1957 236.385 19.746 235.769 20.266L235.73 19.252C236.207 19.4513 236.61 19.7287 236.939 20.084C237.277 20.4393 237.533 20.8553 237.706 21.332C237.888 21.8087 237.979 22.3157 237.979 22.853C237.979 23.8323 237.719 24.66 237.199 25.336C236.679 26.012 235.986 26.5233 235.119 26.87C234.261 27.2167 233.321 27.39 232.298 27.39ZM247.041 27.39C245.637 27.39 244.41 27.0737 243.362 26.441C242.313 25.8083 241.498 24.9373 240.918 23.828C240.346 22.71 240.06 21.4273 240.06 19.98C240.06 18.5067 240.354 17.2153 240.944 16.106C241.533 14.9967 242.352 14.13 243.401 13.506C244.449 12.882 245.663 12.57 247.041 12.57C248.453 12.57 249.684 12.8863 250.733 13.519C251.781 14.1517 252.596 15.027 253.177 16.145C253.757 17.2543 254.048 18.5327 254.048 19.98C254.048 21.436 253.753 22.723 253.164 23.841C252.583 24.9503 251.768 25.8213 250.72 26.454C249.671 27.078 248.445 27.39 247.041 27.39ZM247.041 24.452C248.289 24.452 249.216 24.036 249.823 23.204C250.429 22.372 250.733 21.2973 250.733 19.98C250.733 18.6193 250.425 17.536 249.81 16.73C249.194 15.9153 248.271 15.508 247.041 15.508C246.2 15.508 245.507 15.6987 244.961 16.08C244.423 16.4527 244.025 16.977 243.765 17.653C243.505 18.3203 243.375 19.096 243.375 19.98C243.375 21.3407 243.682 22.4283 244.298 23.243C244.922 24.049 245.836 24.452 247.041 24.452ZM262.749 27.416C261.414 27.3987 260.279 27.0997 259.343 26.519C258.407 25.9383 257.674 25.1193 257.146 24.062C256.617 23.0047 256.296 21.7567 256.184 20.318C256.132 19.5813 256.127 18.758 256.171 17.848C256.214 16.938 256.309 16.0497 256.457 15.183C256.604 14.3163 256.808 13.5797 257.068 12.973C257.336 12.3663 257.687 11.8073 258.121 11.296C258.554 10.776 259.022 10.3427 259.525 9.996C260.097 9.59733 260.716 9.28967 261.384 9.073C262.06 8.85633 262.766 8.69167 263.503 8.579C264.239 8.45767 264.998 8.34933 265.778 8.254C266.558 8.15867 267.329 8.03733 268.092 7.89L268.378 10.659C267.892 10.7803 267.329 10.8757 266.688 10.945C266.055 11.0057 265.396 11.075 264.712 11.153C264.036 11.231 263.39 11.3437 262.775 11.491C262.159 11.6383 261.626 11.855 261.176 12.141C260.552 12.5223 260.075 13.0683 259.746 13.779C259.416 14.4897 259.221 15.2393 259.161 16.028C259.698 15.2307 260.365 14.6717 261.163 14.351C261.969 14.0217 262.783 13.857 263.607 13.857C264.855 13.857 265.925 14.1517 266.818 14.741C267.719 15.3303 268.408 16.132 268.885 17.146C269.37 18.1513 269.613 19.2737 269.613 20.513C269.613 21.8997 269.322 23.113 268.742 24.153C268.161 25.193 267.355 25.999 266.324 26.571C265.292 27.143 264.101 27.4247 262.749 27.416ZM262.905 24.478C264.031 24.478 264.881 24.1313 265.453 23.438C266.033 22.736 266.324 21.8043 266.324 20.643C266.324 19.4557 266.025 18.5197 265.427 17.835C264.837 17.1503 263.997 16.808 262.905 16.808C261.795 16.808 260.95 17.1503 260.37 17.835C259.789 18.5197 259.499 19.4557 259.499 20.643C259.499 21.8563 259.793 22.801 260.383 23.477C260.972 24.1443 261.813 24.478 262.905 24.478ZM279.223 27.39C277.854 27.39 276.706 27.065 275.778 26.415C274.851 25.765 274.153 24.881 273.685 23.763C273.217 22.6363 272.983 21.3753 272.983 19.98C272.983 18.5673 273.217 17.302 273.685 16.184C274.153 15.066 274.838 14.1863 275.739 13.545C276.649 12.895 277.772 12.57 279.106 12.57C280.432 12.57 281.581 12.895 282.551 13.545C283.531 14.1863 284.289 15.066 284.826 16.184C285.364 17.2933 285.632 18.5587 285.632 19.98C285.632 21.384 285.368 22.645 284.839 23.763C284.311 24.881 283.565 25.765 282.603 26.415C281.641 27.065 280.515 27.39 279.223 27.39ZM272.45 33.24V12.96H275.219V22.814H275.609V33.24H272.45ZM278.742 24.582C279.557 24.582 280.229 24.3783 280.757 23.971C281.286 23.5637 281.676 23.0133 281.927 22.32C282.187 21.618 282.317 20.838 282.317 19.98C282.317 19.1307 282.187 18.3593 281.927 17.666C281.667 16.964 281.264 16.4093 280.718 16.002C280.172 15.586 279.479 15.378 278.638 15.378C277.841 15.378 277.191 15.573 276.688 15.963C276.186 16.3443 275.813 16.8817 275.57 17.575C275.336 18.2597 275.219 19.0613 275.219 19.98C275.219 20.89 275.336 21.6917 275.57 22.385C275.813 23.0783 276.19 23.62 276.701 24.01C277.221 24.3913 277.902 24.582 278.742 24.582ZM292.424 27.39C291.41 27.39 290.552 27.1993 289.85 26.818C289.148 26.428 288.615 25.9123 288.251 25.271C287.895 24.6297 287.718 23.9233 287.718 23.152C287.718 22.476 287.83 21.8693 288.056 21.332C288.281 20.786 288.628 20.318 289.096 19.928C289.564 19.5293 290.17 19.2043 290.916 18.953C291.479 18.771 292.138 18.6063 292.892 18.459C293.654 18.3117 294.478 18.1773 295.362 18.056C296.254 17.926 297.186 17.7873 298.157 17.64L297.039 18.277C297.047 17.3063 296.831 16.5913 296.389 16.132C295.947 15.6727 295.201 15.443 294.153 15.443C293.52 15.443 292.909 15.5903 292.32 15.885C291.73 16.1797 291.319 16.6867 291.085 17.406L288.225 16.509C288.571 15.3217 289.23 14.3683 290.201 13.649C291.18 12.9297 292.497 12.57 294.153 12.57C295.401 12.57 296.497 12.7737 297.442 13.181C298.395 13.5883 299.101 14.2557 299.561 15.183C299.812 15.677 299.964 16.184 300.016 16.704C300.068 17.2153 300.094 17.7743 300.094 18.381V27H297.351V23.958L297.806 24.452C297.173 25.466 296.432 26.2113 295.583 26.688C294.742 27.156 293.689 27.39 292.424 27.39ZM293.048 24.894C293.758 24.894 294.365 24.7683 294.868 24.517C295.37 24.2657 295.769 23.958 296.064 23.594C296.367 23.23 296.571 22.8877 296.675 22.567C296.839 22.1683 296.93 21.7133 296.948 21.202C296.974 20.682 296.987 20.2617 296.987 19.941L297.949 20.227C297.004 20.3743 296.194 20.5043 295.518 20.617C294.842 20.7297 294.261 20.838 293.776 20.942C293.29 21.0373 292.861 21.1457 292.489 21.267C292.125 21.397 291.817 21.5487 291.566 21.722C291.314 21.8953 291.119 22.0947 290.981 22.32C290.851 22.5453 290.786 22.8097 290.786 23.113C290.786 23.4597 290.872 23.7673 291.046 24.036C291.219 24.296 291.47 24.504 291.8 24.66C292.138 24.816 292.554 24.894 293.048 24.894ZM301.918 27L307.066 19.98L302.23 12.96H305.662L310.225 19.759V12.96H313.007V19.759L317.57 12.96H320.989L316.153 19.98L321.301 27H317.687L313.007 20.201V27H310.225V20.201L305.532 27H301.918ZM329.26 27.39C327.838 27.39 326.59 27.0823 325.516 26.467C324.441 25.8517 323.6 24.998 322.994 23.906C322.396 22.814 322.097 21.5573 322.097 20.136C322.097 18.602 322.391 17.2717 322.981 16.145C323.57 15.0097 324.389 14.13 325.438 13.506C326.486 12.882 327.7 12.57 329.078 12.57C330.534 12.57 331.769 12.9123 332.783 13.597C333.805 14.273 334.564 15.2307 335.058 16.47C335.552 17.7093 335.738 19.1697 335.617 20.851H332.51V19.707C332.501 18.1817 332.232 17.068 331.704 16.366C331.175 15.664 330.343 15.313 329.208 15.313C327.925 15.313 326.972 15.7117 326.348 16.509C325.724 17.2977 325.412 18.4547 325.412 19.98C325.412 21.4013 325.724 22.502 326.348 23.282C326.972 24.062 327.882 24.452 329.078 24.452C329.849 24.452 330.512 24.283 331.067 23.945C331.63 23.5983 332.063 23.1 332.367 22.45L335.461 23.386C334.923 24.6513 334.091 25.635 332.965 26.337C331.847 27.039 330.612 27.39 329.26 27.39ZM324.424 20.851V18.485H334.083V20.851H324.424ZM338.491 27V12.96H341.624V18.498H347.929V12.96H351.062V27H347.929V21.436H341.624V27H338.491ZM366.859 12.96V27H363.856V17.835L357.174 27H354.665V12.96H357.668V21.891L364.376 12.96H366.859ZM378.907 27V22.32H376.398C376.078 22.32 375.675 22.3113 375.189 22.294C374.713 22.2767 374.266 22.2333 373.85 22.164C372.767 21.9647 371.87 21.4923 371.159 20.747C370.449 19.993 370.093 18.9703 370.093 17.679C370.093 16.4137 370.431 15.3953 371.107 14.624C371.783 13.8527 372.663 13.3587 373.746 13.142C374.197 13.0467 374.661 12.9947 375.137 12.986C375.623 12.9687 376.026 12.96 376.346 12.96H382.04V27H378.907ZM369.729 27L373.083 21.631H376.346L373.018 27H369.729ZM376.073 19.863H378.907V15.417H376.073C375.909 15.417 375.709 15.4257 375.475 15.443C375.241 15.4603 375.007 15.4993 374.773 15.56C374.522 15.638 374.284 15.7723 374.058 15.963C373.833 16.1537 373.647 16.392 373.499 16.678C373.352 16.964 373.278 17.289 373.278 17.653C373.278 18.199 373.434 18.654 373.746 19.018C374.067 19.3733 374.44 19.6117 374.864 19.733C375.072 19.785 375.285 19.8197 375.501 19.837C375.727 19.8543 375.917 19.863 376.073 19.863ZM390.847 27V12.96H397.23C397.689 12.96 398.118 12.986 398.517 13.038C398.915 13.09 399.258 13.155 399.544 13.233C400.22 13.4323 400.818 13.8223 401.338 14.403C401.858 14.975 402.118 15.768 402.118 16.782C402.118 17.38 402.022 17.874 401.832 18.264C401.641 18.6453 401.39 18.966 401.078 19.226C400.93 19.3473 400.779 19.4513 400.623 19.538C400.467 19.6247 400.311 19.694 400.155 19.746C400.493 19.798 400.813 19.8977 401.117 20.045C401.593 20.279 401.992 20.6257 402.313 21.085C402.642 21.5443 402.807 22.19 402.807 23.022C402.807 23.9667 402.577 24.764 402.118 25.414C401.667 26.0553 401.004 26.5017 400.129 26.753C399.808 26.8397 399.44 26.9047 399.024 26.948C398.608 26.9827 398.183 27 397.75 27H390.847ZM394.019 24.582H397.529C397.711 24.582 397.91 24.5647 398.127 24.53C398.343 24.4953 398.538 24.4477 398.712 24.387C399.024 24.2743 399.249 24.075 399.388 23.789C399.535 23.503 399.609 23.204 399.609 22.892C399.609 22.4673 399.5 22.1293 399.284 21.878C399.076 21.618 398.824 21.4447 398.53 21.358C398.356 21.2887 398.166 21.2497 397.958 21.241C397.758 21.2237 397.594 21.215 397.464 21.215H394.019V24.582ZM394.019 18.758H396.619C396.887 18.758 397.147 18.745 397.399 18.719C397.659 18.6843 397.875 18.628 398.049 18.55C398.335 18.4373 398.543 18.2467 398.673 17.978C398.811 17.7093 398.881 17.4103 398.881 17.081C398.881 16.7343 398.803 16.4223 398.647 16.145C398.499 15.859 398.261 15.6683 397.932 15.573C397.715 15.4863 397.451 15.4387 397.139 15.43C396.835 15.4213 396.64 15.417 396.554 15.417H394.019V18.758ZM415.593 27.39C414.259 27.39 413.041 27.1083 411.94 26.545C410.84 25.9817 409.973 25.2103 409.34 24.231L411.81 22.58C412.313 23.178 412.872 23.6417 413.487 23.971C414.103 24.2917 414.787 24.452 415.541 24.452C416.33 24.452 416.95 24.2787 417.4 23.932C417.851 23.5853 418.076 23.1217 418.076 22.541C418.076 22.0297 417.925 21.67 417.621 21.462C417.318 21.2453 416.919 21.1153 416.425 21.072C415.931 21.0287 415.403 21.007 414.839 21.007H413.799V18.524H414.826C415.615 18.524 416.274 18.433 416.802 18.251C417.34 18.069 417.608 17.666 417.608 17.042C417.608 16.4787 417.4 16.08 416.984 15.846C416.568 15.6033 416.083 15.482 415.528 15.482C414.852 15.482 414.185 15.625 413.526 15.911C412.868 16.197 412.278 16.5437 411.758 16.951L409.99 14.819C410.77 14.1257 411.641 13.5797 412.603 13.181C413.565 12.7737 414.592 12.57 415.684 12.57C416.586 12.57 417.426 12.726 418.206 13.038C418.995 13.35 419.628 13.818 420.104 14.442C420.59 15.066 420.832 15.8373 420.832 16.756C420.832 17.4147 420.689 18.0343 420.403 18.615C420.126 19.1957 419.68 19.746 419.064 20.266L419.025 19.252C419.502 19.4513 419.905 19.7287 420.234 20.084C420.572 20.4393 420.828 20.8553 421.001 21.332C421.183 21.8087 421.274 22.3157 421.274 22.853C421.274 23.8323 421.014 24.66 420.494 25.336C419.974 26.012 419.281 26.5233 418.414 26.87C417.556 27.2167 416.616 27.39 415.593 27.39ZM428.06 27.39C427.046 27.39 426.188 27.1993 425.486 26.818C424.784 26.428 424.251 25.9123 423.887 25.271C423.532 24.6297 423.354 23.9233 423.354 23.152C423.354 22.476 423.467 21.8693 423.692 21.332C423.918 20.786 424.264 20.318 424.732 19.928C425.2 19.5293 425.807 19.2043 426.552 18.953C427.116 18.771 427.774 18.6063 428.528 18.459C429.291 18.3117 430.114 18.1773 430.998 18.056C431.891 17.926 432.823 17.7873 433.793 17.64L432.675 18.277C432.684 17.3063 432.467 16.5913 432.025 16.132C431.583 15.6727 430.838 15.443 429.789 15.443C429.157 15.443 428.546 15.5903 427.956 15.885C427.367 16.1797 426.955 16.6867 426.721 17.406L423.861 16.509C424.208 15.3217 424.867 14.3683 425.837 13.649C426.817 12.9297 428.134 12.57 429.789 12.57C431.037 12.57 432.134 12.7737 433.078 13.181C434.032 13.5883 434.738 14.2557 435.197 15.183C435.449 15.677 435.6 16.184 435.652 16.704C435.704 17.2153 435.73 17.7743 435.73 18.381V27H432.987V23.958L433.442 24.452C432.81 25.466 432.069 26.2113 431.219 26.688C430.379 27.156 429.326 27.39 428.06 27.39ZM428.684 24.894C429.395 24.894 430.002 24.7683 430.504 24.517C431.007 24.2657 431.406 23.958 431.7 23.594C432.004 23.23 432.207 22.8877 432.311 22.567C432.476 22.1683 432.567 21.7133 432.584 21.202C432.61 20.682 432.623 20.2617 432.623 19.941L433.585 20.227C432.641 20.3743 431.83 20.5043 431.154 20.617C430.478 20.7297 429.898 20.838 429.412 20.942C428.927 21.0373 428.498 21.1457 428.125 21.267C427.761 21.397 427.454 21.5487 427.202 21.722C426.951 21.8953 426.756 22.0947 426.617 22.32C426.487 22.5453 426.422 22.8097 426.422 23.113C426.422 23.4597 426.509 23.7673 426.682 24.036C426.856 24.296 427.107 24.504 427.436 24.66C427.774 24.816 428.19 24.894 428.684 24.894ZM439.089 27V12.96H445.472C445.931 12.96 446.36 12.986 446.759 13.038C447.158 13.09 447.5 13.155 447.786 13.233C448.462 13.4323 449.06 13.8223 449.58 14.403C450.1 14.975 450.36 15.768 450.36 16.782C450.36 17.38 450.265 17.874 450.074 18.264C449.883 18.6453 449.632 18.966 449.32 19.226C449.173 19.3473 449.021 19.4513 448.865 19.538C448.709 19.6247 448.553 19.694 448.397 19.746C448.735 19.798 449.056 19.8977 449.359 20.045C449.836 20.279 450.234 20.6257 450.555 21.085C450.884 21.5443 451.049 22.19 451.049 23.022C451.049 23.9667 450.819 24.764 450.36 25.414C449.909 26.0553 449.246 26.5017 448.371 26.753C448.05 26.8397 447.682 26.9047 447.266 26.948C446.85 26.9827 446.425 27 445.992 27H439.089ZM442.261 24.582H445.771C445.953 24.582 446.152 24.5647 446.369 24.53C446.586 24.4953 446.781 24.4477 446.954 24.387C447.266 24.2743 447.491 24.075 447.63 23.789C447.777 23.503 447.851 23.204 447.851 22.892C447.851 22.4673 447.743 22.1293 447.526 21.878C447.318 21.618 447.067 21.4447 446.772 21.358C446.599 21.2887 446.408 21.2497 446.2 21.241C446.001 21.2237 445.836 21.215 445.706 21.215H442.261V24.582ZM442.261 18.758H444.861C445.13 18.758 445.39 18.745 445.641 18.719C445.901 18.6843 446.118 18.628 446.291 18.55C446.577 18.4373 446.785 18.2467 446.915 17.978C447.054 17.7093 447.123 17.4103 447.123 17.081C447.123 16.7343 447.045 16.4223 446.889 16.145C446.742 15.859 446.503 15.6683 446.174 15.573C445.957 15.4863 445.693 15.4387 445.381 15.43C445.078 15.4213 444.883 15.417 444.796 15.417H442.261V18.758ZM465.806 12.96V27H462.803V17.835L456.121 27H453.612V12.96H456.615V21.891L463.323 12.96H465.806ZM475.554 27.39C474.106 27.39 472.871 27.0693 471.849 26.428C470.826 25.778 470.042 24.894 469.496 23.776C468.958 22.658 468.685 21.3927 468.677 19.98C468.685 18.5413 468.967 17.2673 469.522 16.158C470.085 15.04 470.882 14.1647 471.914 13.532C472.945 12.8907 474.171 12.57 475.593 12.57C477.187 12.57 478.535 12.973 479.636 13.779C480.745 14.5763 481.469 15.6683 481.807 17.055L478.687 17.9C478.444 17.146 478.041 16.561 477.478 16.145C476.914 15.7203 476.273 15.508 475.554 15.508C474.739 15.508 474.067 15.703 473.539 16.093C473.01 16.4743 472.62 17.003 472.369 17.679C472.117 18.355 471.992 19.122 471.992 19.98C471.992 21.3147 472.291 22.3937 472.889 23.217C473.487 24.0403 474.375 24.452 475.554 24.452C476.386 24.452 477.04 24.2613 477.517 23.88C478.002 23.4987 478.366 22.9483 478.609 22.229L481.807 22.944C481.373 24.374 480.615 25.4747 479.532 26.246C478.448 27.0087 477.122 27.39 475.554 27.39ZM496.58 12.96V27H493.577V17.835L486.895 27H484.386V12.96H487.389V21.891L494.097 12.96H496.58ZM500.204 27V12.96H502.778L507.809 22.658L512.853 12.96H515.414V27H512.424V19.265L508.433 27H507.198L503.207 19.265V27H500.204ZM525.246 27.39C523.842 27.39 522.615 27.0737 521.567 26.441C520.518 25.8083 519.703 24.9373 519.123 23.828C518.551 22.71 518.265 21.4273 518.265 19.98C518.265 18.5067 518.559 17.2153 519.149 16.106C519.738 14.9967 520.557 14.13 521.606 13.506C522.654 12.882 523.868 12.57 525.246 12.57C526.658 12.57 527.889 12.8863 528.938 13.519C529.986 14.1517 530.801 15.027 531.382 16.145C531.962 17.2543 532.253 18.5327 532.253 19.98C532.253 21.436 531.958 22.723 531.369 23.841C530.788 24.9503 529.973 25.8213 528.925 26.454C527.876 27.078 526.65 27.39 525.246 27.39ZM525.246 24.452C526.494 24.452 527.421 24.036 528.028 23.204C528.634 22.372 528.938 21.2973 528.938 19.98C528.938 18.6193 528.63 17.536 528.015 16.73C527.399 15.9153 526.476 15.508 525.246 15.508C524.405 15.508 523.712 15.6987 523.166 16.08C522.628 16.4527 522.23 16.977 521.97 17.653C521.71 18.3203 521.58 19.096 521.58 19.98C521.58 21.3407 521.887 22.4283 522.503 23.243C523.127 24.049 524.041 24.452 525.246 24.452ZM541.214 27.39C539.767 27.39 538.532 27.0693 537.509 26.428C536.486 25.778 535.702 24.894 535.156 23.776C534.619 22.658 534.346 21.3927 534.337 19.98C534.346 18.5413 534.627 17.2673 535.182 16.158C535.745 15.04 536.543 14.1647 537.574 13.532C538.605 12.8907 539.832 12.57 541.253 12.57C542.848 12.57 544.195 12.973 545.296 13.779C546.405 14.5763 547.129 15.6683 547.467 17.055L544.347 17.9C544.104 17.146 543.701 16.561 543.138 16.145C542.575 15.7203 541.933 15.508 541.214 15.508C540.399 15.508 539.728 15.703 539.199 16.093C538.67 16.4743 538.28 17.003 538.029 17.679C537.778 18.355 537.652 19.122 537.652 19.98C537.652 21.3147 537.951 22.3937 538.549 23.217C539.147 24.0403 540.035 24.452 541.214 24.452C542.046 24.452 542.7 24.2613 543.177 23.88C543.662 23.4987 544.026 22.9483 544.269 22.229L547.467 22.944C547.034 24.374 546.275 25.4747 545.192 26.246C544.109 27.0087 542.783 27.39 541.214 27.39ZM553.519 27V15.742H548.826V12.96H561.345V15.742H556.652V27H553.519ZM575.976 12.96V27H572.973V17.835L566.291 27H563.782V12.96H566.785V21.891L573.493 12.96H575.976ZM591.033 27.39C589.629 27.39 588.402 27.0737 587.354 26.441C586.305 25.8083 585.49 24.9373 584.91 23.828C584.338 22.71 584.052 21.4273 584.052 19.98C584.052 18.5067 584.346 17.2153 584.936 16.106C585.525 14.9967 586.344 14.13 587.393 13.506C588.441 12.882 589.655 12.57 591.033 12.57C592.445 12.57 593.676 12.8863 594.725 13.519C595.773 14.1517 596.588 15.027 597.169 16.145C597.749 17.2543 598.04 18.5327 598.04 19.98C598.04 21.436 597.745 22.723 597.156 23.841C596.575 24.9503 595.76 25.8213 594.712 26.454C593.663 27.078 592.437 27.39 591.033 27.39ZM591.033 24.452C592.281 24.452 593.208 24.036 593.815 23.204C594.421 22.372 594.725 21.2973 594.725 19.98C594.725 18.6193 594.417 17.536 593.802 16.73C593.186 15.9153 592.263 15.508 591.033 15.508C590.192 15.508 589.499 15.6987 588.953 16.08C588.415 16.4527 588.017 16.977 587.757 17.653C587.497 18.3203 587.367 19.096 587.367 19.98C587.367 21.3407 587.674 22.4283 588.29 23.243C588.914 24.049 589.828 24.452 591.033 24.452ZM604.148 27V15.742H599.455V12.96H611.974V15.742H607.281V27H604.148ZM621.488 33.24L624.192 25.817L624.244 28.001L618.121 12.96H621.384L625.726 24.088H624.894L629.119 12.96H632.252L624.426 33.24H621.488ZM634.191 27V12.96H644.201V15.898H637.324V27H634.191ZM645.129 27V24.374C645.641 24.4693 646.035 24.4607 646.312 24.348C646.59 24.2267 646.798 24.0013 646.936 23.672C647.075 23.3427 647.196 22.905 647.3 22.359C647.439 21.5877 647.56 20.6993 647.664 19.694C647.777 18.6887 647.872 17.614 647.95 16.47C648.037 15.326 648.115 14.156 648.184 12.96H658.519V27H655.399V15.898H650.94C650.897 16.4613 650.845 17.094 650.784 17.796C650.724 18.4893 650.659 19.1913 650.589 19.902C650.52 20.6127 650.442 21.2887 650.355 21.93C650.277 22.5627 650.195 23.1043 650.108 23.555C649.909 24.569 649.623 25.3707 649.25 25.96C648.886 26.5493 648.375 26.9263 647.716 27.091C647.058 27.2643 646.195 27.234 645.129 27ZM666.098 27.39C665.084 27.39 664.226 27.1993 663.524 26.818C662.822 26.428 662.289 25.9123 661.925 25.271C661.569 24.6297 661.392 23.9233 661.392 23.152C661.392 22.476 661.504 21.8693 661.73 21.332C661.955 20.786 662.302 20.318 662.77 19.928C663.238 19.5293 663.844 19.2043 664.59 18.953C665.153 18.771 665.812 18.6063 666.566 18.459C667.328 18.3117 668.152 18.1773 669.036 18.056C669.928 17.926 670.86 17.7873 671.831 17.64L670.713 18.277C670.721 17.3063 670.505 16.5913 670.063 16.132C669.621 15.6727 668.875 15.443 667.827 15.443C667.194 15.443 666.583 15.5903 665.994 15.885C665.404 16.1797 664.993 16.6867 664.759 17.406L661.899 16.509C662.245 15.3217 662.904 14.3683 663.875 13.649C664.854 12.9297 666.171 12.57 667.827 12.57C669.075 12.57 670.171 12.7737 671.116 13.181C672.069 13.5883 672.775 14.2557 673.235 15.183C673.486 15.677 673.638 16.184 673.69 16.704C673.742 17.2153 673.768 17.7743 673.768 18.381V27H671.025V23.958L671.48 24.452C670.847 25.466 670.106 26.2113 669.257 26.688C668.416 27.156 667.363 27.39 666.098 27.39ZM666.722 24.894C667.432 24.894 668.039 24.7683 668.542 24.517C669.044 24.2657 669.443 23.958 669.738 23.594C670.041 23.23 670.245 22.8877 670.349 22.567C670.513 22.1683 670.604 21.7133 670.622 21.202C670.648 20.682 670.661 20.2617 670.661 19.941L671.623 20.227C670.678 20.3743 669.868 20.5043 669.192 20.617C668.516 20.7297 667.935 20.838 667.45 20.942C666.964 21.0373 666.535 21.1457 666.163 21.267C665.799 21.397 665.491 21.5487 665.24 21.722C664.988 21.8953 664.793 22.0947 664.655 22.32C664.525 22.5453 664.46 22.8097 664.46 23.113C664.46 23.4597 664.546 23.7673 664.72 24.036C664.893 24.296 665.144 24.504 665.474 24.66C665.812 24.816 666.228 24.894 666.722 24.894ZM687.349 27.39C686.014 27.39 684.797 27.1083 683.696 26.545C682.595 25.9817 681.729 25.2103 681.096 24.231L683.566 22.58C684.069 23.178 684.628 23.6417 685.243 23.971C685.858 24.2917 686.543 24.452 687.297 24.452C688.086 24.452 688.705 24.2787 689.156 23.932C689.607 23.5853 689.832 23.1217 689.832 22.541C689.832 22.0297 689.68 21.67 689.377 21.462C689.074 21.2453 688.675 21.1153 688.181 21.072C687.687 21.0287 687.158 21.007 686.595 21.007H685.555V18.524H686.582C687.371 18.524 688.029 18.433 688.558 18.251C689.095 18.069 689.364 17.666 689.364 17.042C689.364 16.4787 689.156 16.08 688.74 15.846C688.324 15.6033 687.839 15.482 687.284 15.482C686.608 15.482 685.941 15.625 685.282 15.911C684.623 16.197 684.034 16.5437 683.514 16.951L681.746 14.819C682.526 14.1257 683.397 13.5797 684.359 13.181C685.321 12.7737 686.348 12.57 687.44 12.57C688.341 12.57 689.182 12.726 689.962 13.038C690.751 13.35 691.383 13.818 691.86 14.442C692.345 15.066 692.588 15.8373 692.588 16.756C692.588 17.4147 692.445 18.0343 692.159 18.615C691.882 19.1957 691.435 19.746 690.82 20.266L690.781 19.252C691.258 19.4513 691.661 19.7287 691.99 20.084C692.328 20.4393 692.584 20.8553 692.757 21.332C692.939 21.8087 693.03 22.3157 693.03 22.853C693.03 23.8323 692.77 24.66 692.25 25.336C691.73 26.012 691.037 26.5233 690.17 26.87C689.312 27.2167 688.372 27.39 687.349 27.39ZM702.637 27.39C701.268 27.39 700.12 27.065 699.192 26.415C698.265 25.765 697.567 24.881 697.099 23.763C696.631 22.6363 696.397 21.3753 696.397 19.98C696.397 18.5673 696.631 17.302 697.099 16.184C697.567 15.066 698.252 14.1863 699.153 13.545C700.063 12.895 701.186 12.57 702.52 12.57C703.846 12.57 704.995 12.895 705.965 13.545C706.945 14.1863 707.703 15.066 708.24 16.184C708.778 17.2933 709.046 18.5587 709.046 19.98C709.046 21.384 708.782 22.645 708.253 23.763C707.725 24.881 706.979 25.765 706.017 26.415C705.055 27.065 703.929 27.39 702.637 27.39ZM695.864 33.24V12.96H698.633V22.814H699.023V33.24H695.864ZM702.156 24.582C702.971 24.582 703.643 24.3783 704.171 23.971C704.7 23.5637 705.09 23.0133 705.341 22.32C705.601 21.618 705.731 20.838 705.731 19.98C705.731 19.1307 705.601 18.3593 705.341 17.666C705.081 16.964 704.678 16.4093 704.132 16.002C703.586 15.586 702.893 15.378 702.052 15.378C701.255 15.378 700.605 15.573 700.102 15.963C699.6 16.3443 699.227 16.8817 698.984 17.575C698.75 18.2597 698.633 19.0613 698.633 19.98C698.633 20.89 698.75 21.6917 698.984 22.385C699.227 23.0783 699.604 23.62 700.115 24.01C700.635 24.3913 701.316 24.582 702.156 24.582ZM718.295 27.39C716.873 27.39 715.625 27.0823 714.551 26.467C713.476 25.8517 712.635 24.998 712.029 23.906C711.431 22.814 711.132 21.5573 711.132 20.136C711.132 18.602 711.426 17.2717 712.016 16.145C712.605 15.0097 713.424 14.13 714.473 13.506C715.521 12.882 716.735 12.57 718.113 12.57C719.569 12.57 720.804 12.9123 721.818 13.597C722.84 14.273 723.599 15.2307 724.093 16.47C724.587 17.7093 724.773 19.1697 724.652 20.851H721.545V19.707C721.536 18.1817 721.267 17.068 720.739 16.366C720.21 15.664 719.378 15.313 718.243 15.313C716.96 15.313 716.007 15.7117 715.383 16.509C714.759 17.2977 714.447 18.4547 714.447 19.98C714.447 21.4013 714.759 22.502 715.383 23.282C716.007 24.062 716.917 24.452 718.113 24.452C718.884 24.452 719.547 24.283 720.102 23.945C720.665 23.5983 721.098 23.1 721.402 22.45L724.496 23.386C723.958 24.6513 723.126 25.635 722 26.337C720.882 27.039 719.647 27.39 718.295 27.39ZM713.459 20.851V18.485H723.118V20.851H713.459ZM727.526 27V12.96H730.659V18.498H736.964V12.96H740.097V27H736.964V21.436H730.659V27H727.526ZM755.894 12.96V27H752.891V17.835L746.209 27H743.7V12.96H746.703V21.891L753.411 12.96H755.894ZM767.943 27V22.32H765.434C765.113 22.32 764.71 22.3113 764.225 22.294C763.748 22.2767 763.302 22.2333 762.886 22.164C761.802 21.9647 760.905 21.4923 760.195 20.747C759.484 19.993 759.129 18.9703 759.129 17.679C759.129 16.4137 759.467 15.3953 760.143 14.624C760.819 13.8527 761.698 13.3587 762.782 13.142C763.232 13.0467 763.696 12.9947 764.173 12.986C764.658 12.9687 765.061 12.96 765.382 12.96H771.076V27H767.943ZM758.765 27L762.119 21.631H765.382L762.054 27H758.765ZM765.109 19.863H767.943V15.417H765.109C764.944 15.417 764.745 15.4257 764.511 15.443C764.277 15.4603 764.043 15.4993 763.809 15.56C763.557 15.638 763.319 15.7723 763.094 15.963C762.868 16.1537 762.682 16.392 762.535 16.678C762.387 16.964 762.314 17.289 762.314 17.653C762.314 18.199 762.47 18.654 762.782 19.018C763.102 19.3733 763.475 19.6117 763.9 19.733C764.108 19.785 764.32 19.8197 764.537 19.837C764.762 19.8543 764.953 19.863 765.109 19.863Z" fill="black"/>
<path d="M37.499 209.27C36.641 209.27 35.879 209.096 35.213 208.748C34.547 208.4 34.025 207.917 33.647 207.299C33.269 206.681 33.08 205.973 33.08 205.175C33.08 204.461 33.245 203.798 33.575 203.186C33.905 202.574 34.388 202.085 35.024 201.719L34.979 202.412C34.481 202.034 34.094 201.599 33.818 201.107C33.548 200.609 33.413 200.051 33.413 199.433C33.413 198.689 33.587 198.044 33.935 197.498C34.289 196.952 34.772 196.529 35.384 196.229C35.996 195.923 36.701 195.77 37.499 195.77C38.297 195.77 39.002 195.923 39.614 196.229C40.232 196.529 40.715 196.952 41.063 197.498C41.417 198.044 41.594 198.689 41.594 199.433C41.594 200.051 41.462 200.606 41.198 201.098C40.94 201.59 40.547 202.034 40.019 202.43L40.01 201.728C40.634 202.082 41.111 202.568 41.441 203.186C41.777 203.798 41.945 204.461 41.945 205.175C41.945 205.973 41.753 206.681 41.369 207.299C40.991 207.917 40.466 208.4 39.794 208.748C39.128 209.096 38.363 209.27 37.499 209.27ZM37.499 207.227C38.135 207.227 38.651 207.053 39.047 206.705C39.449 206.357 39.65 205.847 39.65 205.175C39.65 204.503 39.452 203.993 39.056 203.645C38.66 203.291 38.141 203.114 37.499 203.114C36.863 203.114 36.35 203.291 35.96 203.645C35.57 203.993 35.375 204.503 35.375 205.175C35.375 205.847 35.57 206.357 35.96 206.705C36.35 207.053 36.863 207.227 37.499 207.227ZM37.499 201.053C38.033 201.053 38.465 200.921 38.795 200.657C39.131 200.387 39.299 199.979 39.299 199.433C39.299 198.887 39.131 198.482 38.795 198.218C38.465 197.948 38.033 197.813 37.499 197.813C36.971 197.813 36.539 197.948 36.203 198.218C35.873 198.482 35.708 198.887 35.708 199.433C35.708 199.979 35.873 200.387 36.203 200.657C36.539 200.921 36.971 201.053 37.499 201.053ZM48.9435 209.27C48.0255 209.27 47.2155 209.075 46.5135 208.685C45.8115 208.289 45.2625 207.74 44.8665 207.038C44.4765 206.336 44.2815 205.526 44.2815 204.608V200.432C44.2815 199.514 44.4765 198.704 44.8665 198.002C45.2625 197.3 45.8115 196.754 46.5135 196.364C47.2155 195.968 48.0255 195.77 48.9435 195.77C49.8615 195.77 50.6685 195.968 51.3645 196.364C52.0665 196.754 52.6155 197.3 53.0115 198.002C53.4075 198.704 53.6055 199.514 53.6055 200.432V204.608C53.6055 205.526 53.4075 206.336 53.0115 207.038C52.6155 207.74 52.0665 208.289 51.3645 208.685C50.6685 209.075 49.8615 209.27 48.9435 209.27ZM48.9435 207.209C49.3995 207.209 49.8135 207.101 50.1855 206.885C50.5575 206.663 50.8515 206.369 51.0675 206.003C51.2835 205.631 51.3915 205.217 51.3915 204.761V200.27C51.3915 199.808 51.2835 199.394 51.0675 199.028C50.8515 198.656 50.5575 198.362 50.1855 198.146C49.8135 197.924 49.3995 197.813 48.9435 197.813C48.4875 197.813 48.0735 197.924 47.7015 198.146C47.3295 198.362 47.0355 198.656 46.8195 199.028C46.6035 199.394 46.4955 199.808 46.4955 200.27V204.761C46.4955 205.217 46.6035 205.631 46.8195 206.003C47.0355 206.369 47.3295 206.663 47.7015 206.885C48.0735 207.101 48.4875 207.209 48.9435 207.209ZM58.6491 202.25C58.0551 202.25 57.5121 202.106 57.0201 201.818C56.5281 201.524 56.1351 201.134 55.8411 200.648C55.5531 200.156 55.4091 199.61 55.4091 199.01C55.4091 198.422 55.5591 197.882 55.8591 197.39C56.1591 196.898 56.5551 196.505 57.0471 196.211C57.5391 195.917 58.0731 195.77 58.6491 195.77C59.2431 195.77 59.7831 195.917 60.2691 196.211C60.7611 196.499 61.1541 196.889 61.4481 197.381C61.7421 197.867 61.8891 198.41 61.8891 199.01C61.8891 199.61 61.7421 200.156 61.4481 200.648C61.1541 201.134 60.7611 201.524 60.2691 201.818C59.7831 202.106 59.2431 202.25 58.6491 202.25ZM58.6491 200.396C58.9011 200.396 59.1321 200.333 59.3421 200.207C59.5521 200.081 59.7201 199.913 59.8461 199.703C59.9721 199.493 60.0351 199.262 60.0351 199.01C60.0351 198.758 59.9721 198.527 59.8461 198.317C59.7201 198.107 59.5521 197.939 59.3421 197.813C59.1321 197.687 58.9011 197.624 58.6491 197.624C58.3971 197.624 58.1661 197.687 57.9561 197.813C57.7461 197.939 57.5781 198.107 57.4521 198.317C57.3261 198.527 57.2631 198.758 57.2631 199.01C57.2631 199.262 57.3261 199.493 57.4521 199.703C57.5781 199.913 57.7461 200.081 57.9561 200.207C58.1661 200.333 58.3971 200.396 58.6491 200.396Z" fill="#626262"/>
<path d="M0.9 60.982V59.092L6.444 54.151C6.876 53.767 7.176 53.404 7.344 53.062C7.512 52.72 7.596 52.39 7.596 52.072C7.596 51.64 7.503 51.256 7.317 50.92C7.131 50.578 6.873 50.308 6.543 50.11C6.219 49.912 5.844 49.813 5.418 49.813C4.968 49.813 4.569 49.918 4.221 50.128C3.879 50.332 3.612 50.605 3.42 50.947C3.228 51.289 3.138 51.658 3.15 52.054H0.918C0.918 51.19 1.11 50.437 1.494 49.795C1.884 49.153 2.418 48.655 3.096 48.301C3.78 47.947 4.569 47.77 5.463 47.77C6.291 47.77 7.035 47.956 7.695 48.328C8.355 48.694 8.874 49.204 9.252 49.858C9.63 50.506 9.819 51.253 9.819 52.099C9.819 52.717 9.735 53.236 9.567 53.656C9.399 54.076 9.147 54.463 8.811 54.817C8.481 55.171 8.07 55.564 7.578 55.996L3.645 59.479L3.447 58.939H9.819V60.982H0.9ZM11.8027 63.295L11.9287 62.359C12.2047 62.383 12.4237 62.335 12.5857 62.215C12.7477 62.101 12.8557 61.936 12.9097 61.72C12.9697 61.51 12.9847 61.27 12.9547 61H11.8027V58.687H14.0257V61.09C14.0257 61.876 13.8397 62.47 13.4677 62.872C13.0957 63.274 12.5407 63.415 11.8027 63.295ZM22.1115 61.27C21.1935 61.27 20.3835 61.075 19.6815 60.685C18.9795 60.289 18.4305 59.74 18.0345 59.038C17.6445 58.336 17.4495 57.526 17.4495 56.608V52.432C17.4495 51.514 17.6445 50.704 18.0345 50.002C18.4305 49.3 18.9795 48.754 19.6815 48.364C20.3835 47.968 21.1935 47.77 22.1115 47.77C23.0295 47.77 23.8365 47.968 24.5325 48.364C25.2345 48.754 25.7835 49.3 26.1795 50.002C26.5755 50.704 26.7735 51.514 26.7735 52.432V56.608C26.7735 57.526 26.5755 58.336 26.1795 59.038C25.7835 59.74 25.2345 60.289 24.5325 60.685C23.8365 61.075 23.0295 61.27 22.1115 61.27ZM22.1115 59.209C22.5675 59.209 22.9815 59.101 23.3535 58.885C23.7255 58.663 24.0195 58.369 24.2355 58.003C24.4515 57.631 24.5595 57.217 24.5595 56.761V52.27C24.5595 51.808 24.4515 51.394 24.2355 51.028C24.0195 50.656 23.7255 50.362 23.3535 50.146C22.9815 49.924 22.5675 49.813 22.1115 49.813C21.6555 49.813 21.2415 49.924 20.8695 50.146C20.4975 50.362 20.2035 50.656 19.9875 51.028C19.7715 51.394 19.6635 51.808 19.6635 52.27V56.761C19.6635 57.217 19.7715 57.631 19.9875 58.003C20.2035 58.369 20.4975 58.663 20.8695 58.885C21.2415 59.101 21.6555 59.209 22.1115 59.209Z" fill="#626262"/>
<path d="M3.51 93V82.407L1.08 83.892V81.498L3.51 80.04H5.724V93H3.51ZM8.25188 95.295L8.37788 94.359C8.65388 94.383 8.87288 94.335 9.03488 94.215C9.19688 94.101 9.30488 93.936 9.35888 93.72C9.41888 93.51 9.43388 93.27 9.40388 93H8.25188V90.687H10.4749V93.09C10.4749 93.876 10.2889 94.47 9.91688 94.872C9.54488 95.274 8.98988 95.415 8.25188 95.295ZM17.7417 93.27C17.0817 93.27 16.4667 93.135 15.8967 92.865C15.3267 92.589 14.8347 92.211 14.4207 91.731C14.0127 91.251 13.7187 90.693 13.5387 90.057L15.6267 89.499C15.7107 89.847 15.8637 90.147 16.0857 90.399C16.3137 90.651 16.5777 90.846 16.8777 90.984C17.1837 91.122 17.4987 91.191 17.8227 91.191C18.2427 91.191 18.6267 91.089 18.9747 90.885C19.3227 90.681 19.5987 90.408 19.8027 90.066C20.0067 89.718 20.1087 89.334 20.1087 88.914C20.1087 88.494 20.0037 88.113 19.7937 87.771C19.5897 87.423 19.3137 87.15 18.9657 86.952C18.6177 86.748 18.2367 86.646 17.8227 86.646C17.3247 86.646 16.9107 86.736 16.5807 86.916C16.2567 87.096 16.0077 87.288 15.8337 87.492L13.9797 86.898L14.3757 80.04H21.4137V82.074H15.5367L16.3467 81.309L16.0587 86.079L15.6627 85.593C15.9987 85.287 16.3887 85.059 16.8327 84.909C17.2767 84.759 17.7057 84.684 18.1197 84.684C18.9297 84.684 19.6467 84.87 20.2707 85.242C20.9007 85.608 21.3927 86.109 21.7467 86.745C22.1067 87.381 22.2867 88.104 22.2867 88.914C22.2867 89.724 22.0767 90.459 21.6567 91.119C21.2367 91.773 20.6817 92.295 19.9917 92.685C19.3077 93.075 18.5577 93.27 17.7417 93.27Z" fill="#626262"/>
<path d="M3.51 125V114.407L1.08 115.892V113.498L3.51 112.04H5.724V125H3.51ZM8.25188 127.295L8.37788 126.359C8.65388 126.383 8.87288 126.335 9.03488 126.215C9.19688 126.101 9.30488 125.936 9.35888 125.72C9.41888 125.51 9.43388 125.27 9.40388 125H8.25188V122.687H10.4749V125.09C10.4749 125.876 10.2889 126.47 9.91688 126.872C9.54488 127.274 8.98988 127.415 8.25188 127.295ZM18.5607 125.27C17.6427 125.27 16.8327 125.075 16.1307 124.685C15.4287 124.289 14.8797 123.74 14.4837 123.038C14.0937 122.336 13.8987 121.526 13.8987 120.608V116.432C13.8987 115.514 14.0937 114.704 14.4837 114.002C14.8797 113.3 15.4287 112.754 16.1307 112.364C16.8327 111.968 17.6427 111.77 18.5607 111.77C19.4787 111.77 20.2857 111.968 20.9817 112.364C21.6837 112.754 22.2327 113.3 22.6287 114.002C23.0247 114.704 23.2227 115.514 23.2227 116.432V120.608C23.2227 121.526 23.0247 122.336 22.6287 123.038C22.2327 123.74 21.6837 124.289 20.9817 124.685C20.2857 125.075 19.4787 125.27 18.5607 125.27ZM18.5607 123.209C19.0167 123.209 19.4307 123.101 19.8027 122.885C20.1747 122.663 20.4687 122.369 20.6847 122.003C20.9007 121.631 21.0087 121.217 21.0087 120.761V116.27C21.0087 115.808 20.9007 115.394 20.6847 115.028C20.4687 114.656 20.1747 114.362 19.8027 114.146C19.4307 113.924 19.0167 113.813 18.5607 113.813C18.1047 113.813 17.6907 113.924 17.3187 114.146C16.9467 114.362 16.6527 114.656 16.4367 115.028C16.2207 115.394 16.1127 115.808 16.1127 116.27V120.761C16.1127 121.217 16.2207 121.631 16.4367 122.003C16.6527 122.369 16.9467 122.663 17.3187 122.885C17.6907 123.101 18.1047 123.209 18.5607 123.209Z" fill="#626262"/>
<path d="M5.922 157.27C5.004 157.27 4.194 157.075 3.492 156.685C2.79 156.289 2.241 155.74 1.845 155.038C1.455 154.336 1.26 153.526 1.26 152.608V148.432C1.26 147.514 1.455 146.704 1.845 146.002C2.241 145.3 2.79 144.754 3.492 144.364C4.194 143.968 5.004 143.77 5.922 143.77C6.84 143.77 7.647 143.968 8.343 144.364C9.045 144.754 9.594 145.3 9.99 146.002C10.386 146.704 10.584 147.514 10.584 148.432V152.608C10.584 153.526 10.386 154.336 9.99 155.038C9.594 155.74 9.045 156.289 8.343 156.685C7.647 157.075 6.84 157.27 5.922 157.27ZM5.922 155.209C6.378 155.209 6.792 155.101 7.164 154.885C7.536 154.663 7.83 154.369 8.046 154.003C8.262 153.631 8.37 153.217 8.37 152.761V148.27C8.37 147.808 8.262 147.394 8.046 147.028C7.83 146.656 7.536 146.362 7.164 146.146C6.792 145.924 6.378 145.813 5.922 145.813C5.466 145.813 5.052 145.924 4.68 146.146C4.308 146.362 4.014 146.656 3.798 147.028C3.582 147.394 3.474 147.808 3.474 148.27V152.761C3.474 153.217 3.582 153.631 3.798 154.003C4.014 154.369 4.308 154.663 4.68 154.885C5.052 155.101 5.466 155.209 5.922 155.209ZM12.9277 159.295L13.0537 158.359C13.3297 158.383 13.5487 158.335 13.7107 158.215C13.8727 158.101 13.9807 157.936 14.0347 157.72C14.0947 157.51 14.1097 157.27 14.0797 157H12.9277V154.687H15.1507V157.09C15.1507 157.876 14.9647 158.47 14.5927 158.872C14.2207 159.274 13.6657 159.415 12.9277 159.295ZM22.4175 157.27C21.7575 157.27 21.1425 157.135 20.5725 156.865C20.0025 156.589 19.5105 156.211 19.0965 155.731C18.6885 155.251 18.3945 154.693 18.2145 154.057L20.3025 153.499C20.3865 153.847 20.5395 154.147 20.7615 154.399C20.9895 154.651 21.2535 154.846 21.5535 154.984C21.8595 155.122 22.1745 155.191 22.4985 155.191C22.9185 155.191 23.3025 155.089 23.6505 154.885C23.9985 154.681 24.2745 154.408 24.4785 154.066C24.6825 153.718 24.7845 153.334 24.7845 152.914C24.7845 152.494 24.6795 152.113 24.4695 151.771C24.2655 151.423 23.9895 151.15 23.6415 150.952C23.2935 150.748 22.9125 150.646 22.4985 150.646C22.0005 150.646 21.5865 150.736 21.2565 150.916C20.9325 151.096 20.6835 151.288 20.5095 151.492L18.6555 150.898L19.0515 144.04H26.0895V146.074H20.2125L21.0225 145.309L20.7345 150.079L20.3385 149.593C20.6745 149.287 21.0645 149.059 21.5085 148.909C21.9525 148.759 22.3815 148.684 22.7955 148.684C23.6055 148.684 24.3225 148.87 24.9465 149.242C25.5765 149.608 26.0685 150.109 26.4225 150.745C26.7825 151.381 26.9625 152.104 26.9625 152.914C26.9625 153.724 26.7525 154.459 26.3325 155.119C25.9125 155.773 25.3575 156.295 24.6675 156.685C23.9835 157.075 23.2335 157.27 22.4175 157.27Z" fill="#626262"/>
<path d="M83.917 209L88.381 198.092H82.72V196.04H90.703V198.092L86.257 209H83.917ZM97.5197 209.27C96.6017 209.27 95.7917 209.075 95.0897 208.685C94.3877 208.289 93.8387 207.74 93.4427 207.038C93.0527 206.336 92.8577 205.526 92.8577 204.608V200.432C92.8577 199.514 93.0527 198.704 93.4427 198.002C93.8387 197.3 94.3877 196.754 95.0897 196.364C95.7917 195.968 96.6017 195.77 97.5197 195.77C98.4377 195.77 99.2447 195.968 99.9407 196.364C100.643 196.754 101.192 197.3 101.588 198.002C101.984 198.704 102.182 199.514 102.182 200.432V204.608C102.182 205.526 101.984 206.336 101.588 207.038C101.192 207.74 100.643 208.289 99.9407 208.685C99.2447 209.075 98.4377 209.27 97.5197 209.27ZM97.5197 207.209C97.9757 207.209 98.3897 207.101 98.7617 206.885C99.1337 206.663 99.4277 206.369 99.6437 206.003C99.8597 205.631 99.9677 205.217 99.9677 204.761V200.27C99.9677 199.808 99.8597 199.394 99.6437 199.028C99.4277 198.656 99.1337 198.362 98.7617 198.146C98.3897 197.924 97.9757 197.813 97.5197 197.813C97.0637 197.813 96.6497 197.924 96.2777 198.146C95.9057 198.362 95.6117 198.656 95.3957 199.028C95.1797 199.394 95.0717 199.808 95.0717 200.27V204.761C95.0717 205.217 95.1797 205.631 95.3957 206.003C95.6117 206.369 95.9057 206.663 96.2777 206.885C96.6497 207.101 97.0637 207.209 97.5197 207.209ZM107.225 202.25C106.631 202.25 106.088 202.106 105.596 201.818C105.104 201.524 104.711 201.134 104.417 200.648C104.129 200.156 103.985 199.61 103.985 199.01C103.985 198.422 104.135 197.882 104.435 197.39C104.735 196.898 105.131 196.505 105.623 196.211C106.115 195.917 106.649 195.77 107.225 195.77C107.819 195.77 108.359 195.917 108.845 196.211C109.337 196.499 109.73 196.889 110.024 197.381C110.318 197.867 110.465 198.41 110.465 199.01C110.465 199.61 110.318 200.156 110.024 200.648C109.73 201.134 109.337 201.524 108.845 201.818C108.359 202.106 107.819 202.25 107.225 202.25ZM107.225 200.396C107.477 200.396 107.708 200.333 107.918 200.207C108.128 200.081 108.296 199.913 108.422 199.703C108.548 199.493 108.611 199.262 108.611 199.01C108.611 198.758 108.548 198.527 108.422 198.317C108.296 198.107 108.128 197.939 107.918 197.813C107.708 197.687 107.477 197.624 107.225 197.624C106.973 197.624 106.742 197.687 106.532 197.813C106.322 197.939 106.154 198.107 106.028 198.317C105.902 198.527 105.839 198.758 105.839 199.01C105.839 199.262 105.902 199.493 106.028 199.703C106.154 199.913 106.322 200.081 106.532 200.207C106.742 200.333 106.973 200.396 107.225 200.396Z" fill="#626262"/>
<path d="M138.742 209.27C137.896 209.27 137.134 209.072 136.456 208.676C135.784 208.274 135.25 207.719 134.854 207.011C134.458 206.303 134.26 205.49 134.26 204.572V200.63C134.26 199.646 134.455 198.791 134.845 198.065C135.241 197.339 135.793 196.778 136.501 196.382C137.215 195.986 138.043 195.788 138.985 195.788C139.639 195.788 140.26 195.899 140.848 196.121C141.436 196.337 141.958 196.685 142.414 197.165L140.848 198.686C140.62 198.416 140.341 198.203 140.011 198.047C139.687 197.891 139.345 197.813 138.985 197.813C138.481 197.813 138.04 197.933 137.662 198.173C137.284 198.407 136.99 198.716 136.78 199.1C136.576 199.484 136.474 199.895 136.474 200.333V202.484L136.078 202.052C136.45 201.62 136.897 201.284 137.419 201.044C137.941 200.798 138.487 200.675 139.057 200.675C139.873 200.675 140.593 200.861 141.217 201.233C141.841 201.599 142.333 202.103 142.693 202.745C143.053 203.381 143.233 204.107 143.233 204.923C143.233 205.733 143.026 206.468 142.612 207.128C142.204 207.782 141.661 208.304 140.983 208.694C140.305 209.078 139.558 209.27 138.742 209.27ZM138.742 207.191C139.162 207.191 139.546 207.092 139.894 206.894C140.242 206.69 140.518 206.417 140.722 206.075C140.932 205.727 141.037 205.343 141.037 204.923C141.037 204.503 140.935 204.119 140.731 203.771C140.527 203.423 140.251 203.147 139.903 202.943C139.561 202.733 139.18 202.628 138.76 202.628C138.34 202.628 137.956 202.733 137.608 202.943C137.26 203.147 136.984 203.423 136.78 203.771C136.576 204.119 136.474 204.503 136.474 204.923C136.474 205.331 136.573 205.709 136.771 206.057C136.975 206.399 137.248 206.675 137.59 206.885C137.938 207.089 138.322 207.191 138.742 207.191ZM150.102 209.27C149.184 209.27 148.374 209.075 147.672 208.685C146.97 208.289 146.421 207.74 146.025 207.038C145.635 206.336 145.44 205.526 145.44 204.608V200.432C145.44 199.514 145.635 198.704 146.025 198.002C146.421 197.3 146.97 196.754 147.672 196.364C148.374 195.968 149.184 195.77 150.102 195.77C151.02 195.77 151.827 195.968 152.523 196.364C153.225 196.754 153.774 197.3 154.17 198.002C154.566 198.704 154.764 199.514 154.764 200.432V204.608C154.764 205.526 154.566 206.336 154.17 207.038C153.774 207.74 153.225 208.289 152.523 208.685C151.827 209.075 151.02 209.27 150.102 209.27ZM150.102 207.209C150.558 207.209 150.972 207.101 151.344 206.885C151.716 206.663 152.01 206.369 152.226 206.003C152.442 205.631 152.55 205.217 152.55 204.761V200.27C152.55 199.808 152.442 199.394 152.226 199.028C152.01 198.656 151.716 198.362 151.344 198.146C150.972 197.924 150.558 197.813 150.102 197.813C149.646 197.813 149.232 197.924 148.86 198.146C148.488 198.362 148.194 198.656 147.978 199.028C147.762 199.394 147.654 199.808 147.654 200.27V204.761C147.654 205.217 147.762 205.631 147.978 206.003C148.194 206.369 148.488 206.663 148.86 206.885C149.232 207.101 149.646 207.209 150.102 207.209ZM159.807 202.25C159.213 202.25 158.67 202.106 158.178 201.818C157.686 201.524 157.293 201.134 156.999 200.648C156.711 200.156 156.567 199.61 156.567 199.01C156.567 198.422 156.717 197.882 157.017 197.39C157.317 196.898 157.713 196.505 158.205 196.211C158.697 195.917 159.231 195.77 159.807 195.77C160.401 195.77 160.941 195.917 161.427 196.211C161.919 196.499 162.312 196.889 162.606 197.381C162.9 197.867 163.047 198.41 163.047 199.01C163.047 199.61 162.9 200.156 162.606 200.648C162.312 201.134 161.919 201.524 161.427 201.818C160.941 202.106 160.401 202.25 159.807 202.25ZM159.807 200.396C160.059 200.396 160.29 200.333 160.5 200.207C160.71 200.081 160.878 199.913 161.004 199.703C161.13 199.493 161.193 199.262 161.193 199.01C161.193 198.758 161.13 198.527 161.004 198.317C160.878 198.107 160.71 197.939 160.5 197.813C160.29 197.687 160.059 197.624 159.807 197.624C159.555 197.624 159.324 197.687 159.114 197.813C158.904 197.939 158.736 198.107 158.61 198.317C158.484 198.527 158.421 198.758 158.421 199.01C158.421 199.262 158.484 199.493 158.61 199.703C158.736 199.913 158.904 200.081 159.114 200.207C159.324 200.333 159.555 200.396 159.807 200.396Z" fill="#626262"/>
<path d="M191.103 209.27C190.443 209.27 189.828 209.135 189.258 208.865C188.688 208.589 188.196 208.211 187.782 207.731C187.374 207.251 187.08 206.693 186.9 206.057L188.988 205.499C189.072 205.847 189.225 206.147 189.447 206.399C189.675 206.651 189.939 206.846 190.239 206.984C190.545 207.122 190.86 207.191 191.184 207.191C191.604 207.191 191.988 207.089 192.336 206.885C192.684 206.681 192.96 206.408 193.164 206.066C193.368 205.718 193.47 205.334 193.47 204.914C193.47 204.494 193.365 204.113 193.155 203.771C192.951 203.423 192.675 203.15 192.327 202.952C191.979 202.748 191.598 202.646 191.184 202.646C190.686 202.646 190.272 202.736 189.942 202.916C189.618 203.096 189.369 203.288 189.195 203.492L187.341 202.898L187.737 196.04H194.775V198.074H188.898L189.708 197.309L189.42 202.079L189.024 201.593C189.36 201.287 189.75 201.059 190.194 200.909C190.638 200.759 191.067 200.684 191.481 200.684C192.291 200.684 193.008 200.87 193.632 201.242C194.262 201.608 194.754 202.109 195.108 202.745C195.468 203.381 195.648 204.104 195.648 204.914C195.648 205.724 195.438 206.459 195.018 207.119C194.598 207.773 194.043 208.295 193.353 208.685C192.669 209.075 191.919 209.27 191.103 209.27ZM202.469 209.27C201.551 209.27 200.741 209.075 200.039 208.685C199.337 208.289 198.788 207.74 198.392 207.038C198.002 206.336 197.807 205.526 197.807 204.608V200.432C197.807 199.514 198.002 198.704 198.392 198.002C198.788 197.3 199.337 196.754 200.039 196.364C200.741 195.968 201.551 195.77 202.469 195.77C203.387 195.77 204.194 195.968 204.89 196.364C205.592 196.754 206.141 197.3 206.537 198.002C206.933 198.704 207.131 199.514 207.131 200.432V204.608C207.131 205.526 206.933 206.336 206.537 207.038C206.141 207.74 205.592 208.289 204.89 208.685C204.194 209.075 203.387 209.27 202.469 209.27ZM202.469 207.209C202.925 207.209 203.339 207.101 203.711 206.885C204.083 206.663 204.377 206.369 204.593 206.003C204.809 205.631 204.917 205.217 204.917 204.761V200.27C204.917 199.808 204.809 199.394 204.593 199.028C204.377 198.656 204.083 198.362 203.711 198.146C203.339 197.924 202.925 197.813 202.469 197.813C202.013 197.813 201.599 197.924 201.227 198.146C200.855 198.362 200.561 198.656 200.345 199.028C200.129 199.394 200.021 199.808 200.021 200.27V204.761C200.021 205.217 200.129 205.631 200.345 206.003C200.561 206.369 200.855 206.663 201.227 206.885C201.599 207.101 202.013 207.209 202.469 207.209ZM212.175 202.25C211.581 202.25 211.038 202.106 210.546 201.818C210.054 201.524 209.661 201.134 209.367 200.648C209.079 200.156 208.935 199.61 208.935 199.01C208.935 198.422 209.085 197.882 209.385 197.39C209.685 196.898 210.081 196.505 210.573 196.211C211.065 195.917 211.599 195.77 212.175 195.77C212.769 195.77 213.309 195.917 213.795 196.211C214.287 196.499 214.68 196.889 214.974 197.381C215.268 197.867 215.415 198.41 215.415 199.01C215.415 199.61 215.268 200.156 214.974 200.648C214.68 201.134 214.287 201.524 213.795 201.818C213.309 202.106 212.769 202.25 212.175 202.25ZM212.175 200.396C212.427 200.396 212.658 200.333 212.868 200.207C213.078 200.081 213.246 199.913 213.372 199.703C213.498 199.493 213.561 199.262 213.561 199.01C213.561 198.758 213.498 198.527 213.372 198.317C213.246 198.107 213.078 197.939 212.868 197.813C212.658 197.687 212.427 197.624 212.175 197.624C211.923 197.624 211.692 197.687 211.482 197.813C211.272 197.939 211.104 198.107 210.978 198.317C210.852 198.527 210.789 198.758 210.789 199.01C210.789 199.262 210.852 199.493 210.978 199.703C211.104 199.913 211.272 200.081 211.482 200.207C211.692 200.333 211.923 200.396 212.175 200.396Z" fill="#626262"/>
<path d="M246.642 209V206.858H240.9V204.833L245.049 196.04H247.524L243.375 204.833H246.642V201.458H248.838V204.833H250.053V206.858H248.838V209H246.642ZM256.873 209.27C255.955 209.27 255.145 209.075 254.443 208.685C253.741 208.289 253.192 207.74 252.796 207.038C252.406 206.336 252.211 205.526 252.211 204.608V200.432C252.211 199.514 252.406 198.704 252.796 198.002C253.192 197.3 253.741 196.754 254.443 196.364C255.145 195.968 255.955 195.77 256.873 195.77C257.791 195.77 258.598 195.968 259.294 196.364C259.996 196.754 260.545 197.3 260.941 198.002C261.337 198.704 261.535 199.514 261.535 200.432V204.608C261.535 205.526 261.337 206.336 260.941 207.038C260.545 207.74 259.996 208.289 259.294 208.685C258.598 209.075 257.791 209.27 256.873 209.27ZM256.873 207.209C257.329 207.209 257.743 207.101 258.115 206.885C258.487 206.663 258.781 206.369 258.997 206.003C259.213 205.631 259.321 205.217 259.321 204.761V200.27C259.321 199.808 259.213 199.394 258.997 199.028C258.781 198.656 258.487 198.362 258.115 198.146C257.743 197.924 257.329 197.813 256.873 197.813C256.417 197.813 256.003 197.924 255.631 198.146C255.259 198.362 254.965 198.656 254.749 199.028C254.533 199.394 254.425 199.808 254.425 200.27V204.761C254.425 205.217 254.533 205.631 254.749 206.003C254.965 206.369 255.259 206.663 255.631 206.885C256.003 207.101 256.417 207.209 256.873 207.209ZM266.579 202.25C265.985 202.25 265.442 202.106 264.95 201.818C264.458 201.524 264.065 201.134 263.771 200.648C263.483 200.156 263.339 199.61 263.339 199.01C263.339 198.422 263.489 197.882 263.789 197.39C264.089 196.898 264.485 196.505 264.977 196.211C265.469 195.917 266.003 195.77 266.579 195.77C267.173 195.77 267.713 195.917 268.199 196.211C268.691 196.499 269.084 196.889 269.378 197.381C269.672 197.867 269.819 198.41 269.819 199.01C269.819 199.61 269.672 200.156 269.378 200.648C269.084 201.134 268.691 201.524 268.199 201.818C267.713 202.106 267.173 202.25 266.579 202.25ZM266.579 200.396C266.831 200.396 267.062 200.333 267.272 200.207C267.482 200.081 267.65 199.913 267.776 199.703C267.902 199.493 267.965 199.262 267.965 199.01C267.965 198.758 267.902 198.527 267.776 198.317C267.65 198.107 267.482 197.939 267.272 197.813C267.062 197.687 266.831 197.624 266.579 197.624C266.327 197.624 266.096 197.687 265.886 197.813C265.676 197.939 265.508 198.107 265.382 198.317C265.256 198.527 265.193 198.758 265.193 199.01C265.193 199.262 265.256 199.493 265.382 199.703C265.508 199.913 265.676 200.081 265.886 200.207C266.096 200.333 266.327 200.396 266.579 200.396Z" fill="#626262"/>
<path d="M301.968 209.243C301.32 209.243 300.708 209.117 300.132 208.865C299.556 208.613 299.055 208.256 298.629 207.794C298.209 207.332 297.906 206.786 297.72 206.156L299.817 205.589C299.967 206.105 300.24 206.504 300.636 206.786C301.038 207.062 301.479 207.197 301.959 207.191C302.385 207.191 302.766 207.092 303.102 206.894C303.438 206.696 303.702 206.429 303.894 206.093C304.086 205.751 304.182 205.37 304.182 204.95C304.182 204.308 303.975 203.771 303.561 203.339C303.147 202.907 302.613 202.691 301.959 202.691C301.761 202.691 301.566 202.718 301.374 202.772C301.188 202.826 301.008 202.901 300.834 202.997L299.844 201.287L304.2 197.561L304.389 198.083H298.224V196.04H306.171V198.092L302.67 201.458L302.652 200.819C303.438 200.873 304.107 201.092 304.659 201.476C305.217 201.86 305.643 202.355 305.937 202.961C306.237 203.567 306.387 204.23 306.387 204.95C306.387 205.766 306.186 206.498 305.784 207.146C305.388 207.794 304.854 208.307 304.182 208.685C303.516 209.057 302.778 209.243 301.968 209.243ZM313.381 209.27C312.463 209.27 311.653 209.075 310.951 208.685C310.249 208.289 309.7 207.74 309.304 207.038C308.914 206.336 308.719 205.526 308.719 204.608V200.432C308.719 199.514 308.914 198.704 309.304 198.002C309.7 197.3 310.249 196.754 310.951 196.364C311.653 195.968 312.463 195.77 313.381 195.77C314.299 195.77 315.106 195.968 315.802 196.364C316.504 196.754 317.053 197.3 317.449 198.002C317.845 198.704 318.043 199.514 318.043 200.432V204.608C318.043 205.526 317.845 206.336 317.449 207.038C317.053 207.74 316.504 208.289 315.802 208.685C315.106 209.075 314.299 209.27 313.381 209.27ZM313.381 207.209C313.837 207.209 314.251 207.101 314.623 206.885C314.995 206.663 315.289 206.369 315.505 206.003C315.721 205.631 315.829 205.217 315.829 204.761V200.27C315.829 199.808 315.721 199.394 315.505 199.028C315.289 198.656 314.995 198.362 314.623 198.146C314.251 197.924 313.837 197.813 313.381 197.813C312.925 197.813 312.511 197.924 312.139 198.146C311.767 198.362 311.473 198.656 311.257 199.028C311.041 199.394 310.933 199.808 310.933 200.27V204.761C310.933 205.217 311.041 205.631 311.257 206.003C311.473 206.369 311.767 206.663 312.139 206.885C312.511 207.101 312.925 207.209 313.381 207.209ZM323.087 202.25C322.493 202.25 321.95 202.106 321.458 201.818C320.966 201.524 320.573 201.134 320.279 200.648C319.991 200.156 319.847 199.61 319.847 199.01C319.847 198.422 319.997 197.882 320.297 197.39C320.597 196.898 320.993 196.505 321.485 196.211C321.977 195.917 322.511 195.77 323.087 195.77C323.681 195.77 324.221 195.917 324.707 196.211C325.199 196.499 325.592 196.889 325.886 197.381C326.18 197.867 326.327 198.41 326.327 199.01C326.327 199.61 326.18 200.156 325.886 200.648C325.592 201.134 325.199 201.524 324.707 201.818C324.221 202.106 323.681 202.25 323.087 202.25ZM323.087 200.396C323.339 200.396 323.57 200.333 323.78 200.207C323.99 200.081 324.158 199.913 324.284 199.703C324.41 199.493 324.473 199.262 324.473 199.01C324.473 198.758 324.41 198.527 324.284 198.317C324.158 198.107 323.99 197.939 323.78 197.813C323.57 197.687 323.339 197.624 323.087 197.624C322.835 197.624 322.604 197.687 322.394 197.813C322.184 197.939 322.016 198.107 321.89 198.317C321.764 198.527 321.701 198.758 321.701 199.01C321.701 199.262 321.764 199.493 321.89 199.703C322.016 199.913 322.184 200.081 322.394 200.207C322.604 200.333 322.835 200.396 323.087 200.396Z" fill="#626262"/>
<path d="M348.9 208.982V207.092L354.444 202.151C354.876 201.767 355.176 201.404 355.344 201.062C355.512 200.72 355.596 200.39 355.596 200.072C355.596 199.64 355.503 199.256 355.317 198.92C355.131 198.578 354.873 198.308 354.543 198.11C354.219 197.912 353.844 197.813 353.418 197.813C352.968 197.813 352.569 197.918 352.221 198.128C351.879 198.332 351.612 198.605 351.42 198.947C351.228 199.289 351.138 199.658 351.15 200.054H348.918C348.918 199.19 349.11 198.437 349.494 197.795C349.884 197.153 350.418 196.655 351.096 196.301C351.78 195.947 352.569 195.77 353.463 195.77C354.291 195.77 355.035 195.956 355.695 196.328C356.355 196.694 356.874 197.204 357.252 197.858C357.63 198.506 357.819 199.253 357.819 200.099C357.819 200.717 357.735 201.236 357.567 201.656C357.399 202.076 357.147 202.463 356.811 202.817C356.481 203.171 356.07 203.564 355.578 203.996L351.645 207.479L351.447 206.939H357.819V208.982H348.9ZM364.645 209.27C363.727 209.27 362.917 209.075 362.215 208.685C361.513 208.289 360.964 207.74 360.568 207.038C360.178 206.336 359.983 205.526 359.983 204.608V200.432C359.983 199.514 360.178 198.704 360.568 198.002C360.964 197.3 361.513 196.754 362.215 196.364C362.917 195.968 363.727 195.77 364.645 195.77C365.563 195.77 366.37 195.968 367.066 196.364C367.768 196.754 368.317 197.3 368.713 198.002C369.109 198.704 369.307 199.514 369.307 200.432V204.608C369.307 205.526 369.109 206.336 368.713 207.038C368.317 207.74 367.768 208.289 367.066 208.685C366.37 209.075 365.563 209.27 364.645 209.27ZM364.645 207.209C365.101 207.209 365.515 207.101 365.887 206.885C366.259 206.663 366.553 206.369 366.769 206.003C366.985 205.631 367.093 205.217 367.093 204.761V200.27C367.093 199.808 366.985 199.394 366.769 199.028C366.553 198.656 366.259 198.362 365.887 198.146C365.515 197.924 365.101 197.813 364.645 197.813C364.189 197.813 363.775 197.924 363.403 198.146C363.031 198.362 362.737 198.656 362.521 199.028C362.305 199.394 362.197 199.808 362.197 200.27V204.761C362.197 205.217 362.305 205.631 362.521 206.003C362.737 206.369 363.031 206.663 363.403 206.885C363.775 207.101 364.189 207.209 364.645 207.209ZM374.35 202.25C373.756 202.25 373.213 202.106 372.721 201.818C372.229 201.524 371.836 201.134 371.542 200.648C371.254 200.156 371.11 199.61 371.11 199.01C371.11 198.422 371.26 197.882 371.56 197.39C371.86 196.898 372.256 196.505 372.748 196.211C373.24 195.917 373.774 195.77 374.35 195.77C374.944 195.77 375.484 195.917 375.97 196.211C376.462 196.499 376.855 196.889 377.149 197.381C377.443 197.867 377.59 198.41 377.59 199.01C377.59 199.61 377.443 200.156 377.149 200.648C376.855 201.134 376.462 201.524 375.97 201.818C375.484 202.106 374.944 202.25 374.35 202.25ZM374.35 200.396C374.602 200.396 374.833 200.333 375.043 200.207C375.253 200.081 375.421 199.913 375.547 199.703C375.673 199.493 375.736 199.262 375.736 199.01C375.736 198.758 375.673 198.527 375.547 198.317C375.421 198.107 375.253 197.939 375.043 197.813C374.833 197.687 374.602 197.624 374.35 197.624C374.098 197.624 373.867 197.687 373.657 197.813C373.447 197.939 373.279 198.107 373.153 198.317C373.027 198.527 372.964 198.758 372.964 199.01C372.964 199.262 373.027 199.493 373.153 199.703C373.279 199.913 373.447 200.081 373.657 200.207C373.867 200.333 374.098 200.396 374.35 200.396Z" fill="#626262"/>
<path d="M408.51 209V198.407L406.08 199.892V197.498L408.51 196.04H410.724V209H408.51ZM418.815 209.27C417.897 209.27 417.087 209.075 416.385 208.685C415.683 208.289 415.134 207.74 414.738 207.038C414.348 206.336 414.153 205.526 414.153 204.608V200.432C414.153 199.514 414.348 198.704 414.738 198.002C415.134 197.3 415.683 196.754 416.385 196.364C417.087 195.968 417.897 195.77 418.815 195.77C419.733 195.77 420.54 195.968 421.236 196.364C421.938 196.754 422.487 197.3 422.883 198.002C423.279 198.704 423.477 199.514 423.477 200.432V204.608C423.477 205.526 423.279 206.336 422.883 207.038C422.487 207.74 421.938 208.289 421.236 208.685C420.54 209.075 419.733 209.27 418.815 209.27ZM418.815 207.209C419.271 207.209 419.685 207.101 420.057 206.885C420.429 206.663 420.723 206.369 420.939 206.003C421.155 205.631 421.263 205.217 421.263 204.761V200.27C421.263 199.808 421.155 199.394 420.939 199.028C420.723 198.656 420.429 198.362 420.057 198.146C419.685 197.924 419.271 197.813 418.815 197.813C418.359 197.813 417.945 197.924 417.573 198.146C417.201 198.362 416.907 198.656 416.691 199.028C416.475 199.394 416.367 199.808 416.367 200.27V204.761C416.367 205.217 416.475 205.631 416.691 206.003C416.907 206.369 417.201 206.663 417.573 206.885C417.945 207.101 418.359 207.209 418.815 207.209ZM428.52 202.25C427.926 202.25 427.383 202.106 426.891 201.818C426.399 201.524 426.006 201.134 425.712 200.648C425.424 200.156 425.28 199.61 425.28 199.01C425.28 198.422 425.43 197.882 425.73 197.39C426.03 196.898 426.426 196.505 426.918 196.211C427.41 195.917 427.944 195.77 428.52 195.77C429.114 195.77 429.654 195.917 430.14 196.211C430.632 196.499 431.025 196.889 431.319 197.381C431.613 197.867 431.76 198.41 431.76 199.01C431.76 199.61 431.613 200.156 431.319 200.648C431.025 201.134 430.632 201.524 430.14 201.818C429.654 202.106 429.114 202.25 428.52 202.25ZM428.52 200.396C428.772 200.396 429.003 200.333 429.213 200.207C429.423 200.081 429.591 199.913 429.717 199.703C429.843 199.493 429.906 199.262 429.906 199.01C429.906 198.758 429.843 198.527 429.717 198.317C429.591 198.107 429.423 197.939 429.213 197.813C429.003 197.687 428.772 197.624 428.52 197.624C428.268 197.624 428.037 197.687 427.827 197.813C427.617 197.939 427.449 198.107 427.323 198.317C427.197 198.527 427.134 198.758 427.134 199.01C427.134 199.262 427.197 199.493 427.323 199.703C427.449 199.913 427.617 200.081 427.827 200.207C428.037 200.333 428.268 200.396 428.52 200.396Z" fill="#626262"/>
<path d="M472.922 209.27C472.004 209.27 471.194 209.075 470.492 208.685C469.79 208.289 469.241 207.74 468.845 207.038C468.455 206.336 468.26 205.526 468.26 204.608V200.432C468.26 199.514 468.455 198.704 468.845 198.002C469.241 197.3 469.79 196.754 470.492 196.364C471.194 195.968 472.004 195.77 472.922 195.77C473.84 195.77 474.647 195.968 475.343 196.364C476.045 196.754 476.594 197.3 476.99 198.002C477.386 198.704 477.584 199.514 477.584 200.432V204.608C477.584 205.526 477.386 206.336 476.99 207.038C476.594 207.74 476.045 208.289 475.343 208.685C474.647 209.075 473.84 209.27 472.922 209.27ZM472.922 207.209C473.378 207.209 473.792 207.101 474.164 206.885C474.536 206.663 474.83 206.369 475.046 206.003C475.262 205.631 475.37 205.217 475.37 204.761V200.27C475.37 199.808 475.262 199.394 475.046 199.028C474.83 198.656 474.536 198.362 474.164 198.146C473.792 197.924 473.378 197.813 472.922 197.813C472.466 197.813 472.052 197.924 471.68 198.146C471.308 198.362 471.014 198.656 470.798 199.028C470.582 199.394 470.474 199.808 470.474 200.27V204.761C470.474 205.217 470.582 205.631 470.798 206.003C471.014 206.369 471.308 206.663 471.68 206.885C472.052 207.101 472.466 207.209 472.922 207.209ZM482.628 202.25C482.034 202.25 481.491 202.106 480.999 201.818C480.507 201.524 480.114 201.134 479.82 200.648C479.532 200.156 479.388 199.61 479.388 199.01C479.388 198.422 479.538 197.882 479.838 197.39C480.138 196.898 480.534 196.505 481.026 196.211C481.518 195.917 482.052 195.77 482.628 195.77C483.222 195.77 483.762 195.917 484.248 196.211C484.74 196.499 485.133 196.889 485.427 197.381C485.721 197.867 485.868 198.41 485.868 199.01C485.868 199.61 485.721 200.156 485.427 200.648C485.133 201.134 484.74 201.524 484.248 201.818C483.762 202.106 483.222 202.25 482.628 202.25ZM482.628 200.396C482.88 200.396 483.111 200.333 483.321 200.207C483.531 200.081 483.699 199.913 483.825 199.703C483.951 199.493 484.014 199.262 484.014 199.01C484.014 198.758 483.951 198.527 483.825 198.317C483.699 198.107 483.531 197.939 483.321 197.813C483.111 197.687 482.88 197.624 482.628 197.624C482.376 197.624 482.145 197.687 481.935 197.813C481.725 197.939 481.557 198.107 481.431 198.317C481.305 198.527 481.242 198.758 481.242 199.01C481.242 199.262 481.305 199.493 481.431 199.703C481.557 199.913 481.725 200.081 481.935 200.207C482.145 200.333 482.376 200.396 482.628 200.396Z" fill="#626262"/>
<path d="M520.51 209V198.407L518.08 199.892V197.498L520.51 196.04H522.724V209H520.51ZM530.815 209.27C529.897 209.27 529.087 209.075 528.385 208.685C527.683 208.289 527.134 207.74 526.738 207.038C526.348 206.336 526.153 205.526 526.153 204.608V200.432C526.153 199.514 526.348 198.704 526.738 198.002C527.134 197.3 527.683 196.754 528.385 196.364C529.087 195.968 529.897 195.77 530.815 195.77C531.733 195.77 532.54 195.968 533.236 196.364C533.938 196.754 534.487 197.3 534.883 198.002C535.279 198.704 535.477 199.514 535.477 200.432V204.608C535.477 205.526 535.279 206.336 534.883 207.038C534.487 207.74 533.938 208.289 533.236 208.685C532.54 209.075 531.733 209.27 530.815 209.27ZM530.815 207.209C531.271 207.209 531.685 207.101 532.057 206.885C532.429 206.663 532.723 206.369 532.939 206.003C533.155 205.631 533.263 205.217 533.263 204.761V200.27C533.263 199.808 533.155 199.394 532.939 199.028C532.723 198.656 532.429 198.362 532.057 198.146C531.685 197.924 531.271 197.813 530.815 197.813C530.359 197.813 529.945 197.924 529.573 198.146C529.201 198.362 528.907 198.656 528.691 199.028C528.475 199.394 528.367 199.808 528.367 200.27V204.761C528.367 205.217 528.475 205.631 528.691 206.003C528.907 206.369 529.201 206.663 529.573 206.885C529.945 207.101 530.359 207.209 530.815 207.209ZM540.52 202.25C539.926 202.25 539.383 202.106 538.891 201.818C538.399 201.524 538.006 201.134 537.712 200.648C537.424 200.156 537.28 199.61 537.28 199.01C537.28 198.422 537.43 197.882 537.73 197.39C538.03 196.898 538.426 196.505 538.918 196.211C539.41 195.917 539.944 195.77 540.52 195.77C541.114 195.77 541.654 195.917 542.14 196.211C542.632 196.499 543.025 196.889 543.319 197.381C543.613 197.867 543.76 198.41 543.76 199.01C543.76 199.61 543.613 200.156 543.319 200.648C543.025 201.134 542.632 201.524 542.14 201.818C541.654 202.106 541.114 202.25 540.52 202.25ZM540.52 200.396C540.772 200.396 541.003 200.333 541.213 200.207C541.423 200.081 541.591 199.913 541.717 199.703C541.843 199.493 541.906 199.262 541.906 199.01C541.906 198.758 541.843 198.527 541.717 198.317C541.591 198.107 541.423 197.939 541.213 197.813C541.003 197.687 540.772 197.624 540.52 197.624C540.268 197.624 540.037 197.687 539.827 197.813C539.617 197.939 539.449 198.107 539.323 198.317C539.197 198.527 539.134 198.758 539.134 199.01C539.134 199.262 539.197 199.493 539.323 199.703C539.449 199.913 539.617 200.081 539.827 200.207C540.037 200.333 540.268 200.396 540.52 200.396Z" fill="#626262"/>
<path d="M568.9 208.982V207.092L574.444 202.151C574.876 201.767 575.176 201.404 575.344 201.062C575.512 200.72 575.596 200.39 575.596 200.072C575.596 199.64 575.503 199.256 575.317 198.92C575.131 198.578 574.873 198.308 574.543 198.11C574.219 197.912 573.844 197.813 573.418 197.813C572.968 197.813 572.569 197.918 572.221 198.128C571.879 198.332 571.612 198.605 571.42 198.947C571.228 199.289 571.138 199.658 571.15 200.054H568.918C568.918 199.19 569.11 198.437 569.494 197.795C569.884 197.153 570.418 196.655 571.096 196.301C571.78 195.947 572.569 195.77 573.463 195.77C574.291 195.77 575.035 195.956 575.695 196.328C576.355 196.694 576.874 197.204 577.252 197.858C577.63 198.506 577.819 199.253 577.819 200.099C577.819 200.717 577.735 201.236 577.567 201.656C577.399 202.076 577.147 202.463 576.811 202.817C576.481 203.171 576.07 203.564 575.578 203.996L571.645 207.479L571.447 206.939H577.819V208.982H568.9ZM584.645 209.27C583.727 209.27 582.917 209.075 582.215 208.685C581.513 208.289 580.964 207.74 580.568 207.038C580.178 206.336 579.983 205.526 579.983 204.608V200.432C579.983 199.514 580.178 198.704 580.568 198.002C580.964 197.3 581.513 196.754 582.215 196.364C582.917 195.968 583.727 195.77 584.645 195.77C585.563 195.77 586.37 195.968 587.066 196.364C587.768 196.754 588.317 197.3 588.713 198.002C589.109 198.704 589.307 199.514 589.307 200.432V204.608C589.307 205.526 589.109 206.336 588.713 207.038C588.317 207.74 587.768 208.289 587.066 208.685C586.37 209.075 585.563 209.27 584.645 209.27ZM584.645 207.209C585.101 207.209 585.515 207.101 585.887 206.885C586.259 206.663 586.553 206.369 586.769 206.003C586.985 205.631 587.093 205.217 587.093 204.761V200.27C587.093 199.808 586.985 199.394 586.769 199.028C586.553 198.656 586.259 198.362 585.887 198.146C585.515 197.924 585.101 197.813 584.645 197.813C584.189 197.813 583.775 197.924 583.403 198.146C583.031 198.362 582.737 198.656 582.521 199.028C582.305 199.394 582.197 199.808 582.197 200.27V204.761C582.197 205.217 582.305 205.631 582.521 206.003C582.737 206.369 583.031 206.663 583.403 206.885C583.775 207.101 584.189 207.209 584.645 207.209ZM594.35 202.25C593.756 202.25 593.213 202.106 592.721 201.818C592.229 201.524 591.836 201.134 591.542 200.648C591.254 200.156 591.11 199.61 591.11 199.01C591.11 198.422 591.26 197.882 591.56 197.39C591.86 196.898 592.256 196.505 592.748 196.211C593.24 195.917 593.774 195.77 594.35 195.77C594.944 195.77 595.484 195.917 595.97 196.211C596.462 196.499 596.855 196.889 597.149 197.381C597.443 197.867 597.59 198.41 597.59 199.01C597.59 199.61 597.443 200.156 597.149 200.648C596.855 201.134 596.462 201.524 595.97 201.818C595.484 202.106 594.944 202.25 594.35 202.25ZM594.35 200.396C594.602 200.396 594.833 200.333 595.043 200.207C595.253 200.081 595.421 199.913 595.547 199.703C595.673 199.493 595.736 199.262 595.736 199.01C595.736 198.758 595.673 198.527 595.547 198.317C595.421 198.107 595.253 197.939 595.043 197.813C594.833 197.687 594.602 197.624 594.35 197.624C594.098 197.624 593.867 197.687 593.657 197.813C593.447 197.939 593.279 198.107 593.153 198.317C593.027 198.527 592.964 198.758 592.964 199.01C592.964 199.262 593.027 199.493 593.153 199.703C593.279 199.913 593.447 200.081 593.657 200.207C593.867 200.333 594.098 200.396 594.35 200.396Z" fill="#626262"/>
<path d="M628.968 209.243C628.32 209.243 627.708 209.117 627.132 208.865C626.556 208.613 626.055 208.256 625.629 207.794C625.209 207.332 624.906 206.786 624.72 206.156L626.817 205.589C626.967 206.105 627.24 206.504 627.636 206.786C628.038 207.062 628.479 207.197 628.959 207.191C629.385 207.191 629.766 207.092 630.102 206.894C630.438 206.696 630.702 206.429 630.894 206.093C631.086 205.751 631.182 205.37 631.182 204.95C631.182 204.308 630.975 203.771 630.561 203.339C630.147 202.907 629.613 202.691 628.959 202.691C628.761 202.691 628.566 202.718 628.374 202.772C628.188 202.826 628.008 202.901 627.834 202.997L626.844 201.287L631.2 197.561L631.389 198.083H625.224V196.04H633.171V198.092L629.67 201.458L629.652 200.819C630.438 200.873 631.107 201.092 631.659 201.476C632.217 201.86 632.643 202.355 632.937 202.961C633.237 203.567 633.387 204.23 633.387 204.95C633.387 205.766 633.186 206.498 632.784 207.146C632.388 207.794 631.854 208.307 631.182 208.685C630.516 209.057 629.778 209.243 628.968 209.243ZM640.381 209.27C639.463 209.27 638.653 209.075 637.951 208.685C637.249 208.289 636.7 207.74 636.304 207.038C635.914 206.336 635.719 205.526 635.719 204.608V200.432C635.719 199.514 635.914 198.704 636.304 198.002C636.7 197.3 637.249 196.754 637.951 196.364C638.653 195.968 639.463 195.77 640.381 195.77C641.299 195.77 642.106 195.968 642.802 196.364C643.504 196.754 644.053 197.3 644.449 198.002C644.845 198.704 645.043 199.514 645.043 200.432V204.608C645.043 205.526 644.845 206.336 644.449 207.038C644.053 207.74 643.504 208.289 642.802 208.685C642.106 209.075 641.299 209.27 640.381 209.27ZM640.381 207.209C640.837 207.209 641.251 207.101 641.623 206.885C641.995 206.663 642.289 206.369 642.505 206.003C642.721 205.631 642.829 205.217 642.829 204.761V200.27C642.829 199.808 642.721 199.394 642.505 199.028C642.289 198.656 641.995 198.362 641.623 198.146C641.251 197.924 640.837 197.813 640.381 197.813C639.925 197.813 639.511 197.924 639.139 198.146C638.767 198.362 638.473 198.656 638.257 199.028C638.041 199.394 637.933 199.808 637.933 200.27V204.761C637.933 205.217 638.041 205.631 638.257 206.003C638.473 206.369 638.767 206.663 639.139 206.885C639.511 207.101 639.925 207.209 640.381 207.209ZM650.087 202.25C649.493 202.25 648.95 202.106 648.458 201.818C647.966 201.524 647.573 201.134 647.279 200.648C646.991 200.156 646.847 199.61 646.847 199.01C646.847 198.422 646.997 197.882 647.297 197.39C647.597 196.898 647.993 196.505 648.485 196.211C648.977 195.917 649.511 195.77 650.087 195.77C650.681 195.77 651.221 195.917 651.707 196.211C652.199 196.499 652.592 196.889 652.886 197.381C653.18 197.867 653.327 198.41 653.327 199.01C653.327 199.61 653.18 200.156 652.886 200.648C652.592 201.134 652.199 201.524 651.707 201.818C651.221 202.106 650.681 202.25 650.087 202.25ZM650.087 200.396C650.339 200.396 650.57 200.333 650.78 200.207C650.99 200.081 651.158 199.913 651.284 199.703C651.41 199.493 651.473 199.262 651.473 199.01C651.473 198.758 651.41 198.527 651.284 198.317C651.158 198.107 650.99 197.939 650.78 197.813C650.57 197.687 650.339 197.624 650.087 197.624C649.835 197.624 649.604 197.687 649.394 197.813C649.184 197.939 649.016 198.107 648.89 198.317C648.764 198.527 648.701 198.758 648.701 199.01C648.701 199.262 648.764 199.493 648.89 199.703C649.016 199.913 649.184 200.081 649.394 200.207C649.604 200.333 649.835 200.396 650.087 200.396Z" fill="#626262"/>
<path d="M683.642 209V206.858H677.9V204.833L682.049 196.04H684.524L680.375 204.833H683.642V201.458H685.838V204.833H687.053V206.858H685.838V209H683.642ZM693.873 209.27C692.955 209.27 692.145 209.075 691.443 208.685C690.741 208.289 690.192 207.74 689.796 207.038C689.406 206.336 689.211 205.526 689.211 204.608V200.432C689.211 199.514 689.406 198.704 689.796 198.002C690.192 197.3 690.741 196.754 691.443 196.364C692.145 195.968 692.955 195.77 693.873 195.77C694.791 195.77 695.598 195.968 696.294 196.364C696.996 196.754 697.545 197.3 697.941 198.002C698.337 198.704 698.535 199.514 698.535 200.432V204.608C698.535 205.526 698.337 206.336 697.941 207.038C697.545 207.74 696.996 208.289 696.294 208.685C695.598 209.075 694.791 209.27 693.873 209.27ZM693.873 207.209C694.329 207.209 694.743 207.101 695.115 206.885C695.487 206.663 695.781 206.369 695.997 206.003C696.213 205.631 696.321 205.217 696.321 204.761V200.27C696.321 199.808 696.213 199.394 695.997 199.028C695.781 198.656 695.487 198.362 695.115 198.146C694.743 197.924 694.329 197.813 693.873 197.813C693.417 197.813 693.003 197.924 692.631 198.146C692.259 198.362 691.965 198.656 691.749 199.028C691.533 199.394 691.425 199.808 691.425 200.27V204.761C691.425 205.217 691.533 205.631 691.749 206.003C691.965 206.369 692.259 206.663 692.631 206.885C693.003 207.101 693.417 207.209 693.873 207.209ZM703.579 202.25C702.985 202.25 702.442 202.106 701.95 201.818C701.458 201.524 701.065 201.134 700.771 200.648C700.483 200.156 700.339 199.61 700.339 199.01C700.339 198.422 700.489 197.882 700.789 197.39C701.089 196.898 701.485 196.505 701.977 196.211C702.469 195.917 703.003 195.77 703.579 195.77C704.173 195.77 704.713 195.917 705.199 196.211C705.691 196.499 706.084 196.889 706.378 197.381C706.672 197.867 706.819 198.41 706.819 199.01C706.819 199.61 706.672 200.156 706.378 200.648C706.084 201.134 705.691 201.524 705.199 201.818C704.713 202.106 704.173 202.25 703.579 202.25ZM703.579 200.396C703.831 200.396 704.062 200.333 704.272 200.207C704.482 200.081 704.65 199.913 704.776 199.703C704.902 199.493 704.965 199.262 704.965 199.01C704.965 198.758 704.902 198.527 704.776 198.317C704.65 198.107 704.482 197.939 704.272 197.813C704.062 197.687 703.831 197.624 703.579 197.624C703.327 197.624 703.096 197.687 702.886 197.813C702.676 197.939 702.508 198.107 702.382 198.317C702.256 198.527 702.193 198.758 702.193 199.01C702.193 199.262 702.256 199.493 702.382 199.703C702.508 199.913 702.676 200.081 702.886 200.207C703.096 200.333 703.327 200.396 703.579 200.396Z" fill="#626262"/>
<path d="M739.103 209.27C738.443 209.27 737.828 209.135 737.258 208.865C736.688 208.589 736.196 208.211 735.782 207.731C735.374 207.251 735.08 206.693 734.9 206.057L736.988 205.499C737.072 205.847 737.225 206.147 737.447 206.399C737.675 206.651 737.939 206.846 738.239 206.984C738.545 207.122 738.86 207.191 739.184 207.191C739.604 207.191 739.988 207.089 740.336 206.885C740.684 206.681 740.96 206.408 741.164 206.066C741.368 205.718 741.47 205.334 741.47 204.914C741.47 204.494 741.365 204.113 741.155 203.771C740.951 203.423 740.675 203.15 740.327 202.952C739.979 202.748 739.598 202.646 739.184 202.646C738.686 202.646 738.272 202.736 737.942 202.916C737.618 203.096 737.369 203.288 737.195 203.492L735.341 202.898L735.737 196.04H742.775V198.074H736.898L737.708 197.309L737.42 202.079L737.024 201.593C737.36 201.287 737.75 201.059 738.194 200.909C738.638 200.759 739.067 200.684 739.481 200.684C740.291 200.684 741.008 200.87 741.632 201.242C742.262 201.608 742.754 202.109 743.108 202.745C743.468 203.381 743.648 204.104 743.648 204.914C743.648 205.724 743.438 206.459 743.018 207.119C742.598 207.773 742.043 208.295 741.353 208.685C740.669 209.075 739.919 209.27 739.103 209.27ZM750.469 209.27C749.551 209.27 748.741 209.075 748.039 208.685C747.337 208.289 746.788 207.74 746.392 207.038C746.002 206.336 745.807 205.526 745.807 204.608V200.432C745.807 199.514 746.002 198.704 746.392 198.002C746.788 197.3 747.337 196.754 748.039 196.364C748.741 195.968 749.551 195.77 750.469 195.77C751.387 195.77 752.194 195.968 752.89 196.364C753.592 196.754 754.141 197.3 754.537 198.002C754.933 198.704 755.131 199.514 755.131 200.432V204.608C755.131 205.526 754.933 206.336 754.537 207.038C754.141 207.74 753.592 208.289 752.89 208.685C752.194 209.075 751.387 209.27 750.469 209.27ZM750.469 207.209C750.925 207.209 751.339 207.101 751.711 206.885C752.083 206.663 752.377 206.369 752.593 206.003C752.809 205.631 752.917 205.217 752.917 204.761V200.27C752.917 199.808 752.809 199.394 752.593 199.028C752.377 198.656 752.083 198.362 751.711 198.146C751.339 197.924 750.925 197.813 750.469 197.813C750.013 197.813 749.599 197.924 749.227 198.146C748.855 198.362 748.561 198.656 748.345 199.028C748.129 199.394 748.021 199.808 748.021 200.27V204.761C748.021 205.217 748.129 205.631 748.345 206.003C748.561 206.369 748.855 206.663 749.227 206.885C749.599 207.101 750.013 207.209 750.469 207.209ZM760.175 202.25C759.581 202.25 759.038 202.106 758.546 201.818C758.054 201.524 757.661 201.134 757.367 200.648C757.079 200.156 756.935 199.61 756.935 199.01C756.935 198.422 757.085 197.882 757.385 197.39C757.685 196.898 758.081 196.505 758.573 196.211C759.065 195.917 759.599 195.77 760.175 195.77C760.769 195.77 761.309 195.917 761.795 196.211C762.287 196.499 762.68 196.889 762.974 197.381C763.268 197.867 763.415 198.41 763.415 199.01C763.415 199.61 763.268 200.156 762.974 200.648C762.68 201.134 762.287 201.524 761.795 201.818C761.309 202.106 760.769 202.25 760.175 202.25ZM760.175 200.396C760.427 200.396 760.658 200.333 760.868 200.207C761.078 200.081 761.246 199.913 761.372 199.703C761.498 199.493 761.561 199.262 761.561 199.01C761.561 198.758 761.498 198.527 761.372 198.317C761.246 198.107 761.078 197.939 760.868 197.813C760.658 197.687 760.427 197.624 760.175 197.624C759.923 197.624 759.692 197.687 759.482 197.813C759.272 197.939 759.104 198.107 758.978 198.317C758.852 198.527 758.789 198.758 758.789 199.01C758.789 199.262 758.852 199.493 758.978 199.703C759.104 199.913 759.272 200.081 759.482 200.207C759.692 200.333 759.923 200.396 760.175 200.396Z" fill="#626262"/>
<path d="M794.742 209.27C793.896 209.27 793.134 209.072 792.456 208.676C791.784 208.274 791.25 207.719 790.854 207.011C790.458 206.303 790.26 205.49 790.26 204.572V200.63C790.26 199.646 790.455 198.791 790.845 198.065C791.241 197.339 791.793 196.778 792.501 196.382C793.215 195.986 794.043 195.788 794.985 195.788C795.639 195.788 796.26 195.899 796.848 196.121C797.436 196.337 797.958 196.685 798.414 197.165L796.848 198.686C796.62 198.416 796.341 198.203 796.011 198.047C795.687 197.891 795.345 197.813 794.985 197.813C794.481 197.813 794.04 197.933 793.662 198.173C793.284 198.407 792.99 198.716 792.78 199.1C792.576 199.484 792.474 199.895 792.474 200.333V202.484L792.078 202.052C792.45 201.62 792.897 201.284 793.419 201.044C793.941 200.798 794.487 200.675 795.057 200.675C795.873 200.675 796.593 200.861 797.217 201.233C797.841 201.599 798.333 202.103 798.693 202.745C799.053 203.381 799.233 204.107 799.233 204.923C799.233 205.733 799.026 206.468 798.612 207.128C798.204 207.782 797.661 208.304 796.983 208.694C796.305 209.078 795.558 209.27 794.742 209.27ZM794.742 207.191C795.162 207.191 795.546 207.092 795.894 206.894C796.242 206.69 796.518 206.417 796.722 206.075C796.932 205.727 797.037 205.343 797.037 204.923C797.037 204.503 796.935 204.119 796.731 203.771C796.527 203.423 796.251 203.147 795.903 202.943C795.561 202.733 795.18 202.628 794.76 202.628C794.34 202.628 793.956 202.733 793.608 202.943C793.26 203.147 792.984 203.423 792.78 203.771C792.576 204.119 792.474 204.503 792.474 204.923C792.474 205.331 792.573 205.709 792.771 206.057C792.975 206.399 793.248 206.675 793.59 206.885C793.938 207.089 794.322 207.191 794.742 207.191ZM806.102 209.27C805.184 209.27 804.374 209.075 803.672 208.685C802.97 208.289 802.421 207.74 802.025 207.038C801.635 206.336 801.44 205.526 801.44 204.608V200.432C801.44 199.514 801.635 198.704 802.025 198.002C802.421 197.3 802.97 196.754 803.672 196.364C804.374 195.968 805.184 195.77 806.102 195.77C807.02 195.77 807.827 195.968 808.523 196.364C809.225 196.754 809.774 197.3 810.17 198.002C810.566 198.704 810.764 199.514 810.764 200.432V204.608C810.764 205.526 810.566 206.336 810.17 207.038C809.774 207.74 809.225 208.289 808.523 208.685C807.827 209.075 807.02 209.27 806.102 209.27ZM806.102 207.209C806.558 207.209 806.972 207.101 807.344 206.885C807.716 206.663 808.01 206.369 808.226 206.003C808.442 205.631 808.55 205.217 808.55 204.761V200.27C808.55 199.808 808.442 199.394 808.226 199.028C808.01 198.656 807.716 198.362 807.344 198.146C806.972 197.924 806.558 197.813 806.102 197.813C805.646 197.813 805.232 197.924 804.86 198.146C804.488 198.362 804.194 198.656 803.978 199.028C803.762 199.394 803.654 199.808 803.654 200.27V204.761C803.654 205.217 803.762 205.631 803.978 206.003C804.194 206.369 804.488 206.663 804.86 206.885C805.232 207.101 805.646 207.209 806.102 207.209ZM815.807 202.25C815.213 202.25 814.67 202.106 814.178 201.818C813.686 201.524 813.293 201.134 812.999 200.648C812.711 200.156 812.567 199.61 812.567 199.01C812.567 198.422 812.717 197.882 813.017 197.39C813.317 196.898 813.713 196.505 814.205 196.211C814.697 195.917 815.231 195.77 815.807 195.77C816.401 195.77 816.941 195.917 817.427 196.211C817.919 196.499 818.312 196.889 818.606 197.381C818.9 197.867 819.047 198.41 819.047 199.01C819.047 199.61 818.9 200.156 818.606 200.648C818.312 201.134 817.919 201.524 817.427 201.818C816.941 202.106 816.401 202.25 815.807 202.25ZM815.807 200.396C816.059 200.396 816.29 200.333 816.5 200.207C816.71 200.081 816.878 199.913 817.004 199.703C817.13 199.493 817.193 199.262 817.193 199.01C817.193 198.758 817.13 198.527 817.004 198.317C816.878 198.107 816.71 197.939 816.5 197.813C816.29 197.687 816.059 197.624 815.807 197.624C815.555 197.624 815.324 197.687 815.114 197.813C814.904 197.939 814.736 198.107 814.61 198.317C814.484 198.527 814.421 198.758 814.421 199.01C814.421 199.262 814.484 199.493 814.61 199.703C814.736 199.913 814.904 200.081 815.114 200.207C815.324 200.333 815.555 200.396 815.807 200.396Z" fill="#626262"/>
<path d="M842.917 209L847.381 198.092H841.72V196.04H849.703V198.092L845.257 209H842.917ZM856.52 209.27C855.602 209.27 854.792 209.075 854.09 208.685C853.388 208.289 852.839 207.74 852.443 207.038C852.053 206.336 851.858 205.526 851.858 204.608V200.432C851.858 199.514 852.053 198.704 852.443 198.002C852.839 197.3 853.388 196.754 854.09 196.364C854.792 195.968 855.602 195.77 856.52 195.77C857.438 195.77 858.245 195.968 858.941 196.364C859.643 196.754 860.192 197.3 860.588 198.002C860.984 198.704 861.182 199.514 861.182 200.432V204.608C861.182 205.526 860.984 206.336 860.588 207.038C860.192 207.74 859.643 208.289 858.941 208.685C858.245 209.075 857.438 209.27 856.52 209.27ZM856.52 207.209C856.976 207.209 857.39 207.101 857.762 206.885C858.134 206.663 858.428 206.369 858.644 206.003C858.86 205.631 858.968 205.217 858.968 204.761V200.27C858.968 199.808 858.86 199.394 858.644 199.028C858.428 198.656 858.134 198.362 857.762 198.146C857.39 197.924 856.976 197.813 856.52 197.813C856.064 197.813 855.65 197.924 855.278 198.146C854.906 198.362 854.612 198.656 854.396 199.028C854.18 199.394 854.072 199.808 854.072 200.27V204.761C854.072 205.217 854.18 205.631 854.396 206.003C854.612 206.369 854.906 206.663 855.278 206.885C855.65 207.101 856.064 207.209 856.52 207.209ZM866.225 202.25C865.631 202.25 865.088 202.106 864.596 201.818C864.104 201.524 863.711 201.134 863.417 200.648C863.129 200.156 862.985 199.61 862.985 199.01C862.985 198.422 863.135 197.882 863.435 197.39C863.735 196.898 864.131 196.505 864.623 196.211C865.115 195.917 865.649 195.77 866.225 195.77C866.819 195.77 867.359 195.917 867.845 196.211C868.337 196.499 868.73 196.889 869.024 197.381C869.318 197.867 869.465 198.41 869.465 199.01C869.465 199.61 869.318 200.156 869.024 200.648C868.73 201.134 868.337 201.524 867.845 201.818C867.359 202.106 866.819 202.25 866.225 202.25ZM866.225 200.396C866.477 200.396 866.708 200.333 866.918 200.207C867.128 200.081 867.296 199.913 867.422 199.703C867.548 199.493 867.611 199.262 867.611 199.01C867.611 198.758 867.548 198.527 867.422 198.317C867.296 198.107 867.128 197.939 866.918 197.813C866.708 197.687 866.477 197.624 866.225 197.624C865.973 197.624 865.742 197.687 865.532 197.813C865.322 197.939 865.154 198.107 865.028 198.317C864.902 198.527 864.839 198.758 864.839 199.01C864.839 199.262 864.902 199.493 865.028 199.703C865.154 199.913 865.322 200.081 865.532 200.207C865.742 200.333 865.973 200.396 866.225 200.396Z" fill="#626262"/>
<g opacity="0.5">
<mask id="path-22-inside-1_731_10073" fill="white">
<path d="M425.528 121.06C631.22 119.153 809.755 163.085 851.5 183.736L36.5341 184.998C94.6362 165.936 219.837 122.966 425.528 121.06Z"/>
</mask>
<path d="M425.528 121.06C631.22 119.153 809.755 163.085 851.5 183.736L36.5341 184.998C94.6362 165.936 219.837 122.966 425.528 121.06Z" fill="#626262"/>
<path d="M851.5 183.736L851.506 187.736L853.274 180.15L851.5 183.736ZM425.528 121.06L425.565 125.06L425.528 121.06ZM36.5341 184.998L35.2872 181.197L36.5403 188.998L36.5341 184.998ZM853.274 180.15C831.853 169.554 776.297 153.333 700.689 140C624.923 126.638 528.619 116.104 425.491 117.06L425.565 125.06C528.129 124.109 623.938 134.588 699.299 147.878C774.818 161.196 829.402 177.267 849.726 187.321L853.274 180.15ZM425.491 117.06C219.193 118.972 93.5364 162.087 35.2872 181.197L37.7811 188.799C95.736 169.785 220.48 126.96 425.565 125.06L425.491 117.06ZM36.5403 188.998L851.506 187.736L851.494 179.736L36.5279 180.998L36.5403 188.998Z" fill="#626262" mask="url(#path-22-inside-1_731_10073)"/>
</g>
<line x1="36.5332" y1="56.5" x2="851.325" y2="56.5" stroke="#626262"/>
<line x1="36.5332" y1="88.498" x2="851.325" y2="88.498" stroke="#626262"/>
<line x1="36.5332" y1="120.498" x2="851.325" y2="120.498" stroke="#626262"/>
<line x1="36.5332" y1="152.498" x2="851.325" y2="152.498" stroke="#626262"/>
<line x1="36.5332" y1="184.498" x2="851.325" y2="184.498" stroke="#626262"/>
<line x1="37.0332" y1="57" x2="37.0332" y2="184.999" stroke="#626262"/>
<line x1="91.3516" y1="57" x2="91.3516" y2="184.999" stroke="#626262"/>
<line x1="145.672" y1="57" x2="145.672" y2="184.999" stroke="#626262"/>
<line x1="199.992" y1="57" x2="199.992" y2="184.999" stroke="#626262"/>
<line x1="254.312" y1="57" x2="254.312" y2="184.999" stroke="#626262"/>
<line x1="308.631" y1="57" x2="308.631" y2="184.999" stroke="#626262"/>
<line x1="362.949" y1="57" x2="362.949" y2="184.999" stroke="#626262"/>
<line x1="417.27" y1="57" x2="417.27" y2="184.999" stroke="#626262"/>
<line x1="471.588" y1="57" x2="471.588" y2="184.999" stroke="#626262"/>
<line x1="525.91" y1="57" x2="525.91" y2="184.999" stroke="#626262"/>
<line x1="580.229" y1="57" x2="580.229" y2="184.999" stroke="#626262"/>
<line x1="634.547" y1="57" x2="634.547" y2="184.999" stroke="#626262"/>
<line x1="688.867" y1="57" x2="688.867" y2="184.999" stroke="#626262"/>
<line x1="743.186" y1="57" x2="743.186" y2="184.999" stroke="#626262"/>
<line x1="797.508" y1="57" x2="797.508" y2="184.999" stroke="#626262"/>
<line x1="851.826" y1="57" x2="851.826" y2="184.999" stroke="#626262"/>
</svg>
