<svg width="856" height="119" viewBox="0 0 856 119" fill="none" xmlns="http://www.w3.org/2000/svg">
<line x1="242" y1="37.3516" x2="613.492" y2="37.3516" stroke="#626262" stroke-width="8" stroke-linecap="round"/>
<line opacity="0.5" x1="2.67844" y1="74.0496" x2="239.813" y2="38.1867" stroke="#626262" stroke-width="4" stroke-linecap="round"/>
<line opacity="0.5" x1="2" y1="-2" x2="241.831" y2="-2" transform="matrix(-0.988757 -0.149534 -0.149534 0.988757 855.23 76.3262)" stroke="#626262" stroke-width="4" stroke-linecap="round"/>
<path opacity="0.5" d="M121.543 58.8407L134.111 78.2156L144.606 57.6443L121.543 58.8407ZM714.593 56.9805L691.68 54.0897L700.633 75.3778L714.593 56.9805ZM136.777 68.8541C184.386 89.6576 300.343 120.445 431.485 118.881L431.438 114.881C300.831 116.439 185.44 85.7528 138.378 65.1887L136.777 68.8541ZM431.485 118.881C564.276 117.297 651.133 85.5174 698.769 65.8046L697.24 62.1085C649.893 81.7013 563.555 113.305 431.438 114.881L431.485 118.881Z" fill="#626262"/>
<path d="M372.82 27V8.28H387.991V27H384.858V11.218H375.953V27H372.82ZM397.835 27.39C396.431 27.39 395.205 27.0737 394.156 26.441C393.108 25.8083 392.293 24.9373 391.712 23.828C391.14 22.71 390.854 21.4273 390.854 19.98C390.854 18.5067 391.149 17.2153 391.738 16.106C392.328 14.9967 393.147 14.13 394.195 13.506C395.244 12.882 396.457 12.57 397.835 12.57C399.248 12.57 400.479 12.8863 401.527 13.519C402.576 14.1517 403.391 15.027 403.971 16.145C404.552 17.2543 404.842 18.5327 404.842 19.98C404.842 21.436 404.548 22.723 403.958 23.841C403.378 24.9503 402.563 25.8213 401.514 26.454C400.466 27.078 399.239 27.39 397.835 27.39ZM397.835 24.452C399.083 24.452 400.011 24.036 400.617 23.204C401.224 22.372 401.527 21.2973 401.527 19.98C401.527 18.6193 401.22 17.536 400.604 16.73C399.989 15.9153 399.066 15.508 397.835 15.508C396.995 15.508 396.301 15.6987 395.755 16.08C395.218 16.4527 394.819 16.977 394.559 17.653C394.299 18.3203 394.169 19.096 394.169 19.98C394.169 21.3407 394.477 22.4283 395.092 23.243C395.716 24.049 396.631 24.452 397.835 24.452ZM406.407 27V24.374C406.918 24.4693 407.312 24.4607 407.59 24.348C407.867 24.2267 408.075 24.0013 408.214 23.672C408.352 23.3427 408.474 22.905 408.578 22.359C408.716 21.5877 408.838 20.6993 408.942 19.694C409.054 18.6887 409.15 17.614 409.228 16.47C409.314 15.326 409.392 14.156 409.462 12.96H419.797V27H416.677V15.898H412.218C412.174 16.4613 412.122 17.094 412.062 17.796C412.001 18.4893 411.936 19.1913 411.867 19.902C411.797 20.6127 411.719 21.2887 411.633 21.93C411.555 22.5627 411.472 23.1043 411.386 23.555C411.186 24.569 410.9 25.3707 410.528 25.96C410.164 26.5493 409.652 26.9263 408.994 27.091C408.335 27.2643 407.473 27.234 406.407 27ZM429.65 27.39C428.246 27.39 427.02 27.0737 425.971 26.441C424.922 25.8083 424.108 24.9373 423.527 23.828C422.955 22.71 422.669 21.4273 422.669 19.98C422.669 18.5067 422.964 17.2153 423.553 16.106C424.142 14.9967 424.961 14.13 426.01 13.506C427.059 12.882 428.272 12.57 429.65 12.57C431.063 12.57 432.293 12.8863 433.342 13.519C434.391 14.1517 435.205 15.027 435.786 16.145C436.367 17.2543 436.657 18.5327 436.657 19.98C436.657 21.436 436.362 22.723 435.773 23.841C435.192 24.9503 434.378 25.8213 433.329 26.454C432.28 27.078 431.054 27.39 429.65 27.39ZM429.65 24.452C430.898 24.452 431.825 24.036 432.432 23.204C433.039 22.372 433.342 21.2973 433.342 19.98C433.342 18.6193 433.034 17.536 432.419 16.73C431.804 15.9153 430.881 15.508 429.65 15.508C428.809 15.508 428.116 15.6987 427.57 16.08C427.033 16.4527 426.634 16.977 426.374 17.653C426.114 18.3203 425.984 19.096 425.984 19.98C425.984 21.3407 426.292 22.4283 426.907 23.243C427.531 24.049 428.445 24.452 429.65 24.452ZM442.765 27V15.742H438.072V12.96H450.591V15.742H445.898V27H442.765ZM453.028 27V12.96H456.161V18.498H462.466V12.96H465.599V27H462.466V21.436H456.161V27H453.028ZM475.429 27.39C474.025 27.39 472.799 27.0737 471.75 26.441C470.702 25.8083 469.887 24.9373 469.306 23.828C468.734 22.71 468.448 21.4273 468.448 19.98C468.448 18.5067 468.743 17.2153 469.332 16.106C469.922 14.9967 470.741 14.13 471.789 13.506C472.838 12.882 474.051 12.57 475.429 12.57C476.842 12.57 478.073 12.8863 479.121 13.519C480.17 14.1517 480.985 15.027 481.565 16.145C482.146 17.2543 482.436 18.5327 482.436 19.98C482.436 21.436 482.142 22.723 481.552 23.841C480.972 24.9503 480.157 25.8213 479.108 26.454C478.06 27.078 476.833 27.39 475.429 27.39ZM475.429 24.452C476.677 24.452 477.605 24.036 478.211 23.204C478.818 22.372 479.121 21.2973 479.121 19.98C479.121 18.6193 478.814 17.536 478.198 16.73C477.583 15.9153 476.66 15.508 475.429 15.508C474.589 15.508 473.895 15.6987 473.349 16.08C472.812 16.4527 472.413 16.977 472.153 17.653C471.893 18.3203 471.763 19.096 471.763 19.98C471.763 21.3407 472.071 22.4283 472.686 23.243C473.31 24.049 474.225 24.452 475.429 24.452Z" fill="black"/>
<path d="M409.9 108V96.23L407.2 97.88V95.22L409.9 93.6H412.36V108H409.9ZM421.15 108.3C420.21 108.3 419.363 108.08 418.61 107.64C417.863 107.193 417.27 106.577 416.83 105.79C416.39 105.003 416.17 104.1 416.17 103.08V98.7C416.17 97.6067 416.386 96.6567 416.82 95.85C417.26 95.0433 417.873 94.42 418.66 93.98C419.453 93.54 420.373 93.32 421.42 93.32C422.146 93.32 422.836 93.4433 423.49 93.69C424.143 93.93 424.723 94.3167 425.23 94.85L423.49 96.54C423.236 96.24 422.926 96.0033 422.56 95.83C422.2 95.6567 421.82 95.57 421.42 95.57C420.86 95.57 420.37 95.7033 419.95 95.97C419.53 96.23 419.203 96.5733 418.97 97C418.743 97.4267 418.63 97.8833 418.63 98.37V100.76L418.19 100.28C418.603 99.8 419.1 99.4267 419.68 99.16C420.26 98.8867 420.866 98.75 421.5 98.75C422.406 98.75 423.206 98.9567 423.9 99.37C424.593 99.7767 425.14 100.337 425.54 101.05C425.94 101.757 426.14 102.563 426.14 103.47C426.14 104.37 425.91 105.187 425.45 105.92C424.996 106.647 424.393 107.227 423.64 107.66C422.886 108.087 422.056 108.3 421.15 108.3ZM421.15 105.99C421.616 105.99 422.043 105.88 422.43 105.66C422.816 105.433 423.123 105.13 423.35 104.75C423.583 104.363 423.7 103.937 423.7 103.47C423.7 103.003 423.586 102.577 423.36 102.19C423.133 101.803 422.826 101.497 422.44 101.27C422.06 101.037 421.636 100.92 421.17 100.92C420.703 100.92 420.276 101.037 419.89 101.27C419.503 101.497 419.196 101.803 418.97 102.19C418.743 102.577 418.63 103.003 418.63 103.47C418.63 103.923 418.74 104.343 418.96 104.73C419.186 105.11 419.49 105.417 419.87 105.65C420.256 105.877 420.683 105.99 421.15 105.99ZM433.771 108.3C432.751 108.3 431.851 108.083 431.071 107.65C430.291 107.21 429.681 106.6 429.241 105.82C428.808 105.04 428.591 104.14 428.591 103.12V98.48C428.591 97.46 428.808 96.56 429.241 95.78C429.681 95 430.291 94.3933 431.071 93.96C431.851 93.52 432.751 93.3 433.771 93.3C434.791 93.3 435.688 93.52 436.461 93.96C437.241 94.3933 437.851 95 438.291 95.78C438.731 96.56 438.951 97.46 438.951 98.48V103.12C438.951 104.14 438.731 105.04 438.291 105.82C437.851 106.6 437.241 107.21 436.461 107.65C435.688 108.083 434.791 108.3 433.771 108.3ZM433.771 106.01C434.278 106.01 434.738 105.89 435.151 105.65C435.565 105.403 435.891 105.077 436.131 104.67C436.371 104.257 436.491 103.797 436.491 103.29V98.3C436.491 97.7867 436.371 97.3267 436.131 96.92C435.891 96.5067 435.565 96.18 435.151 95.94C434.738 95.6933 434.278 95.57 433.771 95.57C433.265 95.57 432.805 95.6933 432.391 95.94C431.978 96.18 431.651 96.5067 431.411 96.92C431.171 97.3267 431.051 97.7867 431.051 98.3V103.29C431.051 103.797 431.171 104.257 431.411 104.67C431.651 105.077 431.978 105.403 432.391 105.65C432.805 105.89 433.265 106.01 433.771 106.01ZM444.555 100.5C443.895 100.5 443.292 100.34 442.745 100.02C442.199 99.6933 441.762 99.26 441.435 98.72C441.115 98.1733 440.955 97.5667 440.955 96.9C440.955 96.2467 441.122 95.6467 441.455 95.1C441.789 94.5533 442.229 94.1167 442.775 93.79C443.322 93.4633 443.915 93.3 444.555 93.3C445.215 93.3 445.815 93.4633 446.355 93.79C446.902 94.11 447.339 94.5433 447.665 95.09C447.992 95.63 448.155 96.2333 448.155 96.9C448.155 97.5667 447.992 98.1733 447.665 98.72C447.339 99.26 446.902 99.6933 446.355 100.02C445.815 100.34 445.215 100.5 444.555 100.5ZM444.555 98.44C444.835 98.44 445.092 98.37 445.325 98.23C445.559 98.09 445.745 97.9033 445.885 97.67C446.025 97.4367 446.095 97.18 446.095 96.9C446.095 96.62 446.025 96.3633 445.885 96.13C445.745 95.8967 445.559 95.71 445.325 95.57C445.092 95.43 444.835 95.36 444.555 95.36C444.275 95.36 444.019 95.43 443.785 95.57C443.552 95.71 443.365 95.8967 443.225 96.13C443.085 96.3633 443.015 96.62 443.015 96.9C443.015 97.18 443.085 97.4367 443.225 97.67C443.365 97.9033 443.552 98.09 443.785 98.23C444.019 98.37 444.275 98.44 444.555 98.44Z" fill="black"/>
</svg>
