<svg width="341" height="471" viewBox="0 0 341 471" fill="none" xmlns="http://www.w3.org/2000/svg">
<path d="M439.993 222.548L403.49 180.943L408.593 125.796C409.574 115.984 402.901 106.956 393.481 104.798L339.316 92.4338L311.056 44.745C305.954 36.3063 295.553 32.7738 286.525 36.6988L235.5 58.875L184.671 37.0913C175.644 33.1663 165.046 36.6988 160.14 45.1375L131.684 92.63L77.7151 104.798C68.0988 106.956 61.4263 115.788 62.4076 125.796L67.5101 180.746L31.0076 222.548C24.5313 230.005 24.5313 240.995 31.0076 248.452L67.5101 290.057L62.4076 345.4C61.4263 355.212 68.0988 364.24 77.5188 366.399L131.684 378.762L159.944 426.255C165.046 434.694 175.448 438.226 184.671 434.301L235.5 412.125L286.329 433.909C295.356 437.834 305.954 434.301 310.86 425.863L339.12 378.174L393.285 365.81C402.901 363.651 409.378 354.624 408.396 344.811L403.294 289.665L439.796 248.06C446.469 240.995 446.469 230.005 439.993 222.548ZM255.125 333.625H215.875V294.375H255.125V333.625ZM235.5 255.125C224.706 255.125 215.875 246.294 215.875 235.5V157C215.875 146.206 224.706 137.375 235.5 137.375C246.294 137.375 255.125 146.206 255.125 157V235.5C255.125 246.294 246.294 255.125 235.5 255.125Z" fill="#FFB156"/>
</svg>
