<svg width="158" height="158" viewBox="0 0 158 158" fill="none" xmlns="http://www.w3.org/2000/svg">
<circle cx="79" cy="79" r="78.5" stroke="#DFC7B6"/>
<path d="M79.3576 19.9297L81.7302 54.5109L90.6044 21.0036L86.3896 55.4089L101.445 24.1866L90.7948 57.1725L111.487 29.3637L94.7867 59.7379L120.368 36.3476L98.2209 63.0125L127.766 44.886L100.973 66.8778L133.415 54.6704L102.945 71.1941L137.11 65.347L104.063 75.8055L138.718 76.5299L104.289 80.5452L138.181 87.8151L103.614 85.2421L135.517 98.7946L102.062 89.7263L130.824 109.072L99.6892 93.8357L124.27 118.275L96.5818 97.4218L116.094 126.071L92.8519 100.355L106.589 132.179L88.6342 102.529L96.1004 136.378L84.0813 103.866L85.0066 138.516L79.3576 104.317L73.7086 138.516L74.634 103.866L62.6148 136.378L70.081 102.529L52.1262 132.179L65.8634 100.355L42.6217 126.071L62.1334 97.4218L34.445 118.275L59.026 93.8357L27.8915 109.072L56.6535 89.7263L23.1982 98.7946L55.1015 85.2421L20.5346 87.8151L54.4262 80.5452L19.997 76.5299L54.6519 75.8055L21.6049 65.347L55.7707 71.1941L25.3001 54.6704L57.7419 66.8778L30.9491 44.886L60.4943 63.0125L38.3476 36.3476L63.9285 59.7379L47.2285 29.3637L67.9204 57.1725L57.2705 24.1866L72.3256 55.4089L68.1108 21.0036L76.985 54.5109L79.3576 19.9297Z" fill="#FBCBB1"/>
</svg>
