<svg width="106" height="88" viewBox="0 0 106 88" fill="none" xmlns="http://www.w3.org/2000/svg">
<path d="M5.42553 9.2082H1V1H105V9.2082H100.083M5.42553 9.2082L5.50558 87M5.42553 9.2082H100.083M5.50558 87H100.163M5.50558 87H1H52.8342H105H100.163M100.163 87L100.083 9.2082" stroke="#6C6C6C"/>
<rect x="1" y="1" width="104" height="8" rx="1" fill="#6C6C6C"/>
<path d="M42.07 59V43.699L38.56 45.844V42.386L42.07 40.28H45.268V59H42.07ZM51.2604 57.31V54.099H54.4714V57.31H51.2604ZM51.2864 49.861V46.65H54.4974V49.861H51.2864ZM62.3825 59V43.699L58.8725 45.844V42.386L62.3825 40.28H65.5805V59H62.3825Z" fill="black"/>
</svg>
