<svg width="124" height="88" viewBox="0 0 124 88" fill="none" xmlns="http://www.w3.org/2000/svg">
<path d="M6.17975 9.2082H0.984375V1H123.076V9.2082H117.303M6.17975 9.2082L6.27372 87M6.17975 9.2082H117.303M6.27372 87H117.397M6.27372 87H0.984375H61.8353H123.076H117.397M117.397 87L117.303 9.2082" stroke="#6C6C6C"/>
<rect x="0.640625" y="1" width="122.162" height="8.39024" rx="1" fill="#6C6C6C"/>
<path d="M49.176 56.351C48.24 56.351 47.356 56.169 46.524 55.805C45.692 55.441 44.9683 54.9253 44.353 54.258C43.7463 53.5907 43.3087 52.802 43.04 51.892L46.069 51.073C46.2857 51.8183 46.68 52.3947 47.252 52.802C47.8327 53.2007 48.4697 53.3957 49.163 53.387C49.7783 53.387 50.3287 53.244 50.814 52.958C51.2993 52.672 51.6807 52.2863 51.958 51.801C52.2353 51.307 52.374 50.7567 52.374 50.15C52.374 49.2227 52.075 48.447 51.477 47.823C50.879 47.199 50.1077 46.887 49.163 46.887C48.877 46.887 48.5953 46.926 48.318 47.004C48.0493 47.082 47.7893 47.1903 47.538 47.329L46.108 44.859L52.4 39.477L52.673 40.231H43.768V37.28H55.247V40.244L50.19 45.106L50.164 44.183C51.2993 44.261 52.2657 44.5773 53.063 45.132C53.869 45.6867 54.4843 46.4017 54.909 47.277C55.3423 48.1523 55.559 49.11 55.559 50.15C55.559 51.3287 55.2687 52.386 54.688 53.322C54.116 54.258 53.3447 54.999 52.374 55.545C51.412 56.0823 50.346 56.351 49.176 56.351ZM59.9674 54.31V51.099H63.1784V54.31H59.9674ZM59.9934 46.861V43.65H63.2044V46.861H59.9934ZM75.6135 56V52.906H67.3195V49.981L73.3125 37.28H76.8875L70.8945 49.981H75.6135V45.106H78.7855V49.981H80.5405V52.906H78.7855V56H75.6135Z" fill="black"/>
</svg>
