<svg width="76" height="60" viewBox="0 0 76 60" fill="none" xmlns="http://www.w3.org/2000/svg">
<path d="M4.14712 6.53576H1V1H74.9572V6.53576H71.4604M4.14712 6.53576L4.20404 59M4.14712 6.53576H71.4604M4.20404 59H71.5174M4.20404 59H1H37.8607H74.9572H71.5174M71.5174 59L71.4604 6.53576" stroke="#6C6C6C" stroke-width="0.7141"/>
<rect x="1" y="1" width="73.9999" height="5.65854" rx="0.7141" fill="#6C6C6C"/>
<path d="M30.4101 36.1094V24.9279L27.8451 26.4954V23.9684L30.4101 22.4294H32.7471V36.1094H30.4101ZM37.1261 34.8744V32.5279H39.4726V34.8744H37.1261ZM37.1451 29.4309V27.0844H39.4916V29.4309H37.1451ZM45.2538 36.1094V24.9279L42.6888 26.4954V23.9684L45.2538 22.4294H47.5908V36.1094H45.2538Z" fill="black"/>
</svg>
