<svg width="119" height="60" viewBox="0 0 119 60" fill="none" xmlns="http://www.w3.org/2000/svg">
<path d="M6.09261 6.53576H1.10547V1H118.303V6.53576H112.762M6.09261 6.53576L6.18282 59M6.09261 6.53576H112.762M6.18282 59H112.852M6.18282 59H1.10547H59.5175H118.303H112.852M112.852 59L112.762 6.53576" stroke="#6C6C6C" stroke-width="0.710145"/>
<rect x="1" y="1" width="117.265" height="5.65854" rx="0.710145" fill="#6C6C6C"/>
<path d="M44.4715 35.1094V24.2434L41.9789 25.7667V23.311L44.4715 21.8155H46.7426V35.1094H44.4715ZM54.857 35.3863C53.9892 35.3863 53.2075 35.1832 52.5121 34.777C51.8228 34.3647 51.275 33.7954 50.8688 33.0691C50.4626 32.3429 50.2595 31.5089 50.2595 30.5673V26.5237C50.2595 25.5144 50.4595 24.6373 50.8596 23.8926C51.2658 23.1479 51.832 22.5725 52.5582 22.1663C53.2906 21.7601 54.14 21.557 55.1062 21.557C55.7771 21.557 56.4141 21.6708 57.0172 21.8985C57.6204 22.1201 58.1558 22.4771 58.6236 22.9694L57.0172 24.5296C56.7834 24.2527 56.4972 24.0342 56.1587 23.8742C55.8263 23.7142 55.4755 23.6341 55.1062 23.6341C54.5892 23.6341 54.1369 23.7572 53.7491 24.0034C53.3614 24.2434 53.0598 24.5604 52.8444 24.9543C52.6352 25.3482 52.5305 25.7698 52.5305 26.2191V28.4255L52.1243 27.9824C52.5059 27.5392 52.9644 27.1946 53.4999 26.9484C54.0353 26.6961 54.5954 26.5699 55.1801 26.5699C56.0171 26.5699 56.7557 26.7607 57.3957 27.1423C58.0358 27.5177 58.5405 28.0347 58.9098 28.6932C59.279 29.3456 59.4637 30.0903 59.4637 30.9273C59.4637 31.7582 59.2513 32.5121 58.8267 33.1891C58.4082 33.86 57.8512 34.3954 57.1557 34.7955C56.4602 35.1894 55.694 35.3863 54.857 35.3863ZM54.857 33.2538C55.2878 33.2538 55.6817 33.1522 56.0386 32.9491C56.3956 32.7399 56.6787 32.4598 56.888 32.109C57.1034 31.752 57.2111 31.3582 57.2111 30.9273C57.2111 30.4965 57.1065 30.1026 56.8972 29.7457C56.688 29.3887 56.4048 29.1056 56.0479 28.8963C55.6971 28.6809 55.3063 28.5732 54.8754 28.5732C54.4446 28.5732 54.0507 28.6809 53.6937 28.8963C53.3368 29.1056 53.0537 29.3887 52.8444 29.7457C52.6352 30.1026 52.5305 30.4965 52.5305 30.9273C52.5305 31.3458 52.6321 31.7336 52.8352 32.0905C53.0444 32.4414 53.3245 32.7245 53.6753 32.9399C54.0323 33.1491 54.4261 33.2538 54.857 33.2538ZM62.4658 33.9092V31.629H64.746V33.9092H62.4658ZM62.4842 28.6194V26.3391H64.7645V28.6194H62.4842ZM72.3489 21.557C73.2167 21.557 73.9984 21.7631 74.6938 22.1755C75.3893 22.5817 75.9371 23.1479 76.3371 23.8742C76.7433 24.5943 76.9464 25.4251 76.9464 26.3668V30.4196C76.9464 31.4228 76.7433 32.2998 76.3371 33.0507C75.9371 33.7954 75.3739 34.3708 74.6477 34.777C73.9214 35.1832 73.0721 35.3863 72.0997 35.3863C71.4288 35.3863 70.7949 35.2725 70.1979 35.0448C69.6009 34.8109 69.0655 34.4539 68.5916 33.9739L70.1887 32.4137C70.4287 32.6906 70.7149 32.9091 71.0472 33.0691C71.3857 33.223 71.7366 33.2999 72.0997 33.2999C72.6167 33.2999 73.069 33.1799 73.4568 32.9399C73.8445 32.6937 74.1461 32.3767 74.3615 31.989C74.5769 31.5951 74.6846 31.1735 74.6846 30.7242V28.5178L75.0816 28.9609C74.7061 29.4041 74.2507 29.7518 73.7153 30.0041C73.1798 30.2503 72.6167 30.3734 72.0258 30.3734C71.1949 30.3734 70.4564 30.1826 69.8102 29.801C69.1701 29.4195 68.6654 28.9025 68.2961 28.2501C67.933 27.5915 67.7515 26.8468 67.7515 26.016C67.7515 25.1851 67.9607 24.4342 68.3792 23.7634C68.7977 23.0864 69.3547 22.5509 70.0502 22.157C70.7518 21.757 71.5181 21.557 72.3489 21.557ZM72.3489 23.6803C71.9181 23.6803 71.5242 23.7849 71.1673 23.9942C70.8103 24.2034 70.5272 24.4866 70.3179 24.8435C70.1087 25.1943 70.004 25.5851 70.004 26.016C70.004 26.4468 70.1056 26.8407 70.3087 27.1976C70.5179 27.5546 70.798 27.8377 71.1488 28.047C71.5058 28.2562 71.8996 28.3609 72.3305 28.3609C72.7613 28.3609 73.1552 28.2562 73.5122 28.047C73.8691 27.8377 74.1522 27.5546 74.3615 27.1976C74.5769 26.8407 74.6846 26.4468 74.6846 26.016C74.6846 25.5975 74.58 25.2128 74.3707 24.862C74.1615 24.505 73.8783 24.2188 73.5214 24.0034C73.1706 23.788 72.7798 23.6803 72.3489 23.6803Z" fill="black"/>
</svg>
