<svg width="226" height="401" viewBox="0 0 226 401" fill="none" xmlns="http://www.w3.org/2000/svg">
<path opacity="0.8" d="M92.1165 321.814C80.2327 319.515 69.3974 321.304 59.5637 327.189C49.7238 333.074 43.769 341.382 41.7013 352.069C39.3602 364.17 41.7666 374.469 48.8986 383.013C56.0628 391.557 65.2577 396.918 76.5712 399.107C88.0769 401.333 98.7594 399.869 108.659 394.704C118.556 389.557 124.664 380.854 127.038 368.586C129.107 357.892 126.778 347.988 120.042 338.896C113.288 329.795 103.988 324.111 92.1165 321.814ZM264.651 79.5269C256.967 60.8691 243.944 44.5803 225.903 31.1601C207.996 17.8108 185.913 8.56069 160.236 3.59302C132.612 -1.75125 106.916 -0.735209 83.8809 6.63529C60.8039 13.9912 41.8866 25.509 27.5791 40.8898C13.1864 56.312 4.23102 72.8827 0.892048 90.1412C-0.894972 99.3779 1.26022 108.715 7.29664 117.903C13.3619 127.141 22.0218 132.906 33.0192 135.034C51.7407 138.656 66.7078 130.104 77.398 109.785C86.7932 93.0361 96.7369 80.8305 106.94 73.4342C116.545 66.4689 130.284 64.6637 147.772 68.0471C162.855 70.9651 173.933 77.4944 181.691 88.0247C189.325 98.4282 191.858 109.568 189.442 122.053C188.329 128.11 185.653 133.771 181.68 138.475C177.452 143.502 172.546 147.916 167.103 151.592C161.332 155.492 151.948 161.246 139.208 168.659C124.359 177.331 112.221 185.124 103.178 191.742C93.595 198.847 85.3163 207.559 78.7094 217.492C71.8282 227.762 66.8653 240.616 63.9449 255.711C61.4491 268.612 63.1125 279.294 68.9061 287.477C74.6348 295.595 82.731 300.718 92.9907 302.703C112.605 306.498 126.996 298.162 134.532 278.822C138.043 270.851 140.552 265.291 142.132 262.143C143.565 259.295 145.389 256.445 147.567 253.664C149.677 250.972 152.765 248.039 156.744 244.924C160.904 241.671 166.429 237.948 173.073 233.889C197.859 219.095 215.409 208.297 225.245 201.801C235.393 195.088 244.769 186.516 253.146 176.29C261.711 165.792 267.577 152.656 270.563 137.227C274.333 117.672 272.336 98.2751 264.61 79.5383" fill="url(#paint0_angular_1417_14441)" fill-opacity="0.22"/>
<defs>
<radialGradient id="paint0_angular_1417_14441" cx="0" cy="0" r="1" gradientUnits="userSpaceOnUse" gradientTransform="translate(-10.4232 338.848) rotate(42.0624) scale(350.69 754.251)">
<stop offset="0.0861779" stop-color="#FEF28A"/>
<stop offset="0.71875" stop-color="#FF971D"/>
<stop offset="1" stop-color="#FF1D89"/>
</radialGradient>
</defs>
</svg>
