<svg width="199" height="158" viewBox="0 0 199 158" fill="none" xmlns="http://www.w3.org/2000/svg">
<circle cx="119.07" cy="79" r="78.5" stroke="#DFC7B6"/>
<circle cx="58.5" cy="78.5" r="58.5" fill="url(#paint0_radial_85_38381)"/>
<path d="M59 31L60.9163 58.9313L68.0841 31.8674L64.6797 59.6566L76.8398 34.4383L68.2378 61.0811L84.9508 38.6198L71.4621 63.1532L92.1238 44.2608L74.2359 65.798L98.0996 51.1573L76.4591 68.92L102.662 59.0601L78.0512 72.4063L105.647 67.6836L78.9548 76.1309L106.946 76.7161L79.1372 79.9593L106.511 85.8311L78.5917 83.7529L104.36 94.6993L77.3382 87.3748L100.569 103L75.4219 90.6939L95.276 110.433L72.912 93.5905L88.6716 116.731L69.8993 95.9597L80.9949 121.664L66.4927 97.7159L72.5232 125.056L62.8153 98.7957L63.5627 126.783L59 99.16L54.4373 126.783L55.1847 98.7957L45.4768 125.056L51.5073 97.7159L37.0051 121.664L48.1007 95.9597L29.3284 116.731L45.088 93.5905L22.724 110.433L42.5781 90.6939L17.4308 103L40.6618 87.3748L13.64 94.6993L39.4083 83.7529L11.4886 85.8311L38.8628 79.9593L11.0544 76.7161L39.0452 76.1309L12.353 67.6836L39.9488 72.4063L15.3377 59.0601L41.5409 68.92L19.9004 51.1573L43.7641 65.798L25.8762 44.2608L46.5379 63.1532L33.0492 38.6198L49.7622 61.0811L41.1602 34.4383L53.3203 59.6566L49.9159 31.8674L57.0837 58.9313L59 31Z" fill="white"/>
<defs>
<radialGradient id="paint0_radial_85_38381" cx="0" cy="0" r="1" gradientUnits="userSpaceOnUse" gradientTransform="translate(107.542 92.8623) rotate(-178.112) scale(127.578 88.4696)">
<stop stop-color="#FBCBB1"/>
<stop offset="1" stop-color="#C2B0E7"/>
</radialGradient>
</defs>
</svg>
