<svg width="180" height="176" viewBox="0 0 180 176" fill="none" xmlns="http://www.w3.org/2000/svg">
<mask id="mask0_8_673" style="mask-type:alpha" maskUnits="userSpaceOnUse" x="0" y="0" width="180" height="176">
<rect width="180" height="176" fill="#C4C4C4"/>
</mask>
<g mask="url(#mask0_8_673)">
<circle cx="41.17" cy="104.953" r="40.3345" transform="rotate(-24.7232 41.17 104.953)" stroke="#DFC7B6"/>
<circle cx="90.4142" cy="135.219" r="40.3345" transform="rotate(-24.7232 90.4142 135.219)" stroke="#DFC7B6"/>
<circle cx="139.484" cy="103.2" r="40.3345" transform="rotate(-24.7232 139.484 103.2)" stroke="#DFC7B6"/>
<circle cx="94.5" cy="58.5" r="58.5" fill="url(#paint0_radial_8_673)"/>
<path d="M95 11L96.9163 38.9313L104.084 11.8674L100.68 39.6566L112.84 14.4383L104.238 41.0811L120.951 18.6198L107.462 43.1532L128.124 24.2608L110.236 45.798L134.1 31.1573L112.459 48.92L138.662 39.0601L114.051 52.4063L141.647 47.6836L114.955 56.1309L142.946 56.7161L115.137 59.9593L142.511 65.8311L114.592 63.7529L140.36 74.6993L113.338 67.3748L136.569 83L111.422 70.6939L131.276 90.4333L108.912 73.5905L124.672 96.7305L105.899 75.9597L116.995 101.664L102.493 77.7159L108.523 105.056L98.8153 78.7957L99.5627 106.783L95 79.16L90.4373 106.783L91.1847 78.7957L81.4768 105.056L87.5073 77.7159L73.0051 101.664L84.1007 75.9597L65.3284 96.7305L81.088 73.5905L58.724 90.4333L78.5781 70.6939L53.4308 83L76.6618 67.3748L49.64 74.6993L75.4083 63.7529L47.4886 65.8311L74.8628 59.9593L47.0544 56.7161L75.0452 56.1309L48.353 47.6836L75.9488 52.4063L51.3377 39.0601L77.5409 48.92L55.9004 31.1573L79.7641 45.798L61.8762 24.2608L82.5379 43.1532L69.0492 18.6198L85.7622 41.0811L77.1602 14.4383L89.3203 39.6566L85.9159 11.8674L93.0837 38.9313L95 11Z" fill="white"/>
</g>
<defs>
<radialGradient id="paint0_radial_8_673" cx="0" cy="0" r="1" gradientUnits="userSpaceOnUse" gradientTransform="translate(143.542 72.8623) rotate(-178.112) scale(127.578 88.4696)">
<stop stop-color="#FBCBB1"/>
<stop offset="1" stop-color="#C2B0E7"/>
</radialGradient>
</defs>
</svg>
