<svg width="223" height="158" viewBox="0 0 223 158" fill="none" xmlns="http://www.w3.org/2000/svg">
<circle cx="79" cy="79" r="78.5" stroke="#DFC7B6"/>
<circle cx="143.93" cy="79" r="78.5" stroke="#DFC7B6"/>
<circle cx="114.43" cy="78.5" r="35.5" fill="url(#paint0_linear_85_38397)"/>
<path d="M114.43 43L115.275 64.2541L118.628 43.2492L116.954 64.454L122.768 43.9932L118.598 64.8512L126.791 45.2216L120.183 65.44L130.64 46.9172L121.687 66.212L134.262 49.0561L123.089 67.1566L137.605 51.6084L124.37 68.2605L140.623 54.5381L125.511 69.508L143.273 57.8042L126.497 70.8818L145.518 61.3609L127.314 72.3625L147.327 65.1581L127.949 73.9294L148.674 69.1427L128.395 75.5605L149.541 73.2585L128.644 77.2328L149.914 77.448L128.694 78.9229L149.789 81.6523L128.544 80.6071L149.168 85.8122L128.196 82.2617L148.06 89.8696L127.654 83.8634L146.479 93.7673L126.927 85.3899L144.448 97.4507L126.025 86.8197L141.996 100.868L124.959 88.1327L139.157 103.972L123.746 89.3104L135.971 106.717L122.402 90.3364L132.483 109.067L120.946 91.1963L128.741 110.988L119.399 91.8779L124.798 112.452L117.782 92.3717L120.709 113.44L116.118 92.6708L116.533 113.938L114.43 92.771L112.327 113.938L112.742 92.6708L108.15 113.44L111.078 92.3717L104.062 112.452L109.461 91.8779L100.119 110.988L107.913 91.1963L96.3768 109.067L106.457 90.3364L92.8883 106.717L105.113 89.3104L89.7021 103.972L103.9 88.1327L86.8631 100.868L102.835 86.8197L84.411 97.4507L101.932 85.3899L82.3804 93.7673L101.205 83.8634L80.7996 89.8696L100.663 82.2617L79.6909 85.8122L100.315 80.6071L79.0699 81.6523L100.165 78.9229L78.9453 77.448L100.215 77.2328L79.3188 73.2585L100.465 75.5605L80.1851 69.1427L100.91 73.9294L81.5322 65.1581L101.546 72.3625L83.3411 61.3609L102.362 70.8818L85.5864 57.8042L103.348 69.508L88.2366 54.5381L104.489 68.2605L91.2545 51.6084L105.77 67.1566L94.5977 49.0561L107.172 66.212L98.2193 46.9172L108.677 65.44L102.069 45.2216L110.262 64.8512L106.091 43.9932L111.905 64.454L110.231 43.2492L113.584 64.2541L114.43 43Z" fill="white"/>
<defs>
<linearGradient id="paint0_linear_85_38397" x1="134.93" y1="91.5" x2="66.8129" y2="84.6647" gradientUnits="userSpaceOnUse">
<stop stop-color="#C2B0E7"/>
<stop offset="0.825558" stop-color="#FBD2B1"/>
</linearGradient>
</defs>
</svg>
