<svg width="42" height="24" viewBox="0 0 42 24" fill="none" xmlns="http://www.w3.org/2000/svg">
<path d="M42 0C41.3828 2.51497 40.7494 5.15414 40.0998 7.9175C39.4826 10.6809 38.9142 13.3976 38.3944 16.0679C37.8747 18.707 37.4362 21.1289 37.0789 23.3333H23.4362L22.7541 22.3087C23.3387 20.0421 24.0858 17.6358 24.9954 15.0898C25.9374 12.5128 26.9443 9.93568 28.0162 7.35862C29.1206 4.7505 30.2251 2.29763 31.3295 0H42ZM19.2459 0C18.6288 2.51497 17.9954 5.15414 17.3457 7.9175C16.7285 10.6809 16.1601 13.3976 15.6404 16.0679C15.1206 18.707 14.6821 21.1289 14.3248 23.3333H0.682135L0 22.3087C0.584687 20.0421 1.33179 17.6358 2.2413 15.0898C3.18329 12.5128 4.19026 9.93568 5.26218 7.35862C6.36659 4.7505 7.471 2.29763 8.57541 0H19.2459Z" fill="#FF971D"/>
</svg>
