<svg width="219" height="150" viewBox="0 0 219 150" fill="none" xmlns="http://www.w3.org/2000/svg">
<path d="M184.466 30.49C184.522 30.2197 184.349 29.9547 184.079 29.8981L179.674 28.9754C179.404 28.9188 179.139 29.092 179.083 29.3623C179.026 29.6325 179.199 29.8975 179.469 29.9542L183.384 30.7743L182.564 34.6893C182.508 34.9596 182.681 35.2246 182.951 35.2812C183.221 35.3378 183.486 35.1646 183.543 34.8944L184.466 30.49ZM33.5106 128.309C33.454 128.579 33.6272 128.844 33.8975 128.901L38.3019 129.823C38.5722 129.88 38.8372 129.707 38.8938 129.436C38.9504 129.166 38.7772 128.901 38.5069 128.844L34.5919 128.024L35.412 124.109C35.4687 123.839 35.2955 123.574 35.0252 123.517C34.7549 123.461 34.4899 123.634 34.4333 123.904L33.5106 128.309ZM34.2736 128.83L184.25 30.806L183.703 29.9689L33.7264 127.993L34.2736 128.83Z" fill="#ACACAC"/>
<path d="M9.70475 46.1817V10C9.70475 8.89543 10.6002 8 11.7047 8H177.86H208.198C209.302 8 210.198 8.89543 210.198 10V116.159V148.174M210.198 148.174H155.5M210.198 148.174H219M9.70475 100.055V148.174M63 148.174H9.70475M9.70475 148.174H3.34766" stroke="#626262" stroke-width="2"/>
<rect width="218.593" height="12.7431" rx="2" fill="#626262"/>
</svg>
